<?xml version="1.0" encoding="utf-8"?>
<!-- Generator: Adobe Illustrator 21.1.0, SVG Export Plug-In . SVG Version: 6.00 Build 0)  -->
<svg version="1.1" id="Calque_1" xmlns="http://www.w3.org/2000/svg" xmlns:xlink="http://www.w3.org/1999/xlink" x="0px" y="0px"
	 viewBox="0 0 432 432" style="enable-background:new 0 0 432 432;" xml:space="preserve">
<style type="text/css">
	.st0{fill:#696680;}
	.st1{fill:#343434;}
	.st2{fill:#CCB67A;}
	.st3{fill:#CECCE6;}
	.st4{fill:#4E4D4D;}
	.st5{fill:#A68677;}
	.st6{fill:#347D83;}
	.st7{fill:#88ADBF;}
	.st8{fill:#325363;}
	.st9{fill:#BCA697;}
	.st10{fill:#B3676C;}
	.st11{fill:#A38485;}
	.st12{fill:#C2ACAE;}
	.st13{fill:#454A79;}
	.st14{fill:#9796AE;}
	.st15{fill:#D89856;}
	.st16{fill:#C793B3;}
	.st17{fill:#576555;}
	.st18{fill:#AD6D70;}
	.st19{fill:#A38B83;}
	.st20{fill:#E5D4C3;}
	.st21{fill:#BC9167;}
	.st22{fill:#B4ABAB;}
	.st23{fill:#A69888;}
	.st24{fill:#4D5C6C;}
	.st25{fill:#8F7D7D;}
	.st26{fill:#916161;}
	.st27{fill:#B3BAC6;}
	.st28{fill:#7A6371;}
	.st29{fill:#818994;}
	.st30{fill:#1B1B1B;}
	.st31{fill:#70845B;}
	.st32{fill:#D24B55;}
	.st33{fill:#D4C3C5;}
	.st34{fill:#93686B;}
	.st35{fill:#918182;}
	.st36{fill:#808181;}
	.st37{fill:#CE8BA3;}
	.st38{fill:#824B5E;}
	.st39{fill:#717581;}
	.st40{fill:#9EB7C7;}
	.st41{fill:#DEA97F;}
	.st42{fill:#514055;}
	.st43{fill:#749599;}
	.st44{fill:#C18EAB;}
	.st45{fill:#909686;}
	.st46{fill:#CF91AB;}
	.st47{fill:#DBA07E;}
	.st48{fill:#828E6F;}
	.st49{fill:#9FAF88;}
	.st50{fill:#7E8D66;}
	.st51{fill:#D7A2AE;}
	.st52{fill:#E3B4B4;}
	.st53{fill:#A87A8F;}
	.st54{fill:#A0B478;}
	.st55{fill:#97987E;}
	.st56{fill:#596F71;}
	.st57{fill:#935774;}
	.st58{fill:#A64849;}
	.st59{fill:#798A5C;}
	.st60{fill:#5E8C8D;}
	.st61{fill:#D89C73;}
	.st62{fill:#AFBAB9;}
	.st63{fill:#E4B188;}
	.st64{fill:#8E90A5;}
	.st65{fill:#71606D;}
	.st66{fill:#CF8E8E;}
	.st67{fill:#788A8B;}
	.st68{fill:#332630;}
	.st69{fill:#A37F92;}
	.st70{fill:#FCD271;}
	.st71{fill:#6C7D49;}
	.st72{fill:#020203;}
	.st73{fill:#BA8E4D;}
	.st74{fill:#AA7C4D;}
	.st75{fill:#9A9999;}
	.st76{fill:#8D7968;}
	.st77{fill:#662A48;}
	.st78{fill:#987257;}
	.st79{fill:#7FBAAB;}
	.st80{fill:#646479;}
	.st81{fill:#EEBCBD;}
	.st82{fill:#55A7DD;}
	.st83{fill:#95C23B;}
	.st84{fill:#9B9A90;}
	.st85{fill:#B8A177;}
	.st86{fill:#40687F;}
	.st87{fill:#E5AA77;}
	.st88{fill:#B8D5D5;}
	.st89{fill:#89525A;}
	.st90{fill:#BBCC53;}
	.st91{fill:#BA4D68;}
	.st92{fill:#F49F2C;}
	.st93{fill:#E84135;}
	.st94{fill:#729631;}
	.st95{fill:#4F5A5E;}
	.st96{fill:#CDCCCC;}
	.st97{fill:#92B9A6;}
	.st98{fill:#36B6B1;}
	.st99{fill:#91CFD0;}
	.st100{fill:#F9C528;}
	.st101{fill:#FFE222;}
	.st102{fill:#8FB23C;}
	.st103{fill:#B9CF48;}
	.st104{fill:#507A8A;}
	.st105{fill:#F3B056;}
	.st106{fill:#D594A4;}
	.st107{fill:#E67474;}
	.st108{fill:#727D6E;}
	.st109{fill:#B4B4B4;}
	.st110{fill:#D36D34;}
	.st111{fill:#EC6284;}
	.st112{fill:#7ABA46;}
	.st113{fill:#8EAB58;}
	.st114{fill:#96BB6E;}
	.st115{fill:#EE724F;}
	.st116{fill:#F5B155;}
	.st117{fill:#C69C6C;}
	.st118{fill:#5E9290;}
	.st119{fill:#516955;}
	.st120{fill:#B69E65;}
	.st121{fill:#764245;}
	.st122{fill:#AD8E8F;}
	.st123{fill:#CE9852;}
	.st124{fill:#6D91A9;}
	.st125{fill:#A76567;}
	.st126{fill:#B28862;}
	.st127{fill:#B85960;}
	.st128{fill:#D2B08B;}
	.st129{fill:#AF845D;}
	.st130{fill:#846D7D;}
	.st131{fill:#BF9972;}
	.st132{fill:#919AA3;}
	.st133{fill:#C3B9BE;}
	.st134{fill:#8D6A6A;}
	.st135{fill:#BCB58E;}
	.st136{fill:#E8B1B3;}
	.st137{fill:#746458;}
	.st138{fill:#88737E;}
	.st139{fill:#9C719E;}
	.st140{fill:#85A2A6;}
	.st141{fill:#AB768B;}
	.st142{fill:#CAAA6B;}
	.st143{fill:#F9B03D;}
	.st144{fill:#DB7D82;}
	.st145{fill:#CC9E68;}
	.st146{fill:#544842;}
	.st147{fill:#B5718E;}
	.st148{fill:#B0A39B;}
	.st149{fill:#728676;}
	.st150{fill:#7097A2;}
	.st151{fill:#CD94C2;}
	.st152{fill:#8B8BA4;}
	.st153{fill:#E2B77D;}
	.st154{fill:#6F6E88;}
	.st155{fill:#D9CAA2;}
	.st156{fill:#AF8282;}
	.st157{fill:#858CA0;}
	.st158{fill:#8E4447;}
	.st159{fill:#856578;}
	.st160{fill:#96ABC2;}
	.st161{fill:#9E7958;}
	.st162{fill:#C6414B;}
	.st163{fill:#638558;}
	.st164{fill:#913E41;}
	.st165{fill:#BD8C8D;}
	.st166{fill:#CA74AD;}
	.st167{fill:#D0A5AD;}
	.st168{fill:#881C31;}
	.st169{fill:#401A0E;}
	.st170{fill:#BDA499;}
	.st171{fill:#AD8C51;}
	.st172{fill-rule:evenodd;clip-rule:evenodd;fill:#1B1B1B;}
	.st173{fill:#817A94;}
	.st174{fill:#B36A9E;}
	.st175{fill:#A5A4C8;}
	.st176{fill:#FBC063;}
</style>
<g>
	<g>
		<g>
			<g>
				<path class="st30" d="M303.8,272.2c-0.1,0.3-0.3,0.6-0.4,0.9c-0.9,2.1-1.8,4.3-3.1,6.2c-0.7,1-1.4,1.9-2.3,2.6
					c-1.9,1.7-4.2,1.8-6.4,0.4c-1.6-1-2.8-2.5-3.7-4.1c-1.4-2.5-2.3-5.2-2.5-8.1c-0.2-2-0.1-3.9-0.2-5.9c0-0.3,0-0.6,0-1.1
					c-0.9,0.6-1.6,1.2-2.3,1.8c-0.2,0.2-0.2,0.6-0.2,0.9c-0.2,4.5-0.9,8.8-2.4,13c-1,2.7-2.4,5.3-4.3,7.4c-0.7,0.8-1.6,1.6-2.5,2.2
					c-2.9,2-6,2.1-9.1,0.5c-3.5-1.7-5.6-4.6-6.8-8.3c-0.6-1.7-0.8-3.4-1-5.1c0-0.4-0.1-0.7-0.1-1.2c-0.3,0.2-0.4,0.2-0.6,0.3
					c-1.2,0.9-2.3,1.7-3.5,2.6c-0.4,0.3-0.5,0.6-0.5,1c-0.1,3.5-0.2,7-0.4,10.5c-0.3,5.9-0.9,11.8-2.5,17.5c-0.5,1.7-1,3.3-1.9,4.8
					c-1.4,2.2-3.2,3.9-5.8,4.6c-3.3,0.9-6.6-0.4-8.4-3.3c-1.1-1.7-1.6-3.6-1.7-5.7c-0.3-5.5,1.2-10.5,3.9-15.2
					c2.3-4,5.3-7.6,8.6-10.8c0.5-0.5,0.7-1,0.7-1.6c0.2-6.8,0-13.5-0.5-20.2c-0.1-0.7-0.1-1.5-0.4-2.2c-0.1,0.3-0.2,0.5-0.3,0.8
					c-1.5,3.7-2.8,7.5-4.4,11.1c-0.9,2.1-2.2,4.1-3.3,6.1c-0.7,1.3-1.8,2.3-3,3.1c-2.5,1.7-5.1,1.8-7.8,0.4
					c-2.6-1.4-4.4-3.5-5.5-6.2c-0.9-2.2-1.4-4.5-1.7-6.8c-0.5-3.6-0.6-7.3-0.4-10.9c0.1-1.1,0.3-2.3,0.6-3.4
					c0.4-1.3,1.3-2.2,2.7-2.5c1.6-0.3,3.1,0.7,3.6,2.4c0.3,0.9,0.4,1.9,0.4,2.8c0.1,1.8,0,3.6,0,5.4c0.1,2.9,0.3,5.7,1.1,8.5
					c0.5,1.5,1.1,3,1.8,4.5c0.3,0.7,0.9,1.2,1.4,1.7c0.4,0.5,1,0.6,1.6,0.3c0.6-0.3,1.3-0.7,1.8-1.2c0.9-0.9,1.7-1.9,2.4-2.9
					c2.3-3.3,3.9-7,5.2-10.8c0.9-2.5,1.8-5.1,2.7-7.6c0.2-0.6,0.5-1.2,0.8-1.7c0.8-1.3,2.3-1.7,3.7-1.1c0.9,0.4,1.5,1.1,2,1.9
					c1.1,1.8,1.7,3.8,2.1,5.9c0.7,3.8,0.8,7.7,0.9,11.6c0.1,1.7,0.1,3.4,0.1,5.1c0,0.2,0,0.4,0.1,0.6c0.3-0.1,0.5-0.2,0.6-0.3
					c1.1-0.7,2.3-1.5,3.4-2.2c0.4-0.2,0.5-0.5,0.6-1c0.2-1.4,0.3-2.8,0.6-4.2c0.1-0.5,0-0.9-0.4-1.2c-2.5-2.5-4-5.5-4.1-9.1
					c-0.2-4.7,1.2-8.8,4.7-12c2.7-2.5,5.9-3,9.4-2.1c4.4,1.2,7.9,3.9,10.7,7.5c2.7,3.6,4.5,7.5,5,12c0,0.2,0.1,0.5,0.2,0.9
					c0.9-0.6,1.8-1.1,2.6-1.7c0.2-0.2,0.3-0.6,0.3-0.9c0.2-1.4,0.4-2.9,0.6-4.3c0.1-0.6,0.3-1.3,0.6-1.9c0.7-1.6,2.4-2.4,3.9-2.1
					c1.7,0.4,2.9,1.7,2.9,3.5c0,1.4-0.2,2.7-0.4,4.1c-0.5,4.5-0.6,8.9-0.1,13.4c0.2,1.4,0.3,2.8,0.5,4.2c0.2,0.9,0.6,1.7,1,2.5
					c0.4,0.8,1,0.9,1.7,0.3c0.6-0.5,1.2-1.1,1.6-1.7c1.3-1.9,2.4-4.1,3.2-6.3c1.2-3.1,2.3-6.3,3.4-9.5c0.3-0.8,0.3-1.7,0.4-2.5
					c0.3-1.8,0.5-3.5,0.8-5.3c0.1-0.7,0.3-1.4,0.6-2c0.7-1.5,2.2-2.4,3.6-2.2c1.6,0.2,2.8,1.4,3,3.2c0.1,1,0.1,2-0.1,3
					c-0.8,6.2-1.3,12.4-1.4,18.6c-0.1,3.8,0,7.6,0.7,11.4c0.3,1.5,0.7,2.9,1.2,4.3c0.2,0.7,0.7,1.4,1.2,2c0.5,0.6,1,0.7,1.6,0.2
					c0.7-0.5,1.3-1,1.9-1.6c0.6-0.7,1.1-1.5,1.6-2.3c1.6-2.7,2.9-5.5,4-8.4c0.1-0.3,0.2-0.5,0.4-0.8c0.4-0.5,1-0.7,1.6-0.5
					c0.6,0.3,0.9,0.8,0.8,1.5c0,0.2-0.1,0.4-0.2,0.6c-1.4,3.1-2.7,6.1-4.2,9.1c-0.6,1.3-1.5,2.4-2.4,3.5c-0.6,0.7-1.3,1.4-2.1,1.9
					c-1.5,1.1-3.2,1.2-5,0.7c-1.5-0.5-2.8-1.4-3.8-2.6c-1.9-2.1-2.9-4.5-3.6-7.2c-1.1-4-1.3-8.1-1.2-12.2c0-0.7,0-1.3,0-2
					c0-0.1,0-0.2,0-0.3C303.9,272.2,303.9,272.2,303.8,272.2z M267.1,262.6c0.2,0.1,0.3,0.2,0.4,0.2c3.2,1.5,6.6,1.9,10,1.5
					c0.7-0.1,1.4-0.3,2.1-0.8c-0.2-1.2-0.3-2.4-0.5-3.6c-0.9-4.3-2.8-8.1-6.2-11c-1.5-1.4-3.3-2.4-5.3-2.9c-2.8-0.8-5.3,0.3-6.5,2.8
					c-1.2,2.5-0.6,5,0.3,7.4c0.8-0.4,1.5-0.8,2.3-1.1c2.4-0.7,4.6,1,4.6,3.5c0,0.6-0.2,1.3-0.4,1.9
					C267.7,261.2,267.4,261.9,267.1,262.6z M264.3,268.8c-0.1,0.3-0.2,0.6-0.2,0.8c-0.7,4.7,0.1,9.2,2.4,13.4c0.4,0.7,1,1.4,1.5,2
					c0.5,0.6,1.3,0.9,2.1,0.9c0.8,0,1.6-0.2,2.2-0.7c0.9-0.6,1.7-1.3,2.4-2.1c1.5-1.7,2.5-3.7,3.2-5.8c1.1-3.3,1.6-6.6,1.7-10.1
					c0-0.1,0-0.3-0.1-0.5C274.6,269,269.6,269.8,264.3,268.8z M243.9,284.9c-0.1,0-0.1-0.1-0.2-0.1c-0.1,0.1-0.1,0.2-0.2,0.3
					c-3,3.5-5.2,7.5-6.8,11.8c-0.7,1.7-1.2,3.5-1.4,5.4c-0.2,1.7-0.3,3.5,0.3,5.2c0.2,0.7,0.6,1.3,1,1.9c0.6,0.7,1.3,0.8,2,0.2
					c0.5-0.4,1-1,1.4-1.5c1-1.4,1.5-3,1.9-4.6c1.4-5.6,1.8-11.3,2.1-17C243.9,286,243.9,285.4,243.9,284.9z"/>
				<path class="st30" d="M176,284c-0.1,0.5-0.3,0.9-0.4,1.3c-0.5,2-1.3,4-2.3,5.8c-0.5,0.9-1.1,1.7-1.8,2.4
					c-1.7,1.7-3.9,1.8-5.9,0.4c-1.1-0.8-2-1.8-2.8-3c-1.8-2.7-2.8-5.7-3.4-8.8c-0.9-4.2-0.8-8.5-0.3-12.8c0.6-4.6,1.3-9.2,1.9-13.8
					c0.1-0.8,0.1-1.7,0.1-2.6c-0.1-1.1-0.7-1.6-1.8-1.7c-0.4,0-0.8,0-1.2,0.1c-1.2,0.3-2.3,0.6-3.5,0.8c0,0.2-0.1,0.4-0.1,0.5
					c0.6,5.3,0.3,10.6-1,15.9c-1,4.1-2.1,8.1-4.1,11.8c-0.6,1.1-1.2,2.3-2,3.3c-0.5,0.8-1.2,1.5-2,2.1c-2,1.7-4.2,1.9-6.6,0.9
					c-2.3-1-3.9-2.7-5.1-4.8c-1.3-2.3-1.9-4.9-2.1-7.5c0-0.2,0-0.3-0.2-0.5c-0.1,0.3-0.3,0.5-0.4,0.8c-1.4,2.7-2.8,5.4-4.2,8
					c-0.8,1.4-1.8,2.7-2.9,3.8c-0.8,0.7-1.6,1.3-2.6,1.7c-1.6,0.7-3.3,0.7-4.9,0c-2.2-0.9-3.8-2.4-4.9-4.4c-1.3-2.2-2-4.6-2.1-7.1
					c-0.3-5,0.5-9.8,2.1-14.5c0.7-2,1.7-3.8,3-5.4c1.9-2.3,4.4-3.6,7.3-4c2.6-0.3,4.9,0.5,7.1,2c1.5,1,2.6,2.3,3.6,3.7
					c0.2,0.3,0.4,0.5,0.6,0.9c0.1-0.3,0.2-0.5,0.3-0.8c0.2-0.6,0.4-1.2,0.8-1.7c0.4-0.6,0.8-1.2,1.3-1.6c1.9-1.5,4.2-0.7,4.9,1.6
					c0.3,1,0.3,2,0.1,3c-0.3,1.9-0.7,3.8-0.9,5.7c-0.5,3.8-0.7,7.5,0.1,11.3c0.3,1.2,0.6,2.3,1,3.5c0.2,0.6,0.5,1.1,0.8,1.6
					c0.7,1,1.4,1.1,2.4,0.5c0.9-0.6,1.7-1.3,2.3-2.2c1.2-1.7,2-3.5,2.7-5.4c1.6-4.3,2.6-8.7,3-13.3c0.2-2.7,0.1-5.3-0.2-8
					c0-0.2-0.1-0.3-0.1-0.6c-0.6,0.1-1.1,0.2-1.6,0.3c-2,0.5-4.1,0.7-6.1,0.3c-2.6-0.6-4.9-1.7-6.5-3.9c-2.1-2.9-2.4-6-0.9-9.3
					c0.7-1.5,1.8-2.6,3.3-3.4c1.3-0.7,2.6-0.8,4-0.6c1.6,0.3,3.1,1,4.3,2.1c2,1.7,3.5,3.8,4.4,6.3c0.3,0.9,0.6,1.9,1,2.8
					c0.1,0.2,0.2,0.4,0.3,0.7c0.8-0.2,1.6-0.4,2.4-0.6c1.1-0.2,2.2-0.5,3.4-0.6c3.4-0.4,6.2,1.1,7.6,4.3c1,2.4,1.2,4.8,0.9,7.4
					c-0.5,4-1.1,8-1.5,12c-0.4,3.9-0.8,7.8-0.7,11.7c0.1,2.3,0.5,4.5,1.5,6.6c0.3,0.7,0.7,1.4,1.4,1.9c0.5-0.1,0.8-0.5,1.1-0.9
					c0.6-0.9,1.3-1.8,1.7-2.8c1-2.2,1.7-4.5,2.2-6.9c0.1-0.3,0.1-0.6,0-0.9c-1.9-6.1-1.3-12,0.8-17.9c0.6-1.7,1.4-3.3,2.5-4.8
					c1.3-1.7,2.8-3,4.8-3.7c3-1.1,5.6-0.5,7.9,1.6c3.2,2.9,3.9,6.7,2.2,10.6c-1.4,3.3-4,5.3-7.3,6.4c-1.4,0.5-2.9,0.7-4.5,1.1
					c-0.2,0.7,0.1,1.5,0.2,2.3c0.4,2.1,1.2,4.1,2.4,5.9c0.4,0.7,1,1.3,1.6,1.8c1.7,1.5,3.7,1.8,5.9,1.1c1.2-0.4,2.3-1,3.3-1.7
					c1.8-1.4,3.4-2.9,4.8-4.7c2.2-2.7,4.1-5.6,5.7-8.8c0.3-0.6,0.9-1.2,1.4-1.7c0.3-0.3,0.7-0.4,1.1-0.2c0.4,0.2,0.6,0.5,0.5,0.9
					c-0.1,0.7-0.1,1.4-0.3,2c-2.7,5.7-6,10.9-10.8,15c-2,1.7-4.2,3.1-6.9,3.7c-1.8,0.4-3.5,0.4-5.3,0c-2.8-0.8-5.4-2-7.4-4.3
					C176.3,284.3,176.2,284.2,176,284z M116.9,274.2c0,2.5,0.2,4.5,0.7,6.4c0.2,0.9,0.6,1.8,1.2,2.5c0.9,1,1.7,1.2,2.8,0.5
					c0.9-0.6,1.7-1.3,2.4-2.1c0.7-0.8,1.4-1.7,1.9-2.6c1.9-3.2,3.7-6.3,5.5-9.5c0.2-0.3,0.2-0.7,0.3-1.1c0.2-1.5,0.4-3,0.5-4.5
					c0-0.3,0-0.6-0.1-0.8c-1.2-1.9-2.6-3.5-4.6-4.6c-2.8-1.4-5.6-0.6-7.3,2c-0.5,0.8-0.9,1.6-1.2,2.5
					C117.6,266.6,117,270.6,116.9,274.2z M180.3,270.6c1-0.1,1.9-0.2,2.8-0.4c2.6-0.6,4.7-1.9,6.3-4.1c0.9-1.3,1.2-2.7,1-4.2
					c-0.3-1.8-1.1-3.3-2.9-4c-1.5-0.6-2.6-0.3-3.5,1.1c-0.2,0.2-0.3,0.5-0.4,0.7c-1.1,2.1-2,4.4-2.6,6.7
					C180.6,267.7,180.3,269,180.3,270.6z M150.9,249c-0.6-2.1-1.3-4-2.5-5.7c-0.8-1.1-1.7-2-2.9-2.6c-1.8-0.9-3.3-0.4-3.4,1.9
					c-0.1,2.3,0.9,4,2.7,5.4C146.6,249.3,148.7,249.3,150.9,249z"/>
			</g>
			<g>
				<path class="st30" d="M294.5,175.7c0.7-0.3,1.3-0.8,1.7-1.4c1-1.3,1.9-2.6,2.8-4c0.3-0.4,0.1-0.8,0-1.3
					c-1.6-5.2-1.7-10.4-0.1-15.6c0.6-1.9,1.4-3.6,2.7-5.1c1.1-1.3,2.5-2.2,4.1-2.8c1.6-0.5,3.2-0.4,4.6,0.4c2.9,1.6,4.7,4.1,5.5,7.3
					c0.1,0.6,0.1,1.2,0.1,1.8c0,0.4-0.2,0.7-0.7,0.8c-0.4,0-0.6-0.3-0.7-0.6c-0.2-0.4-0.3-0.8-0.5-1.2c-0.6-1.8-1.8-3.1-3.4-4.1
					c-1.9-1.2-3.1-0.8-3.9,1.3c-0.7,1.6-0.9,3.4-1,5.1c-0.1,3,0,6,0.5,9c0.3,1.5,0.7,3,1.4,4.4c0.9,1.8,1.8,2,3.2,0.5
					c0.5-0.5,1-1.2,1.4-1.8c1.3-1.9,2.5-4,3.4-6.1c1.3-3.3,2.7-6.6,4-9.9c0.2-0.5,0.4-0.9,0.6-1.4c0.9-1.4,2.5-1.8,4-0.9
					c0.9,0.6,1.6,1.5,2,2.5c0.8,1.7,1.3,3.5,1.7,5.3c0.8,3.6,1.1,7.3,1.3,11c0,0.2,0,0.4,0,0.7c0.2-0.1,0.4-0.2,0.6-0.3
					c0.9-0.5,1.8-1.1,2.7-1.6c0.4-0.3,0.6-0.6,0.6-1.1c0.1-2.6,0.2-5.1,0.4-7.7c0.4-4.2,0.8-8.4,1.3-12.6c0.5-4.6,1.5-9.2,2.9-13.7
					c0.8-2.5,1.7-5,2.9-7.3c1.2-2.3,2.8-4.4,4.9-5.9c0.9-0.6,1.8-1.1,2.9-1.4c1.4-0.3,2.6,0,3.8,0.7c1.3,0.8,2.3,1.9,3,3.4
					c1.1,2.4,1.6,5,1.4,7.6c-0.4,6.3-2.5,12-5.3,17.5c-2.1,4.2-4.9,7.9-7.9,11.5c-0.5,0.5-0.7,1.1-0.7,1.8
					c-0.3,3.6-0.6,7.3-0.9,10.9c0,0.2,0,0.5,0.1,0.8c0.2-0.3,0.3-0.6,0.5-0.9c1.7-3.6,3.4-7.1,5.7-10.4c1.4-2,2.8-3.8,4.7-5.3
					c1.1-0.9,2.3-1.7,3.7-2.1c1.6-0.4,3.1,0,4.5,0.9c1.2,0.8,2,1.9,2.6,3.1c1,1.8,1.4,3.8,1.7,5.8c0.5,3.6,0.3,7.2,0.1,10.8
					c-0.1,2.5-0.3,4.9-0.5,7.4c-0.1,1.6,0,3.1,0.3,4.6c0.1,0.6,0.4,1.1,0.6,1.7c0.2,0.4,0.5,0.5,0.9,0.2c0.4-0.3,0.7-0.5,1-0.9
					c1.4-1.5,2.5-3.2,3.4-5.1c1.1-2.4,2.2-4.8,3.3-7.2c0.2-0.3,0.3-0.7,0.6-1c0.5-0.6,1.2-0.8,1.9-0.5c0.6,0.2,1,0.9,0.9,1.6
					c0,0.3-0.1,0.7-0.2,1c-1.5,4.1-3.4,7.9-5.8,11.5c-0.8,1.3-1.8,2.4-2.9,3.3c-2.3,1.9-5,1.8-7-0.5c-1.5-1.7-2.3-3.7-2.8-5.9
					c-0.6-2.5-0.7-5-0.7-7.5c0-3.4,0.2-6.7,0.2-10.1c0-2.3,0-4.6-0.1-6.8c0-0.6-0.3-1.3-0.5-1.9c-0.5-1.1-1.2-1.4-2.3-0.9
					c-0.7,0.3-1.4,0.8-2.1,1.3c-1.7,1.3-3.1,3-4.3,4.8c-2.5,3.7-4.3,7.8-5.9,12c-0.7,1.8-1.4,3.7-2.1,5.5c-0.3,0.6-0.6,1.3-1,1.8
					c-1.2,1.5-3,1.6-4.4,0.2c-0.8-0.8-1.3-1.8-1.6-2.9c-0.6-1.8-0.8-3.7-1-5.6c-0.1-1.4-0.2-2.8-0.3-4.3c-0.2,0.1-0.4,0.2-0.6,0.3
					c-0.9,0.7-1.7,1.3-2.6,2c-0.4,0.3-0.6,0.6-0.6,1.1c0.1,7.3-0.2,14.5-0.8,21.8c-0.3,4.6-0.9,9.2-2.2,13.7
					c-0.5,1.6-1.1,3.1-1.9,4.5c-0.8,1.3-1.7,2.5-3,3.4c-3.4,2.6-7.6,2.2-10.4-1.2c-1.6-2-2.5-4.4-2.8-7c-0.6-5.1,0.1-10,1.8-14.9
					c2.3-6.5,6-12.1,10.9-17c0.7-0.7,1-1.4,0.9-2.4c-0.2-2.5-0.3-4.9-0.4-7.4c-0.2-3.3-0.5-6.6-0.8-9.9c0-0.2-0.1-0.3-0.1-0.5
					c-0.4,0.2-0.5,0.6-0.6,0.9c-1.2,2.8-2.4,5.7-3.7,8.4c-0.9,1.8-1.8,3.6-2.8,5.4c-0.8,1.4-1.9,2.6-3.2,3.5
					c-2.4,1.7-5.1,1.7-7.4-0.1c-0.9-0.7-1.7-1.6-2.5-2.5c-0.1,0.2-0.3,0.4-0.4,0.6c-0.8,1.2-1.6,2.5-2.6,3.7
					c-0.5,0.6-1.1,1.2-1.8,1.7c-1.6,1.2-3.3,1.4-5.1,0.6c-1.4-0.6-2.4-1.6-3.3-2.8c-1.2-1.6-1.9-3.5-2.5-5.4
					c-0.1-0.4-0.2-0.8-0.5-1.2c-0.1,0.3-0.2,0.6-0.3,0.9c-0.7,2.8-1.3,5.6-2.5,8.3c-0.8,1.7-1.7,3.4-2.6,5c-0.3,0.6-0.8,1.1-1.3,1.6
					c-1.7,1.7-3.8,1.9-5.7,0.5c-0.9-0.7-1.6-1.5-2.3-2.4c-1.2-1.7-1.9-3.6-2.5-5.6c-1.6-5.2-2-10.5-1.6-15.9
					c0.2-2.3,0.4-4.7,0.6-7.1c-0.2,0.1-0.4,0.1-0.5,0.2c-0.7,0.3-1.3,0.7-2,1c-0.6,0.3-0.8,0.7-0.8,1.3c-0.1,5.5-1.1,10.8-2.7,16
					c-0.7,2.1-1.6,4.1-2.9,5.8c-0.6,0.9-1.4,1.7-2.2,2.3c-1.8,1.5-3.9,1.6-6.1,0.8c-1.1-0.4-2-1.1-2.8-1.9c-1.3-1.2-2.4-2.6-3.2-4.2
					c-0.1-0.3-0.3-0.5-0.5-0.9c-0.2,0.5-0.3,0.9-0.5,1.2c-0.8,1.8-1.5,3.7-2.3,5.5c-0.5,1.1-1.1,2.1-1.8,3c-1.7,2.2-4.5,2.8-7,1.5
					c-1.2-0.6-2.2-1.5-3.1-2.5c-1.5-1.7-2.5-3.7-3.3-5.8c-1.3-3.6-2.1-7.2-2.6-11c-1.1-7.8-1.3-15.7-1-23.5c0-1,0-2.1,0-3.2
					c-2.8-0.9-5.5-2.1-8.5-2.1c-2.6,0-5.1,0.7-7.3,2c-0.3,0.2-0.6,0.4-0.9,0.5c-0.8,0.3-1.6-0.1-1.6-1c0-0.4,0.1-0.9,0.3-1.3
					c0.5-0.9,1.2-1.6,2.1-2.2c2.8-1.9,5.9-2.6,9.3-2.2c2,0.3,3.9,0.9,5.9,1.5c0.3,0.1,0.6,0.2,1.1,0.3c0.1-0.6,0.1-1.1,0.1-1.6
					c0.2-2.1,0.4-4.3,0.8-6.4c0.1-0.8,0.5-1.6,1-2.3c0.6-1,1.6-1.6,2.9-1.5c1.3,0.1,2.1,0.9,2.6,2.1c0.4,1,0.6,2,0.5,3
					c-0.1,1.7-0.2,3.4-0.3,5c-0.1,1.2-0.1,2.5-0.2,3.7c1.4,0.2,2.6,0,3.8-0.8c0.3-0.2,0.6-0.4,1-0.6c0.6-0.3,1.2-0.1,1.6,0.4
					c0.5,0.5,0.5,1.1,0.2,1.7c-0.2,0.4-0.5,0.7-0.8,0.9c-1.4,1.1-3,1.8-4.7,2c-0.4,0.1-0.8,0.1-1.2,0.2c0,0.2-0.1,0.5-0.1,0.7
					c-0.2,6.9-0.2,13.7,0.4,20.5c0.4,4.1,0.7,8.3,1.6,12.3c0.3,1.6,0.9,3.2,1.4,4.7c0.3,1,0.9,1.9,1.7,2.6c0.7,0.7,1.3,0.7,2,0
					c0.4-0.4,0.8-0.9,1.1-1.4c1.2-1.8,2.1-3.7,2.8-5.7c0.5-1.4,1.1-2.7,1.6-4.1c0.1-0.4,0.3-0.8,0.2-1.2c-0.5-3.8-0.2-7.5,0.6-11.2
					c0.1-0.3,0.1-0.6,0.2-0.9c0,0,0-0.1,0-0.1c-0.1-0.1-0.3-0.2-0.4-0.3c-3.7-2.1-5.7-5.5-6.5-9.6c-0.6-3.1-0.2-6.1,1.4-8.9
					c2.4-4.3,6.8-6.1,11.7-4.7c3.5,1,6.5,2.8,8.9,5.5c3.2,3.6,5,7.8,5.7,12.4c0.1,0.3,0.1,0.7,0.2,1.1c1.3-0.5,2.6-1,3.8-1.5
					c0.4-0.2,0.5-0.5,0.6-0.8c0.3-0.8,0.6-1.7,1.1-2.4c0.4-0.6,0.9-1.2,1.5-1.6c1.6-1,3.5-0.3,4.1,1.4c0.4,1,0.4,2,0.3,3
					c-0.2,1.7-0.4,3.5-0.6,5.2c-0.6,5.5-1.1,11.1-0.7,16.6c0.2,2.7,0.6,5.3,1.4,7.8c0.2,0.5,0.4,1,0.6,1.5c0.3,0.5,0.5,0.5,0.9,0.2
					c0.3-0.2,0.7-0.5,0.9-0.8c1-1.1,1.7-2.3,2.3-3.6c1.1-2.4,1.8-4.9,2.4-7.5c0.5-2,1-4,1.5-6c0.1-0.5,0.2-1.1,0.1-1.6
					c-0.1-2.8-0.2-5.6,0.1-8.4c0.1-1.1,0.3-2.1,0.6-3.2c0.3-1.2,0.9-2.4,1.9-3.3c1.6-1.6,3.4-1.3,4.4,0.7c0.5,1,0.8,2.2,0.9,3.3
					c0.4,3.8,0.8,7.7,1.2,11.5c0.3,2.8,0.6,5.6,1,8.4c0.1,0.6,0.2,1.2,0.4,1.7C293.7,175.1,293.9,175.5,294.5,175.7z M321.8,180.1
					c-0.1,0-0.2,0-0.2,0.1c-0.1,0.1-0.2,0.2-0.3,0.3c-4.1,4.7-7.2,9.9-8.9,15.9c-1.1,3.7-1.5,7.4-0.9,11.2c0.3,1.9,0.9,3.7,2.2,5.1
					c1.3,1.4,2.3,1.2,3.3-0.2c0.1-0.2,0.3-0.4,0.4-0.6c0.4-0.9,0.8-1.9,1.2-2.8c1.2-3.6,1.9-7.3,2.2-11.1c0.4-5.1,0.7-10.3,1-15.5
					C321.9,181.6,321.8,180.9,321.8,180.1z M244.7,150.3c0.5-0.3,0.8-0.6,1.2-0.9c1.3-0.8,2.6-1,4-0.2c1.3,0.7,1.9,1.9,1.8,3.4
					c0,0.8-0.2,1.6-0.3,2.5c3.1,0.8,6.2,0.6,9.2-0.4c0-0.2,0.1-0.2,0-0.3c0-0.2,0-0.4,0-0.6c-0.7-4.8-2.6-8.9-6.1-12.2
					c-2.3-2.2-5-3.5-8.2-3.8c-2.6-0.2-3.8,0.8-4.3,3.1C241.2,144.4,242.6,147.4,244.7,150.3z M250,159.9c-0.1,0.2-0.2,0.3-0.2,0.4
					c-1.2,4.4-1.8,8.9-1,13.5c0.3,1.5,0.7,3,1.7,4.3c0.9,1.1,2,1.4,3.3,0.6c0.6-0.3,1-0.8,1.5-1.3c1.3-1.4,2.1-3.1,2.8-4.9
					c1.5-4,2.3-8.2,2.7-12.5c0.1-0.8,0-1.6,0-2.6C257.3,158.9,253.8,159.8,250,159.9z M343.3,155.4c0.2-0.2,0.3-0.2,0.3-0.2
					c0.1-0.1,0.2-0.2,0.2-0.3c4.5-5.7,7.7-11.9,9.6-18.9c0.6-2.5,1.1-5,1-7.5c-0.1-1.8-0.4-3.5-1.2-5c-0.3-0.6-0.8-1.2-1.2-1.8
					c-0.6-0.6-1-0.6-1.7,0c-0.4,0.4-0.8,0.8-1,1.2c-0.5,1.1-1.1,2.2-1.3,3.3c-0.8,3.2-1.5,6.4-2.1,9.6c-1.1,5.7-1.6,11.5-2.3,17.2
					C343.5,153.8,343.4,154.5,343.3,155.4z"/>
				<g>
					<path class="st30" d="M188,163.1c-0.8,2.2-1.6,4.2-2.4,6.2c-1.3,3.2-2.5,6.3-4.1,9.4c-1,1.9-2.1,3.7-3.6,5.4
						c-0.8,0.9-1.8,1.7-2.9,2.3c-1.6,0.8-3.2,0.8-4.7,0c-1.6-0.8-2.7-2-3.6-3.5c-1.4-2.3-2.1-4.9-2.6-7.5c-0.4-2.3-0.6-4.6-0.5-6.9
						c0.1-3.2,0.2-6.4,0.7-9.5c0.1-0.9,0.4-1.9,0.7-2.8c0.3-0.8,0.8-1.5,1.5-2c1.6-1.1,3.5-0.6,4.4,1.1c0.5,0.9,0.5,1.8,0.5,2.8
						c-0.1,1.2-0.2,2.4-0.3,3.6c-0.4,4.8-0.5,9.7-0.3,14.6c0.1,1.7,0.3,3.3,0.9,4.9c0.2,0.6,0.5,1.1,0.9,1.6c0.6,0.7,1,0.8,1.8,0.4
						c0.5-0.3,1-0.6,1.5-1c1.1-0.9,1.9-2,2.6-3.2c0.9-1.6,1.9-3.2,2.6-4.9c1.8-4.1,3.6-8.2,5.4-12.5c-0.2-0.2-0.5-0.5-0.7-0.7
						c-1.4-1.4-2.7-2.7-3.8-4.3c-1.3-1.9-2.3-3.9-2.6-6.2c-0.4-3.2,0.4-6,2.9-8.1c2.5-2.1,5.2-2.4,8.1-1c3,1.4,5,3.7,6.1,6.7
						c0.2,0.5,0.2,1,0.2,1.5c0,0.4-0.2,0.7-0.6,0.8c-0.4,0.1-0.7,0-1-0.3c-0.3-0.3-0.5-0.7-0.7-1c-0.6-1-1.2-2-2-2.9
						c-0.5-0.7-1.2-1.4-1.9-1.9c-1.8-1.3-4.7-1-5.6,2c-0.2,0.5-0.1,1.2,0.1,1.8c0.2,0.7,0.5,1.3,0.9,2c1,1.8,2.3,3.5,3.8,4.9
						c1.7,1.7,3.5,3.4,5.2,5.1c2.9,2.8,5.3,5.8,7.2,9.4c1.2,2.3,2.2,4.7,2.5,7.3c0.5,3.8-0.5,7-3.3,9.6c-1.3,1.2-2.8,2-4.5,2.3
						c-3.7,0.6-7-1.7-7.8-5.4c-0.5-2.2-0.1-4.4,0.6-6.5c0.8-2.3,2.1-4.3,3.8-6.1c0.2-0.2,0.4-0.4,0.5-0.6c0,0,0-0.1,0-0.1
						C192.3,167.2,190.2,165.1,188,163.1z M195.6,172.2c-0.1,0.1-0.2,0.1-0.3,0.2c-1.3,1.5-2.2,3.1-2.8,5c-0.3,1-0.4,2-0.3,3
						c0.1,0.9,0.4,1.8,1.1,2.5c0.7,0.7,1.4,0.8,2.2,0.3c1.3-0.8,2-2.1,2.1-3.6C197.8,176.9,196.9,174.5,195.6,172.2z"/>
					<path class="st30" d="M163.2,144.8c0.1-2.2,1.5-3.9,3.6-4.2c0.5-0.1,1,0,1.5,0.1c2.6,0.6,4.1,3.6,3.2,6
						c-0.7,1.8-2.1,2.6-3.9,2.7c-1.5,0.1-3-0.8-3.7-2.4C163.6,146.3,163.4,145.5,163.2,144.8z"/>
				</g>
				<g>
					<path class="st30" d="M110.3,175.5c1,0.2,2,0,2.8-0.4c0.7-0.3,1.4-0.7,2-1.2c2.7-1.9,4.8-4.3,6.9-6.8c1-1.2,1.6-2.4,1.8-3.9
						c0.5-3.2,1.7-6.2,3.6-8.9c1.4-2,3.1-3.6,5.2-4.7c1.9-1,4-1.5,6.1-1.1c3.3,0.6,6.1,3.7,6.3,7.1c0.1,1.2-0.3,2.3-0.9,3.3
						c-1,1.7-2.5,3-4.2,4c-2.5,1.5-5.3,2.2-8.2,2.5c-0.2,0-0.5,0.1-0.8,0.1c-0.2,1.4-0.1,2.8,0,4.1c0.2,2.4,0.8,4.7,1.8,6.9
						c0.3,0.8,0.8,1.6,1.3,2.3c1,1.3,2.3,1.5,3.7,0.7c1.2-0.7,2.2-1.7,3.1-2.7c2.1-2.4,3.7-5.1,5.2-7.8c0.4-0.7,0.7-1.4,1.1-2.1
						c0.1-0.3,0.3-0.6,0.5-0.8c0.4-0.4,1-0.5,1.5-0.3c0.5,0.2,0.8,0.9,0.7,1.5c0,0.2-0.1,0.4-0.2,0.5c-1.4,3.4-2.9,6.7-5,9.7
						c-1.1,1.6-2.4,3.1-3.7,4.6c-1.5,1.6-3.3,2.5-5.5,2.8c-1.2,0.2-2.3,0-3.5-0.4c-2.1-0.7-3.7-2-5-3.8c-1.6-2.3-2.6-4.9-3.1-7.6
						c-0.2-1.1-0.3-2.2-0.4-3.3c0-0.3-0.1-0.5-0.1-1c-0.4,0.5-0.7,0.8-1,1.2c-1.5,1.7-3,3.4-4.8,4.9c-1.6,1.3-3.2,2.4-5.3,2.8
						c0.2,0.2,0.3,0.4,0.5,0.5c8.1,7.4,13,16.5,15.2,27.1c0.6,2.8,0.9,5.6,0.9,8.5c0,2.4-0.3,4.7-1.1,7c-0.4,1.2-1,2.4-1.8,3.4
						c-1.5,1.8-3.4,2.4-5.6,1.9c-1.8-0.4-3.3-1.3-4.6-2.5c-2.5-2.2-4.4-4.8-6-7.7c-2.7-4.8-4.4-9.9-5.5-15.3
						c-1.1-5.6-1.6-11.4-1.6-17.1c0-0.5,0-0.9,0-1.6c-0.3,0.3-0.4,0.4-0.5,0.6c-0.5,0.6-0.9,1.2-1.4,1.7c-1.7,1.7-3.9,2-6,0.7
						c-1.5-0.9-2.6-2.2-3.4-3.8c-0.5-1-1-2.1-1.5-3.1c-0.1,0.2-0.2,0.4-0.3,0.6c-0.9,2.3-1.7,4.7-2.7,7c-0.6,1.5-1.5,3-2.3,4.5
						c-0.6,1.1-1.5,2.1-2.4,2.9c-1.7,1.4-3.6,1.7-5.6,0.9c-1.5-0.6-2.7-1.5-3.9-2.6c-2.4-2.3-4.1-5-5.3-8c-2-4.7-3.1-9.6-3.7-14.6
						c-0.9-8.3-0.5-16.5,0.7-24.7c0.6-4.3,1.5-8.6,3.1-12.7c1.2-3,2.7-5.9,4.5-8.5c1.2-1.7,2.6-3.3,4.3-4.6c1.1-0.9,2.3-1.6,3.7-1.8
						c2.5-0.4,4.4,0.4,5.8,2.5c1.1,1.6,1.6,3.5,1.8,5.5c0.3,2.6,0,5.2-0.4,7.8c-0.8,5.2-2.6,10-5.2,14.6
						c-3.1,5.5-6.6,10.8-10.8,15.6c-0.3,0.3-0.4,0.6-0.4,1c0.4,6.6,1.2,13.2,3.5,19.5c0.6,1.5,1.2,2.9,1.9,4.3c0.5,1,1.3,1.9,2,2.7
						c0.8,0.9,1.4,0.9,2.4,0.2c0.9-0.6,1.7-1.5,2.2-2.5c0.9-1.7,1.9-3.4,2.6-5.2c1.2-2.8,2.2-5.7,3.3-8.6c0.2-0.5,0.2-1.1,0.2-1.6
						c-0.3-4,0.1-8,1-11.9c0.3-1.2,0.7-2.4,1.4-3.5c0.5-0.8,1.1-1.4,1.9-1.8c1.6-0.8,3.3-0.1,3.9,1.6c0.3,0.9,0.3,1.7,0.2,2.6
						c-0.2,1.8-0.5,3.6-0.7,5.5c-0.5,4.7-0.7,9.4,0.1,14.1c0.2,0.9,0.4,1.9,0.8,2.7c0.4,0.9,0.9,0.9,1.6,0.3
						c0.5-0.4,0.9-0.8,1.2-1.3c0.8-1.2,1.5-2.5,2.2-3.8c0.2-0.3,0.2-0.7,0.3-1.1c0.6-9.2,1.9-18.4,3.8-27.5c1.3-6.3,3-12.5,5.5-18.5
						c1.1-2.5,2.3-5,4.1-7.2c0.8-1,1.7-1.9,2.6-2.7c0.8-0.7,1.8-1.2,2.8-1.5c2.1-0.5,4,0.1,5.3,1.9c1.1,1.4,1.6,3,1.9,4.7
						c0.6,3.2,0.3,6.4-0.5,9.6c-1.3,5.6-3.7,10.7-6.9,15.5c-2.7,4.1-5.7,7.9-9.2,11.3c-0.2,0.2-0.5,0.6-0.5,1
						c-0.5,4.3-1,8.6-1.5,12.9C110.2,175.3,110.2,175.4,110.3,175.5z M110,180.1c-0.1,0.3-0.2,0.4-0.2,0.5c0,0.4-0.1,0.8-0.1,1.2
						c-0.2,3.5-0.2,6.9,0,10.4c0.3,4.5,0.7,9,1.9,13.3c1.2,4.7,3,9.1,5.8,13.1c0.9,1.3,1.9,2.4,3.2,3.4c1.8,1.4,3,1.1,4-0.9
						c0.6-1.3,1-2.7,1.2-4.1c0.5-3.6,0.3-7.2-0.5-10.8c-2-8.7-5.9-16.4-11.9-22.9C112.3,182.2,111.2,181.2,110,180.1z M70.6,157.5
						c0.2-0.2,0.3-0.2,0.4-0.3c0.4-0.4,0.8-0.8,1.1-1.3c2.9-3.5,5.6-7.3,7.9-11.3c1.8-3,3.1-6.3,4-9.7c0.9-3.6,1.4-7.2,1-10.8
						c-0.1-1.2-0.2-2.3-1-3.3c-0.9-1.1-2-1.4-3.2-0.6c-0.7,0.5-1.2,1.1-1.8,1.7c-1.2,1.4-2,3-2.7,4.7c-1.6,3.8-2.7,7.6-3.6,11.6
						c-1.4,6.1-2,12.2-2.3,18.5C70.6,156.9,70.6,157.1,70.6,157.5z M112.6,156.2c0.1,0,0.2,0,0.3,0c0.2-0.2,0.4-0.4,0.6-0.6
						c2.7-3.2,5.2-6.6,7.4-10.1c2-3.2,3.6-6.6,4.6-10.3c0.7-2.5,1.1-5,1-7.6c-0.1-1.5-0.4-3-1.2-4.3c-1-1.7-2-1.8-3.2-0.2
						c-0.7,1-1.4,2.1-1.9,3.2c-1.3,2.6-2.1,5.3-2.9,8c-1.7,5.8-2.9,11.7-4,17.7C113.1,153.3,112.9,154.8,112.6,156.2z M131.2,163.3
						c0.9-0.1,1.7-0.1,2.5-0.3c2.4-0.4,4.7-1.2,6.6-2.8c0.9-0.7,1.6-1.6,2-2.7c0.6-1.4,0.2-2.7-0.7-3.8c-1-1.1-2.2-1.6-3.8-1.3
						c-1.3,0.3-2.4,1-3.2,2.1c-1.7,2.1-2.6,4.5-3.2,7.1C131.3,162.2,131.3,162.7,131.2,163.3z"/>
					<path class="st30" d="M89.9,146.9c0-2.1,1.4-3.8,3.5-4.3c1.9-0.4,3.7,0.6,4.6,2.6c0.4,0.9,0.7,1.8,0.5,2.8
						c-0.3,1.8-1.7,3.3-3.5,3.6c-1.7,0.3-3.5-0.5-4.4-2.2C90.1,148.6,89.9,147.8,89.9,146.9z"/>
				</g>
			</g>
		</g>
		<g>
			<g>
				<path class="st30" d="M169.3,230.6c-3.3,1.2-6.7,0-10.1-0.4c-1.4-0.1-2.1-1.3-1.1-1.9c0-5.8-0.3-11.7-0.3-17.5
					c0-1.6,0-3.2,0.1-4.8c0-0.8,0.3-1.7,0.1-2.4c0-0.1-0.4-0.1-0.4-0.3c-0.1-1,0-1.3,1-1.7c2.9-1.1,8.6-1.4,11.5,0.2
					c3.9,2.1,3.5,6.2,1.2,9.2c1.5-0.1,2.9,0.2,4.3,1c0,0,0.1,0,0.1,0.1c0.1,0,0.1,0.1,0.1,0.1C183,217.6,176.1,228.2,169.3,230.6z
					 M167,214.3c-2.2,1.1-1.7,0.7-1.8,2.9c-0.1,2.5-0.1,5,0,7.5c0,0.8-0.3,2.9,0,3.6c1.2,2.2,4.8-0.4,6.1-1.4c1.2-1,2.1-2.1,2.9-3.3
					c1.3-2.2,2.5-5.1,1.4-7.7C173.9,212.2,169.9,212.7,167,214.3z M165.4,212.6c1.4-0.9,2.8-1.8,3.9-3.1c2.1-2.7,0.6-5.6-2.5-6.4
					c0,0,0,0,0,0c-0.4-0.1-0.9-0.1-1.3-0.1C165.8,206.1,165.5,209.4,165.4,212.6z"/>
				<path class="st30" d="M203.4,204.8c-0.1,5.9-0.4,11.9-1.9,17.6c-1,3.8-2.5,7.3-6.5,8.4c0,0-0.1,0-0.1,0c0,0-0.1,0-0.1,0
					c-5.2,0.8-9.9-1.1-12.1-6c-2.3-5.2-1.8-11.5-1.2-17c0.2-2.1-0.1-5.5,2.3-6.3c1.2-0.4,3.9-0.7,5.1-0.1c1.1,0.6,1.1,1.9,1.1,3.1
					c0.2,5.8-0.6,11.6-0.4,17.4c0.1,3-0.2,7.8,4.1,6.9c3.3-0.6,4.2-3.5,5-6.4c0.8-3,1.2-6.1,1.5-9.2c0.1-1.5,0.2-3,0.3-4.5
					c0.1-1.6-0.5-4.5,0.1-5.9c0.3-0.7,0.7-1.3,1.7-1.3C204,201.8,203.5,203.5,203.4,204.8z"/>
				<path class="st30" d="M219.5,203.6c-0.9,0.7-2.5,0.5-3.8,0.4c0,5.2-0.5,10.5-0.7,15.7c-0.1,2.6-0.2,5.2-0.4,7.8
					c-0.1,1.4,0.2,2.6-1.2,3.2c-1,0.5-4.4,0.8-5.1-0.2c-0.7-0.8-0.1-3.5-0.1-4.4c0-4.7,0-9.5,0.1-14.2c0.1-2.2,0.3-4.4,0.3-6.6
					c-0.1-2.6-1.6-0.4-2.7-1.5c-1.1-1,0.5-1.7,1.4-1.8c2.3-0.2,4.7-0.2,7-0.1c1.3,0,3.9-0.5,5,0.1
					C220.2,202.5,220.3,203,219.5,203.6z"/>
			</g>
			<g>
				<path class="st30" d="M248.3,217.2c2.1,3.1,2.9,8,0.3,11.1c-2.7,3.3-7.6,3.6-11.3,2c-0.1,0-0.1,0-0.1-0.1
					c-0.1,0-0.1-0.1-0.2-0.1c-2-1.3-3-3-3.1-5.3c-0.1-1.5-0.1-5.1,1-6.3c0.5-0.6,1.8-0.9,2.4-0.2c0.9,1.1-0.4,4.2-0.5,5.5
					c0,1.8,0.5,3.7,2.3,4.6c3.7,1.7,4.5-2.4,4.7-4.4c0.3-2.6,0.3-6.7-1.7-8.9c-2.4-2.7-7.5-4.7-6.4-9.2c0.8-3.3,4.7-5.8,8.1-5.3
					c2.2,0.3,3.7,1.8,4.4,3.9c0.4,1.4,1.3,4.8,0.7,6.2c-0.3,0.7-1.3,1.1-2,0.8c-1.3-0.5-0.9-2.6-1-3.8c-0.2-1.6-1.5-6.7-3.2-2
					c-0.5,1.4-0.4,3.8,0.1,5.2C243.6,213.4,246.7,214.9,248.3,217.2z"/>
				<path class="st30" d="M276.2,218.6c-0.9,6.2-5,12.3-11.7,12.6c-0.1,0-0.1,0-0.1,0c0,0-0.1,0-0.1,0c-6.2-0.3-10.4-4.7-11.6-10.5
					c-1-4.9-0.3-10.5,2.6-14.6c3.1-4.2,8.5-4.9,13.1-2.9C274.7,205.8,277.1,212.1,276.2,218.6z M268.2,227.9
					c3.7-2.3,5.3-7.2,5.4-11.3c0.2-6.5-4.5-12.6-11.3-12.2c-0.4,6.1-0.8,12.2-0.6,18.4c0,1.4-0.3,4.1,0.5,5.4
					C263,229.7,266.9,228.7,268.2,227.9z"/>
			</g>
		</g>
	</g>
	<g>
		<g>
			<path class="st54" d="M348.4,239.2c-0.1-0.2-0.2-0.3-0.2-0.3c-3.8-2.6-6.7-6-9.2-9.9c-0.4-0.6-0.8-1-1.5-1.3
				c-0.7-0.3-1.3-0.9-1.9-1.4c-0.9-0.9-1.5-2.1-1.8-3.3c-0.8-3.3,1.8-4.6,4-4.2c0.9,0.1,1.7,0.6,2.3,1.2c1.2,1.2,2,2.6,2.1,4.3
				c0.1,0.9-0.1,1.8-0.6,2.6c2.3,3.5,4.9,6.5,8.5,8.9c0.2-1.3,0.1-2.4,0-3.5c-0.4-5.3-1.6-10.5-3.6-15.5c-0.3-0.7-0.6-1.1-1.3-1.3
				c-0.7-0.3-1.4-0.7-1.8-1.3c-1.4-1.6-2.1-3.5-2.2-5.6c0-0.6,0.1-1.1,0.3-1.7c0.6-1.7,2.3-2.5,4-1.9c1.1,0.4,2.1,1.1,2.8,2
				c1.2,1.5,1.8,3.2,1.8,5.1c0,0.5-0.1,1.1-0.3,1.6c-0.2,0.5-0.2,0.8,0,1.3c1.6,3.9,2.8,8,3.5,12.2c0.3,2.2,0.5,4.5,0.7,6.7
				c0,0.2,0,0.4,0.2,0.6c0.2-0.3,0.3-0.6,0.4-0.9c1.1-2.4,1.6-5,2-7.7c0.5-3.9,0.4-7.8-0.2-11.7c-0.1-0.6-0.4-1.1-0.8-1.5
				c-1.8-1.8-2.7-4-2.2-6.6c0.1-0.8,0.5-1.6,1-2.2c1.1-1.3,2.9-1.6,4.4-0.7c0.2,0.1,0.4,0.3,0.6,0.5c1.8,1.9,2.6,4.2,2,6.8
				c-0.2,0.8-0.5,1.5-1.2,2c-0.4,0.3-0.5,0.7-0.4,1.2c0.6,3.1,0.8,6.2,0.7,9.3c-0.1,4.1-0.8,8.2-2.5,12c-0.3,0.7-0.7,1.4-1.1,2.1
				c0.8,0,1.4-0.1,2.1-0.3c2.1-0.6,4.1-1.7,5.6-3.3c2.7-2.8,4.5-6.2,5.2-10.1c0.1-0.4,0-0.7-0.3-1c-2.5-2.6-2-6.7,0.2-8.9
				c1.5-1.5,3.7-1.5,5.2,0.1c1.9,2,2.2,5.6,0.6,7.8c-0.6,0.9-1.4,1.4-2.4,1.7c-0.2,0.8-0.3,1.6-0.5,2.4c-1.2,4.7-3.3,8.8-7.1,11.8
				c-1.9,1.5-4,2.7-6.4,3.1c-0.8,0.1-1.7,0.1-2.6,0.2c0.1,0.3,0.2,0.5,0.3,0.8c2.9,7.1,5,14.5,6.2,22.1c0.6,3.8,1.1,7.6,1.3,11.4
				c0.2,3.1-0.1,6.2-0.5,9.3c-0.1,0.9-0.2,1.8-0.3,2.7c-0.2,1.1-0.9,1.8-1.9,1.7c-1.2,0-1.9-1-1.8-2.3c0.1-1.2,0.2-2.4,0.4-3.6
				c0.5-4,0.4-8,0-12c-0.5-4.4-1.1-8.8-2.2-13.1c-1-4.2-2.2-8.4-3.8-12.5c-0.1-0.3-0.2-0.6-0.4-1c-0.2,0.3-0.3,0.5-0.4,0.6
				c-0.1,0.1-0.1,0.3-0.2,0.4c-2.2,4.2-5.5,6.8-10.1,8.1c-4.5,1.3-8.9,1.2-13.2-0.5c-0.7-0.3-1.2-0.2-1.8,0.1
				c-2.3,1.1-4.8,0.7-6.5-0.9c-0.6-0.6-1-1.2-1.2-2c-0.2-1.4,0.4-2.6,1.7-3.3c2.3-1.3,5.8-0.4,7.2,1.8c0.3,0.5,0.8,0.8,1.3,0.9
				c1.7,0.5,3.5,1.1,5.3,1.1c3.2,0,6.3-0.6,9.2-2.1c1.1-0.6,2.1-1.3,2.9-2.3c0.5-0.7,1.1-1.4,1.5-2.2c0.4-0.6,0.7-1.1,1-1.8
				c-0.1,0-0.2-0.1-0.3-0.1c-2.3,0.9-4.7,0.9-7,0.5c-4.5-0.7-8.6-2.5-12.1-5.5c-0.9-0.7-1.6-1.6-2.4-2.4c-0.3-0.3-0.6-0.5-0.9-0.6
				c-2.6-1-4-3-4.7-5.6c-0.5-2,0.6-3.8,2.4-4.1c0.5-0.1,1.2-0.1,1.7,0.1c2.4,0.9,4,2.6,4.8,5.1c0.2,0.7,0.2,1.5,0,2.3
				c-0.2,0.5-0.1,1,0.4,1.5c4,3.7,8.7,5.8,14.3,5.8C347.5,239.4,347.9,239.3,348.4,239.2z"/>
			<path class="st54" d="M81.7,263.7c0,0.3,0,0.6,0,0.9c0.4,7.3,4.6,32.3,7,39.2c0.1,0.4,0.2,0.8,0.3,1.2c0,0.8-0.5,1.7-1.1,1.9
				c-0.8,0.3-1.8,0-2.3-0.8c-0.2-0.3-0.3-0.6-0.4-0.9c-1.8-5.1-6.2-28.2-6.7-33.6c-0.2-2.4-0.4-4.7-0.6-7.1c0-0.2,0-0.4-0.1-0.6
				c-0.4,0.2-0.7,0.3-1,0.5c-4.3,1.9-8.5,2-12.7-0.3c-2.3-1.3-3.9-3.3-5.1-5.6c-0.9-1.7-1.5-3.6-1.9-5.4c-0.1-0.6-0.3-1-0.9-1.4
				c-2-1.5-2.8-5.1-1.7-7.3c0.7-1.4,1.8-2.1,3.1-1.9c1,0.1,1.8,0.6,2.4,1.4c1.8,2.3,2.3,5.1,0.1,7.7c0,0-0.1,0.1-0.1,0.2
				c0.5,1.8,1,3.7,1.9,5.4c1.1,2.1,2.5,3.8,4.8,4.7c1.9,0.7,3.8,0.7,5.8,0.4c0.8-0.1,1.6-0.4,2.4-0.7c0.2-0.1,0.4-0.2,0.7-0.4
				c-0.2-0.1-0.3-0.2-0.4-0.2c-2.4-1-4.1-2.7-5.4-4.8c-1.7-2.7-2.6-5.7-3.2-8.8c-0.7-4.1-0.6-8.2-0.1-12.3c0.1-0.6,0-1-0.3-1.5
				c-0.9-1.6-1.3-3.3-0.9-5.1c0.2-0.9,0.6-1.7,1.3-2.3c1.3-1.2,3-1.1,4.3,0.1c0.7,0.7,1.3,1.5,1.7,2.5c0.8,2.2,0.2,4.4-1.7,5.8
				c-0.5,0.3-0.7,0.7-0.7,1.2c-0.1,2.5-0.3,4.9-0.2,7.4c0.1,3.1,0.7,6.1,2,8.9c0.5,1.2,1.3,2.3,2,3.3c0.6,0.9,1.5,1.5,2.5,2
				c0.4,0.2,0.8,0.2,1.3,0.3c0.1-1,0.1-1.9,0.2-2.8c0.3-4.3,0.8-8.6,1.9-12.9c0.1-0.5,0.1-0.8-0.1-1.3c-1-2.5-0.5-4.7,1.4-6.4
				c1.1-1,2.4-1.5,3.8-0.8c1.5,0.7,2.3,1.9,2.3,3.6c-0.1,2.5-1.1,4.5-3.4,5.6c-0.4,0.2-0.5,0.5-0.5,0.8c-0.4,2.1-0.8,4.2-1.1,6.3
				c-0.3,2.2-0.4,4.5-0.6,6.7c0,0.3,0,0.6,0,1c1-0.3,1.7-0.8,2.4-1.4c1.5-1.3,2.6-2.8,3.4-4.6c0.5-1.2,1-2.5,1.5-3.8
				c0.2-0.6,0.2-1.1,0-1.7c-0.5-1.4-0.5-2.7-0.1-4.1c0.3-0.8,0.7-1.6,1.3-2.1c1.3-1.2,3.2-1.1,4.4,0.2c1,1.1,1.3,2.4,1.1,3.8
				c-0.2,1.3-0.8,2.5-1.4,3.6c-0.4,0.7-1,1.2-1.8,1.3c-0.6,0.1-0.8,0.5-1,1c-0.6,1.9-1.4,3.8-2.4,5.5c-1.3,2.1-2.9,3.8-5.1,5.1
				c-0.1,0.1-0.2,0.2-0.4,0.3c1.3,0.7,2.5,0.8,3.7,0.5c1.7-0.3,3.1-1.1,4.4-2.1c2.1-1.7,3.7-3.8,4.8-6.2c1.7-3.6,2.9-7.4,3.4-11.4
				c0.1-0.4,0.1-0.7-0.2-1.1c-1-1.4-1.3-2.9-1.2-4.6c0.1-1.1,0.2-2.3,0.8-3.3c0.7-1.2,1.7-2,3.1-1.9c1.2,0,2.1,0.6,2.7,1.5
				c0.9,1.4,1.3,2.9,1,4.5c-0.3,1.8-0.9,3.4-2.4,4.4c-0.3,0.2-0.4,0.5-0.4,0.9c-0.3,2.5-0.7,5-1.4,7.5c-1.1,3.6-2.6,6.9-5,9.8
				c-1.9,2.2-4,4.1-6.7,5.1c-2.7,1-5.4,1.1-8-0.1c-0.1-0.1-0.2-0.1-0.4-0.1C81.9,263.7,81.9,263.7,81.7,263.7z"/>
		</g>
		<g>
			<path class="st52" d="M82.3,211.8c-1.3,0-2.5,0.3-3.9,0.6c-1.7,0.4-3.4,1.3-5.3,2.4c-1.6,1-1.4,2.5-0.4,3.5
				c0.5,0.5,1.2,0.8,1.8,1c0.7,0.2,1.3,0.2,1.8,0.1c1.7-0.3,3.5-1.3,5-2.6c0.9-0.8,1.7-1.7,2.4-2.6c-0.6,1.2-1.2,2.5-1.5,3.9
				c-0.2,0.8-0.4,1.7-0.5,2.7c-0.1,1-0.1,2-0.1,3.1c0,1.9,1.5,2.5,2.8,2c0.7-0.2,1.3-0.6,1.8-1.1c0.5-0.5,0.8-1.1,1-1.5
				c0.3-0.8,0.4-1.7,0.5-2.7c0-1,0-2-0.2-3c-0.2-1.2-0.6-2.3-1-3.2c0.7,1.1,1.5,2.1,2.5,3.1c0.6,0.6,1.3,1.2,2.1,1.7
				c0.8,0.6,1.7,1.1,2.6,1.6c0.8,0.5,1.5,0.4,2.1,0.2c0.5-0.3,0.9-0.9,1.1-1.5c0.1-0.3,0.1-0.7,0.1-1c0-0.4-0.1-0.7-0.2-1
				c-0.2-0.7-0.5-1.2-0.9-1.6c-1.1-1.3-2.9-2.4-4.8-3c-1-0.3-2-0.6-3-0.7c1.2-0.1,2.4-0.3,3.7-0.6c1.7-0.4,3.4-1.3,5.3-2.4
				c1.6-1,1.4-2.5,0.4-3.5c-0.5-0.5-1.2-0.8-1.8-1c-0.7-0.2-1.3-0.2-1.8-0.1c-1.7,0.3-3.5,1.3-5,2.6c-0.6,0.6-1.4,1.2-1.9,1.8
				c0.5-0.9,0.7-2,1-3.1c0.2-0.8,0.4-1.7,0.5-2.7c0.1-1,0.1-2,0.1-3.1c0-1.9-1.5-2.5-2.8-2c-0.7,0.2-1.3,0.6-1.8,1.1
				c-0.5,0.5-0.8,1.1-1,1.5c-0.3,0.8-0.4,1.7-0.5,2.7c0,1,0,2,0.2,3c0.2,0.9,0.5,2,0.8,2.8c-0.6-1-1.4-1.8-2.3-2.7
				c-0.6-0.6-1.3-1.2-2.1-1.7c-0.8-0.6-1.7-1.1-2.6-1.6c-0.8-0.5-1.5-0.4-2.1-0.2c-0.5,0.3-0.9,0.9-1.1,1.5c-0.1,0.3-0.1,0.7-0.1,1
				c0,0.4,0.1,0.7,0.2,1c0.2,0.7,0.5,1.2,0.9,1.6c1.1,1.3,2.9,2.4,4.8,3C80.1,211.4,81.2,211.7,82.3,211.8z"/>
			<path class="st52" d="M293.5,228.8c-1,0-2,0.2-3.1,0.5c-1.3,0.4-2.7,1-4.2,1.9c-1.3,0.8-1.1,2-0.3,2.7c0.4,0.4,0.9,0.7,1.4,0.8
				c0.5,0.1,1,0.1,1.4,0c1.3-0.3,2.8-1,4-2.1c0.7-0.6,1.4-1.3,1.9-2.1c-0.5,0.9-0.9,1.9-1.2,3.1c-0.2,0.7-0.3,1.4-0.4,2.1
				c-0.1,0.8-0.1,1.6-0.1,2.4c0,1.5,1.2,1.9,2.2,1.6c0.5-0.1,1-0.5,1.4-0.9c0.4-0.4,0.6-0.8,0.8-1.2c0.2-0.6,0.3-1.4,0.4-2.1
				c0-0.8,0-1.6-0.2-2.4c-0.2-0.9-0.5-1.8-0.8-2.6c0.5,0.9,1.2,1.7,2,2.5c0.5,0.5,1,0.9,1.7,1.4c0.6,0.4,1.3,0.9,2.1,1.3
				c0.7,0.4,1.2,0.3,1.7,0.1c0.4-0.2,0.7-0.7,0.9-1.2c0.1-0.3,0.1-0.5,0.1-0.8c0-0.3-0.1-0.6-0.1-0.8c-0.1-0.5-0.4-1-0.7-1.3
				c-0.9-1-2.3-1.9-3.8-2.4c-0.8-0.3-1.6-0.5-2.4-0.6c0.9,0,1.9-0.2,2.9-0.5c1.3-0.4,2.7-1,4.2-1.9c1.3-0.8,1.1-2,0.3-2.7
				c-0.4-0.4-0.9-0.7-1.4-0.8c-0.5-0.1-1-0.1-1.4,0c-1.3,0.3-2.8,1-4,2.1c-0.5,0.4-1.1,0.9-1.5,1.4c0.4-0.7,0.6-1.5,0.8-2.4
				c0.2-0.7,0.3-1.4,0.4-2.1c0.1-0.8,0.1-1.6,0.1-2.4c0-1.5-1.2-1.9-2.2-1.6c-0.5,0.1-1,0.5-1.4,0.9c-0.4,0.4-0.6,0.8-0.8,1.2
				c-0.2,0.6-0.3,1.4-0.4,2.1c0,0.8,0,1.6,0.2,2.4c0.2,0.7,0.4,1.6,0.6,2.2c-0.5-0.8-1.1-1.4-1.8-2.2c-0.5-0.5-1-0.9-1.7-1.4
				c-0.6-0.4-1.3-0.9-2.1-1.3c-0.7-0.4-1.2-0.3-1.7-0.1c-0.4,0.2-0.7,0.7-0.9,1.2c-0.1,0.3-0.1,0.5-0.1,0.8c0,0.3,0.1,0.6,0.1,0.8
				c0.1,0.5,0.4,1,0.7,1.3c0.9,1,2.3,1.9,3.8,2.4C291.8,228.5,292.7,228.7,293.5,228.8z"/>
			<path class="st52" d="M140.8,197.7c-0.8,0-1.6,0.2-2.4,0.4c-1,0.3-2.2,0.8-3.3,1.5c-1,0.6-0.9,1.6-0.2,2.2
				c0.3,0.3,0.7,0.5,1.2,0.6c0.4,0.1,0.8,0.1,1.1,0c1-0.2,2.2-0.8,3.2-1.7c0.6-0.5,1.1-1.1,1.5-1.6c-0.4,0.7-0.7,1.5-1,2.4
				c-0.1,0.5-0.2,1.1-0.3,1.7c-0.1,0.6-0.1,1.3,0,1.9c0,1.2,0.9,1.5,1.8,1.3c0.4-0.1,0.8-0.4,1.1-0.7c0.3-0.3,0.5-0.7,0.6-1
				c0.2-0.5,0.3-1.1,0.3-1.7c0-0.6,0-1.3-0.2-1.9c-0.1-0.7-0.4-1.4-0.6-2c0.4,0.7,1,1.3,1.6,2c0.4,0.4,0.8,0.7,1.3,1.1
				c0.5,0.3,1,0.7,1.7,1c0.5,0.3,1,0.3,1.3,0.1c0.3-0.2,0.6-0.6,0.7-1c0.1-0.2,0.1-0.4,0.1-0.7c0-0.2,0-0.4-0.1-0.7
				c-0.1-0.4-0.3-0.8-0.5-1c-0.7-0.8-1.8-1.5-3-1.9c-0.6-0.2-1.3-0.4-1.9-0.5c0.7,0,1.5-0.2,2.3-0.4c1-0.3,2.2-0.8,3.3-1.5
				c1-0.6,0.9-1.6,0.2-2.2c-0.3-0.3-0.7-0.5-1.2-0.6c-0.4-0.1-0.8-0.1-1.1,0c-1,0.2-2.2,0.8-3.2,1.7c-0.4,0.4-0.9,0.7-1.2,1.1
				c0.3-0.6,0.5-1.2,0.6-1.9c0.1-0.5,0.2-1.1,0.3-1.7c0.1-0.6,0.1-1.3,0-1.9c0-1.2-0.9-1.5-1.8-1.3c-0.4,0.1-0.8,0.4-1.1,0.7
				c-0.3,0.3-0.5,0.7-0.6,1c-0.2,0.5-0.3,1.1-0.3,1.7c0,0.6,0,1.3,0.2,1.9c0.1,0.6,0.3,1.3,0.5,1.8c-0.4-0.6-0.9-1.1-1.5-1.7
				c-0.4-0.4-0.8-0.7-1.3-1.1c-0.5-0.3-1-0.7-1.7-1c-0.5-0.3-1-0.3-1.3-0.1c-0.3,0.2-0.6,0.6-0.7,1c-0.1,0.2-0.1,0.4-0.1,0.7
				c0,0.2,0,0.4,0.1,0.7c0.1,0.4,0.3,0.8,0.5,1c0.7,0.8,1.8,1.5,3,1.9C139.5,197.5,140.2,197.7,140.8,197.7z"/>
			<path class="st52" d="M335.7,297.4c-1.1,0-2.3,0.2-3.5,0.6c-1.5,0.4-3.1,1.1-4.8,2.2c-1.5,0.9-1.3,2.3-0.3,3.1
				c0.5,0.4,1.1,0.7,1.7,0.9c0.6,0.1,1.2,0.2,1.6,0.1c1.5-0.3,3.2-1.2,4.6-2.4c0.8-0.7,1.6-1.5,2.1-2.4c-0.6,1.1-1,2.2-1.4,3.5
				c-0.2,0.8-0.3,1.6-0.4,2.4c-0.1,0.9-0.1,1.8-0.1,2.8c0,1.7,1.3,2.2,2.5,1.9c0.6-0.2,1.2-0.6,1.6-1c0.4-0.4,0.7-1,0.9-1.4
				c0.2-0.7,0.4-1.6,0.4-2.4c0-0.9,0-1.8-0.2-2.7c-0.2-1.1-0.5-2-0.9-2.9c0.6,1,1.4,1.9,2.3,2.8c0.6,0.5,1.2,1.1,1.9,1.6
				c0.7,0.5,1.5,1,2.4,1.4c0.8,0.4,1.4,0.4,1.9,0.1c0.5-0.3,0.8-0.8,1-1.4c0.1-0.3,0.1-0.6,0.1-0.9c0-0.3-0.1-0.6-0.2-0.9
				c-0.2-0.6-0.5-1.1-0.8-1.5c-1-1.1-2.6-2.2-4.3-2.8c-0.9-0.3-1.8-0.6-2.7-0.7c1.1,0,2.2-0.3,3.3-0.6c1.5-0.4,3.1-1.1,4.8-2.2
				c1.5-0.9,1.3-2.3,0.3-3.1c-0.5-0.4-1.1-0.7-1.7-0.9c-0.6-0.1-1.2-0.2-1.6-0.1c-1.5,0.3-3.2,1.2-4.6,2.4c-0.6,0.5-1.2,1.1-1.7,1.6
				c0.4-0.9,0.7-1.8,0.9-2.8c0.2-0.8,0.3-1.6,0.4-2.4c0.1-0.9,0.1-1.8,0.1-2.8c0-1.7-1.3-2.2-2.5-1.9c-0.6,0.2-1.2,0.6-1.6,1
				c-0.4,0.4-0.7,1-0.9,1.4c-0.2,0.7-0.4,1.6-0.4,2.4c0,0.9,0,1.8,0.2,2.7c0.2,0.9,0.4,1.8,0.7,2.5c-0.6-0.9-1.3-1.6-2.1-2.5
				c-0.6-0.5-1.2-1.1-1.9-1.6c-0.7-0.5-1.5-1-2.4-1.4c-0.8-0.4-1.4-0.4-1.9-0.1c-0.5,0.3-0.8,0.8-1,1.4c-0.1,0.3-0.1,0.6-0.1,0.9
				c0,0.3,0.1,0.6,0.2,0.9c0.2,0.6,0.5,1.1,0.8,1.5c1,1.1,2.6,2.2,4.3,2.8C333.8,297.1,334.8,297.3,335.7,297.4z"/>
		</g>
	</g>
</g>
</svg>
