<?xml version="1.0" encoding="utf-8"?>
<!-- Generator: Adobe Illustrator 23.0.1, SVG Export Plug-In . SVG Version: 6.00 Build 0)  -->
<svg version="1.1" id="Calque_1" xmlns="http://www.w3.org/2000/svg" xmlns:xlink="http://www.w3.org/1999/xlink" x="0px" y="0px"
	 viewBox="0 0 432 432" style="enable-background:new 0 0 432 432;" xml:space="preserve">
<style type="text/css">
	.st0{fill:#333333;}
	.st1{fill:#A85A60;}
	.st2{fill:#F4C4B4;}
	.st3{fill:#9D9C80;}
	.st4{fill:#BE8F56;}
	.st5{fill:#E07784;}
	.st6{fill:#A0756A;}
	.st7{fill:#736357;}
	.st8{fill:#733F2E;}
	.st9{fill:#72A077;}
	.st10{fill:#C1636A;}
	.st11{fill:#DD787F;}
	.st12{fill:#C1272D;}
	.st13{fill:#1A1A1A;}
	.st14{fill:#BC8D7E;}
	.st15{fill:#8392B1;}
	.st16{fill:#95BC86;}
	.st17{fill:#6D9975;}
	.st18{fill:#C99685;}
	.st19{fill:#AF99C9;}
	.st20{fill:#5796B4;}
	.st21{fill:#B58C91;}
	.st22{fill:#9FA574;}
	.st23{fill:#717B9B;}
	.st24{fill:#739DA8;}
	.st25{fill:#B58474;}
	.st26{fill:#798AAB;}
	.st27{fill:#8BB583;}
	.st28{fill:#97B79F;}
	.st29{fill:#E0BE88;}
	.st30{fill:#97BFCE;}
	.st31{fill:#A5A1C3;}
	.st32{fill:#4D4D4D;}
	.st33{fill:#9BC1CE;}
	.st34{fill:#CEA294;}
	.st35{fill:#4C8E4C;}
	.st36{fill:#84B284;}
	.st37{fill:#5DA07B;}
	.st38{fill:#579357;}
	.st39{fill:#90A67F;}
	.st40{fill:#B78072;}
	.st41{fill:#009245;}
	.st42{fill:#79B293;}
	.st43{fill:#8CC63F;}
	.st44{fill:#5A8C5C;}
	.st45{fill:#8FB78F;}
	.st46{fill:#E28AA3;}
	.st47{fill:#BA9BC9;}
	.st48{fill:#EA94AA;}
	.st49{fill:#A28FC3;}
	.st50{fill:#9DC4AD;}
	.st51{fill:#709B83;}
	.st52{fill:#BF9096;}
	.st53{fill:#AAC184;}
	.st54{fill:#C9959B;}
	.st55{fill:#CCCCCC;}
	.st56{fill:#F7931E;}
	.st57{fill:#E8A96B;}
	.st58{fill:#AFC68B;}
	.st59{fill:#C98D94;}
	.st60{fill:#749385;}
	.st61{fill:#D1A6AA;}
</style>
<g>
	<g>
		<path class="st28" d="M358.9,223.74c-0.25,0.41-0.5,0.81-0.75,1.22c-3.41,5.59-7.95,9.96-13.83,12.88
			c-2.41,1.19-4.88,2.25-7.34,3.32c-0.61,0.27-1.28,0.43-1.93,0.54c-1.86,0.3-3.39-0.48-4.3-2.14c-0.78-1.43-0.93-2.97-0.78-4.57
			c0.22-2.49,0.95-4.83,2.03-7.07c2.21-4.6,5.44-8.37,9.39-11.55c5.04-4.06,10.71-6.9,16.92-8.69c0.28-0.08,0.57-0.14,0.98-0.23
			c-0.01-3.46-0.33-6.88-0.68-10.4c-0.27,0.13-0.42,0.17-0.54,0.25c-3.79,2.63-8.09,3.93-12.54,4.88c-2.23,0.48-4.49,0.77-6.78,0.67
			c-2.72-0.11-4.5-1.73-4.75-4.41c-0.06-0.65,0.02-1.35,0.19-1.99c0.69-2.7,2.09-4.94,4.41-6.54c2.74-1.9,5.83-2.8,9.1-3.2
			c3.06-0.37,6.03,0.09,8.97,0.91c0.21,0.06,0.43,0.11,0.82,0.2c-0.04-0.45-0.04-0.84-0.11-1.21c-0.65-3.14-1.2-6.31-2.32-9.33
			c-0.14-0.38-0.24-0.79-0.29-1.19c-0.14-1.28,0.63-2.42,1.82-2.74c1.17-0.32,2.41,0.28,2.91,1.5c0.41,1,0.77,2.03,1.05,3.07
			c1.17,4.33,2.08,8.71,2.49,13.18c0.44,4.76,0.92,9.51,1.24,14.28c0.31,4.73,0.35,9.48,0.12,14.22
			c-0.43,8.66-1.13,17.28-3.03,25.77c-0.07,0.31-0.07,0.68,0.03,0.98c1.62,5,1.58,10.08,0.72,15.18c-1.68,9.9-4.76,19.34-9.68,28.13
			c-2.23,3.99-4.88,7.7-8.09,10.97c-3.25,3.31-6.9,6.05-11.3,7.67c-0.52,0.19-1.07,0.35-1.61,0.44c-1.8,0.29-3.33-0.61-3.78-2.37
			c-0.33-1.29-0.53-2.64-0.63-3.97c-1.02-14.09,1.94-27.24,9.49-39.25c3.78-6.01,8.54-11.13,14.29-15.3
			c1.72-1.25,3.45-2.49,5.21-3.69c0.41-0.28,0.63-0.59,0.72-1.06c0.82-4.03,1.45-8.08,1.83-12.17c0.22-2.37,0.4-4.75,0.59-7.13
			C359.06,223.78,358.98,223.76,358.9,223.74z"/>
		<path class="st28" d="M248.63,353.68c-0.28-0.14-0.4-0.21-0.53-0.26c-4.4-1.55-8.43-3.8-12.31-6.34c-1.34-0.88-2.69-1.76-3.99-2.7
			c-0.63-0.45-1.24-0.98-1.72-1.59c-1.09-1.38-0.95-3.17,0.36-4.34c0.6-0.53,1.34-0.95,2.09-1.27c1.91-0.8,3.93-1.25,5.98-1.35
			c7.35-0.35,14.35,0.99,20.78,4.73c2.18,1.27,4.11,2.87,5.68,4.85c0.87,1.1,1.54,2.36,2.36,3.64c0.19-0.05,0.51-0.12,0.82-0.23
			c9.44-3.2,18.14-7.83,26.26-13.6c0.61-0.43,1.2-0.9,1.83-1.29c1.27-0.78,2.72-0.54,3.5,0.55c0.79,1.1,0.6,2.58-0.62,3.47
			c-2.32,1.69-4.67,3.36-7.09,4.9c-10.94,6.99-22.84,11.64-35.5,14.41c-6.2,1.36-12.45,2.44-18.77,3.07
			c-3.64,0.36-7.3,0.55-10.95,0.76c-0.93,0.05-1.66,0.27-2.4,0.91c-2.11,1.81-4.66,2.8-7.31,3.5c-5.8,1.51-11.69,1.99-17.66,1.47
			c-5.31-0.46-10.48-1.55-15.41-3.62c-5.75-2.42-10.44-6.19-14.14-11.19c-1.45-1.96-1.07-4.16,1.08-5.32
			c1.33-0.72,2.81-1.23,4.28-1.61c6.47-1.66,13.05-2.58,19.74-2.27c7,0.33,13.76,1.77,20.08,4.93c2.73,1.36,5.21,3.08,7.33,5.28
			c0.67,0.69,1.3,1.45,1.85,2.24c0.38,0.55,0.79,0.8,1.46,0.75c2.83-0.19,5.68-0.24,8.5-0.54c4.45-0.48,8.89-1.13,13.33-1.71
			C247.83,353.89,248.14,353.79,248.63,353.68z"/>
		<path class="st28" d="M83.42,256.4c0.47,2.42,3.1,10.39,3.99,11.93c0.1-0.49,0.19-0.87,0.26-1.24c0.72-4.19,2.14-8.15,3.99-11.96
			c1.7-3.5,3.66-6.85,5.86-10.05c0.44-0.64,0.92-1.28,1.49-1.82c1.6-1.52,3.67-1.48,5.15,0.16c0.64,0.71,1.15,1.57,1.56,2.44
			c1.22,2.63,1.88,5.43,2.26,8.29c0.7,5.29-0.33,10.34-2.35,15.2c-1.34,3.23-3.18,6.16-5.49,8.8c-1.69,1.93-3.62,3.55-5.97,4.82
			c0.17,0.35,0.31,0.68,0.48,0.99c3.96,7.01,8.49,13.63,13.84,19.66c1.98,2.23,4.14,4.29,6.22,6.44c0.36,0.37,0.76,0.73,1.06,1.15
			c0.69,1,0.57,2.25-0.24,3.09c-0.8,0.83-2.05,0.99-3.09,0.38c-0.25-0.15-0.49-0.34-0.71-0.54c-3.04-2.78-5.95-5.67-8.55-8.86
			c-10.74-13.18-18.78-27.8-23.66-44.12c-0.32-1.07-0.58-2.17-0.95-3.22c-0.16-0.47-0.44-0.99-0.82-1.27
			c-5.3-3.95-8.05-9.4-9.31-15.72c-1.56-7.83-1.3-15.59,1.2-23.22c1.06-3.25,2.64-6.26,4.53-9.09c1.33-1.99,3.33-2.31,5.18-0.78
			c0.8,0.66,1.48,1.48,2.11,2.3c2.54,3.35,4.12,7.17,5.2,11.21c1.66,6.21,2.45,12.53,2,18.96c-0.3,4.24-1.27,8.34-2.98,12.24
			C85.11,253.86,84.23,255.04,83.42,256.4z"/>
		<path class="st28" d="M97.65,141.34c-0.29,0.48-0.51,0.82-0.72,1.16c-2.26,3.87-4.3,7.86-5.98,12.02c-0.19,0.48-0.41,0.97-0.7,1.4
			c-0.71,1.02-2,1.36-3.08,0.86c-1.08-0.5-1.64-1.69-1.33-2.9c0.1-0.39,0.28-0.77,0.43-1.15c3.58-8.85,8.55-16.9,14.08-24.64
			c8.66-12.12,18.94-22.68,30.72-31.79c0.56-0.43,0.88-0.94,1.13-1.59c3.07-8.02,8.55-13.63,16.69-16.52
			c2.86-1.01,5.84-1.22,8.84-0.96c1.52,0.13,3.04,0.38,4.55,0.59c0.37,0.05,0.73,0.14,1.09,0.25c1.72,0.53,2.72,1.79,2.64,3.57
			c-0.04,0.99-0.21,2.04-0.6,2.93c-0.75,1.7-1.5,3.45-2.59,4.94c-4.11,5.59-9.47,9.46-16.23,11.26c-2.98,0.8-5.99,0.69-9,0.25
			c-1.14-0.17-2.26-0.44-3.57-0.71c-10.32,8.08-19.65,17.35-27.5,28.15c0.34-0.11,0.68-0.22,1.02-0.33
			c6.8-2.37,13.72-2.77,20.74-1.26c3.56,0.77,4.87,3.03,3.9,6.57c-0.95,3.45-2.96,6.26-5.52,8.68c-7.36,6.98-17.42,6.87-24.71,2.83
			c-0.81-0.45-1.57-1.01-2.28-1.61C98.99,142.77,98.4,142.09,97.65,141.34z"/>
		<path class="st28" d="M310.12,109.33c0.12,1.1,0.22,2.01,0.31,2.93c0.41,4.01-0.17,7.89-1.62,11.64
			c-0.23,0.59-0.53,1.16-0.89,1.68c-1.12,1.57-2.92,2.01-4.66,1.18c-1.23-0.59-2.08-1.58-2.72-2.74c-1.56-2.82-2.46-5.84-2.52-9.08
			c-0.09-4.33,1.17-8.32,3.17-12.11c0.16-0.29,0.31-0.59,0.53-0.99c-1.56-1.24-3.07-2.52-4.67-3.68c-2-1.44-4.06-2.79-6.1-4.17
			c-0.18-0.13-0.38-0.24-0.55-0.38c-0.96-0.81-1.21-2.1-0.63-3.13c0.59-1.04,1.83-1.53,3-1.1c0.59,0.22,1.13,0.56,1.67,0.9
			c7.13,4.52,13.43,10.08,19.62,15.77c1.98,1.82,3.88,3.73,5.84,5.57c0.31,0.29,0.71,0.58,1.11,0.68
			c7.96,1.89,13.81,6.65,18.26,13.34c2.69,4.05,4.84,8.33,5.7,13.16c0.21,1.16,0.27,2.39,0.16,3.56c-0.31,3.08-2.6,4.48-5.51,3.47
			c-3.91-1.35-7.32-3.53-10.36-6.3c-7.06-6.45-11.48-14.43-13.67-23.69c-0.05-0.22-0.09-0.44-0.11-0.66
			c-0.06-0.7-0.35-1.25-0.89-1.73c-1.3-1.18-2.55-2.41-3.83-3.61C310.62,109.69,310.44,109.58,310.12,109.33z"/>
	</g>
	<g>
		<path class="st0" d="M186.15,336.92c0.32-0.74,0.73-1.46,0.94-2.23c0.63-2.34,1.23-4.69,1.76-7.06c0.63-2.8,1.17-5.63,1.76-8.44
			c0.18-0.85,0.16-1.66-0.04-2.53c-1.02-4.46-1.15-8.95-0.11-13.43c0.3-1.28,0.73-2.51,1.49-3.6c1.27-1.84,3.42-2.7,5.47-2.19
			c1.63,0.4,2.36,1.48,2.08,3.15c-0.65,3.76-1.09,7.54-0.92,11.37c0.19,4.19,0.94,8.23,3.41,11.77c0.71,1.01,1.46,1.99,2.49,2.7
			c1.19,0.81,1.93,0.89,3.07,0.02c0.88-0.67,1.69-1.47,2.39-2.33c1.34-1.63,2.22-3.54,2.93-5.52c2.14-5.95,2.92-12.1,2.69-18.39
			c0-0.11-0.05-0.21-0.09-0.37c-0.43,0-0.87-0.01-1.3,0c-5,0.14-9.53-1.19-13.42-4.4c-2.03-1.68-3.53-3.74-4.14-6.36
			c-0.54-2.35-0.29-4.6,0.77-6.76c2.22-4.55,7.53-6.21,12-3.78c1.6,0.87,2.88,2.12,4.01,3.53c2.33,2.92,3.68,6.3,4.63,9.86
			c0.38,1.4,0.67,2.82,1.03,4.34c1.38-0.48,2.72-0.93,4.04-1.44c0.25-0.1,0.41-0.48,0.58-0.76c0.73-1.21,1.37-2.48,2.18-3.64
			c0.76-1.08,1.89-1.73,3.21-1.83c0.72-0.05,1.5,0.04,2.18,0.26c1.05,0.34,1.68,1.15,1.63,2.29c-0.04,0.92-0.13,1.87-0.38,2.76
			c-1.25,4.48-2.06,9.02-2.28,13.67c-0.25,5.11,0.51,10.06,2.69,14.72c0.53,1.14,1.24,2.22,2,3.23c0.5,0.67,1.19,1.25,1.89,1.72
			c1.2,0.81,2.46,0.76,3.67-0.07c1.34-0.94,2.33-2.2,3.19-3.57c1.57-2.48,2.66-5.18,3.53-7.96c2.83-9.01,3.58-18.2,2.41-27.56
			c-0.07-0.52-0.17-1.03-0.26-1.55c-0.01-0.07-0.07-0.13-0.16-0.26c-0.77,0.09-1.57,0.2-2.38,0.28c-5.28,0.57-10.27-0.35-14.87-3.05
			c-2.74-1.6-4.91-3.77-6.23-6.7c-0.75-1.66-1.14-3.4-0.85-5.23c0.4-2.51,1.75-4.44,3.84-5.8c3.53-2.31,7.29-2.39,11.14-0.9
			c2.24,0.87,4.08,2.32,5.67,4.1c2.82,3.15,4.59,6.87,5.92,10.83c0.31,0.92,0.57,1.85,0.88,2.85c0.26-0.04,0.51-0.05,0.74-0.12
			c2.04-0.59,4.08-1.21,6.13-1.77c0.74-0.2,1.18-0.56,1.51-1.29c0.98-2.17,3.38-3.16,5.62-2.43c1.24,0.4,2.09,1.18,2.22,2.53
			c0.09,0.89,0.12,1.79,0.06,2.68c-0.32,4.51-0.68,9.01-1.01,13.51c-0.05,0.7-0.01,1.41,0.12,2.18c0.11-0.27,0.23-0.54,0.31-0.81
			c0.95-3.04,2.19-5.95,4.02-8.59c0.85-1.24,1.8-2.38,2.99-3.32c3.17-2.49,7.05-1.78,9.11,1.69c1.06,1.78,1.38,3.77,1.61,5.78
			c0.04,0.39,0.08,0.78,0.32,1.18c0.11-0.34,0.23-0.67,0.33-1.01c1.21-4.1,2.8-8.03,5.16-11.63c1.41-2.15,3.13-3.99,5.36-5.32
			c1.38-0.82,2.86-1.3,4.48-1.19c2.09,0.15,3.78,1.08,5.06,2.74c1.36,1.76,2.05,3.8,2.37,5.97c0.43,2.87,0.26,5.74-0.11,8.6
			c-0.67,5.14-1.44,10.28-2.05,15.43c-0.41,3.45-0.58,6.93,0.13,10.37c0.32,1.54,0.75,3.06,1.64,4.38c1.52,2.24,2.2,1.96,3.82,0.34
			c0.99-0.99,1.68-2.2,2.18-3.49c0.99-2.58,1.93-5.17,2.89-7.76c0.18-0.49,0.35-0.99,0.57-1.46c0.33-0.71,0.95-1.05,1.71-1.07
			c1.01-0.03,1.55,0.56,1.34,1.55c-0.76,3.74-1.73,7.42-3.45,10.85c-0.76,1.51-1.74,2.87-3.03,3.99c-2.97,2.58-6.66,2.63-9.68,0.1
			c-1.79-1.5-2.96-3.45-3.78-5.61c-1.06-2.78-1.54-5.69-1.63-8.65c-0.15-4.94,0.12-9.86,0.6-14.77c0.37-3.79,0.78-7.57,1.14-11.36
			c0.14-1.49,0.04-2.99-0.38-4.44c-0.15-0.52-0.4-1.01-0.67-1.69c-0.85,0.54-1.6,0.94-2.27,1.45c-1.29,0.98-2.27,2.26-3.13,3.63
			c-2.14,3.41-3.55,7.14-4.66,11c-1.39,4.86-2.22,9.82-2.91,14.82c-0.42,3.03-0.77,6.07-1.16,9.11c-0.18,1.41-1.17,2.29-2.75,2.47
			c-1.43,0.17-2.65-0.43-3-1.76c-0.5-1.87-0.92-3.77-1.14-5.69c-0.68-5.76-0.78-11.54-0.49-17.34c0.1-2.09,0.08-4.18,0.04-6.27
			c-0.01-0.76-0.23-1.52-0.38-2.47c-0.42,0.27-0.7,0.37-0.87,0.57c-0.94,1.15-1.97,2.26-2.75,3.51c-1.79,2.85-2.69,6.06-3.41,9.31
			c-1.03,4.64-1.57,9.34-2.01,14.07c-0.09,1-0.16,2.01-0.26,3.01c-0.16,1.55-1.25,2.56-3,2.82c-1.53,0.23-2.81-0.39-3.29-1.88
			c-0.8-2.48-1.56-4.99-2.14-7.53c-1.67-7.22-2.02-14.55-1.56-21.93c0.11-1.75,0.37-3.49,0.55-5.23c0.03-0.29,0.03-0.59,0.05-1
			c-2.21,0.67-4.33,1.32-6.55,1.99c0.17,1.07,0.34,2.09,0.49,3.12c0.69,4.87,0.7,9.75,0.21,14.64c-0.55,5.41-1.65,10.69-3.54,15.8
			c-1.01,2.74-2.27,5.37-4.09,7.68c-0.76,0.96-1.61,1.88-2.55,2.66c-3.53,2.89-8.28,3.09-12.1,0.59c-1.39-0.91-2.56-2.06-3.58-3.36
			c-3.05-3.92-4.83-8.38-5.72-13.23c-0.89-4.87-0.9-9.72,0.21-14.56c0.03-0.15,0.05-0.29,0.07-0.44c0.01-0.07-0.02-0.14-0.06-0.35
			c-0.95,0.33-1.87,0.65-2.88,1c0,0.51-0.02,1.02,0,1.54c0.32,7.07-0.59,13.95-3.43,20.47c-0.76,1.73-1.7,3.42-2.78,4.97
			c-0.82,1.17-1.88,2.25-3.02,3.12c-3.22,2.45-6.72,2.68-10.31,0.85c-2.41-1.23-4.32-3.05-5.86-5.26c-0.21-0.3-0.43-0.59-0.77-1.06
			c-0.35,1.7-0.63,3.22-0.97,4.73c-0.49,2.18-0.97,4.37-1.55,6.53c-0.26,0.96-0.67,1.91-1.17,2.78c-1.65,2.89-4.75,3.6-7.44,1.62
			c-1.07-0.78-2.03-1.77-2.86-2.82c-3.12-3.97-5.34-8.43-6.93-13.22c-1.82-5.47-3.06-11.07-3.8-16.78c-0.02-0.14-0.05-0.29-0.11-0.6
			c-0.74,0.59-1.4,1.1-2.05,1.63c-0.64,0.51-1.27,1.03-1.97,1.6c0.21,1.23,0.44,2.47,0.62,3.72c0.59,4,0.55,7.97-0.56,11.88
			c-1.68,5.88-5.7,9-11.33,9.37c-5.68,0.38-8.32-4.18-7.15-8.74c0.46-1.79,1.29-3.42,2.27-4.97c1.87-2.98,4.37-5.38,7.05-7.61
			c0.43-0.36,0.85-0.73,1.31-1.05c0.38-0.27,0.53-0.57,0.45-1.04c-0.6-3.46-1.15-6.93-2.76-10.11c-0.45-0.89-1.01-1.75-1.66-2.51
			c-1.12-1.31-2.48-1.61-4.04-0.87c-0.93,0.44-1.81,1.06-2.59,1.74c-1.74,1.51-3.04,3.4-4.12,5.41c-2.37,4.39-3.71,9.11-4.34,14.04
			c-0.15,1.18-0.3,2.37-0.42,3.56c-0.15,1.56-0.99,2.54-2.45,3c-1.46,0.46-2.73,0.13-3.76-1.01c-0.15-0.17-0.29-0.34-0.42-0.52
			c-4.07-5.77-6.71-12.11-7.75-19.12c-0.53-3.56-0.77-7.13-0.61-10.72c0.17-4.04,0.65-8.04,1.98-11.89c0.95-2.74,2.24-5.3,4.24-7.43
			c2.36-2.51,5.25-3.61,8.69-3.14c2.77,0.38,4.75,1.84,5.91,4.4c1.08,2.38,1.34,4.91,1.05,7.46c-0.69,5.93-2.66,11.4-6.27,16.21
			c-2.17,2.88-3.85,4.3-6.89,6.43c0.58,3.28,1.58,6.47,2.85,9.82c0.17-0.4,0.28-0.6,0.33-0.81c0.9-3.4,2.02-6.72,3.53-9.9
			c1.5-3.18,3.5-6,6.1-8.36c1.64-1.48,3.54-2.45,5.74-2.84c3.25-0.57,6.06,0.33,8.47,2.53c2,1.83,3.3,4.13,4.37,6.57
			c0.51,1.16,0.9,2.36,1.4,3.68c0.55-0.42,1.07-0.8,1.57-1.22c0.79-0.68,1.55-1.41,2.35-2.07c0.43-0.35,0.55-0.74,0.51-1.26
			c-0.08-1.19-0.16-2.39-0.19-3.58c-0.15-7.47,0.41-14.85,2.6-22.04c1.21-3.96,2.85-7.7,5.34-11.03c0.99-1.32,2.09-2.54,3.44-3.51
			c1.92-1.38,4.03-2.1,6.43-1.65c2.23,0.41,3.78,1.68,4.75,3.7c0.99,2.06,1.1,4.25,0.94,6.47c-0.31,4.27-1.66,8.25-3.51,12.08
			c-2.65,5.5-6.28,10.32-10.42,14.78c-0.51,0.55-1.06,1.06-1.52,1.64c-0.21,0.27-0.39,0.65-0.39,0.98
			c0.16,7.75,0.98,15.42,3.07,22.91c0.89,3.2,1.94,6.36,3.51,9.3c0.75,1.41,1.66,2.74,2.53,4.09c0.3,0.47,0.68,0.88,1.03,1.32
			C185.85,337.02,186,336.97,186.15,336.92z M248.75,283.55c-0.92-3.99-2.15-7.65-4.24-10.98c-1.06-1.69-2.31-3.22-3.92-4.41
			c-1.77-1.31-3.73-2-5.96-1.85c-3.15,0.21-7.17,3.16-6.03,8c0.17,0.72,0.45,1.43,0.78,2.09c1.17,2.36,3.03,4.05,5.29,5.32
			c3.75,2.11,7.79,2.69,12.02,2.18C247.35,283.82,248,283.68,248.75,283.55z M130.39,302.66c0.28-0.16,0.42-0.22,0.52-0.31
			c0.43-0.36,0.86-0.72,1.26-1.11c3.54-3.37,5.65-7.55,6.93-12.19c0.8-2.89,1.35-5.81,0.93-8.83c-0.22-1.61-0.68-3.14-1.69-4.44
			c-1.19-1.53-2.79-1.65-4.11-0.24c-0.63,0.67-1.15,1.47-1.6,2.27c-1.02,1.84-1.63,3.84-2.03,5.9c-1.03,5.31-1.1,10.67-0.6,16.04
			C130.1,300.67,130.25,301.59,130.39,302.66z M175.69,294.81c0.51-0.58,0.87-0.99,1.22-1.41c3.76-4.45,6.94-9.25,8.95-14.75
			c1.27-3.5,2.03-7.1,1.69-10.85c-0.13-1.47-0.49-2.88-1.51-4.02c-0.66-0.75-1.07-0.83-1.81-0.19c-0.75,0.65-1.46,1.4-2.04,2.2
			c-1.44,1.97-2.37,4.22-3.15,6.52c-2.07,6.05-2.89,12.32-3.33,18.66C175.62,292.15,175.69,293.35,175.69,294.81z M215.21,297.1
			c0-0.26,0.03-0.48,0-0.7c-0.37-2.59-1-5.12-1.93-7.57c-0.85-2.25-1.91-4.39-3.57-6.15c-0.78-0.83-1.69-1.6-2.67-2.16
			c-1.53-0.89-3.12-0.59-4.44,0.59c-0.88,0.79-1.5,1.76-1.85,2.88c-0.99,3.11-0.37,5.9,1.77,8.33c2.31,2.63,5.28,4.07,8.68,4.68
			C212.52,297.24,213.84,297.37,215.21,297.1z M157.46,314.74c-0.28,0.2-0.45,0.28-0.56,0.4c-1.29,1.39-2.64,2.73-3.84,4.2
			c-1.23,1.51-2.07,3.27-2.59,5.16c-0.25,0.91-0.34,1.84-0.13,2.76c0.26,1.15,0.81,2.16,2.03,2.44c1.22,0.28,2.26-0.26,3.08-1.18
			c0.2-0.22,0.36-0.48,0.48-0.75c0.25-0.58,0.5-1.16,0.69-1.77C157.74,322.39,157.79,318.69,157.46,314.74z"/>
		<g>
			<path class="st0" d="M268.38,106.41c-0.13,1.66-0.32,3.29-0.38,4.92c-0.16,4.15-0.14,8.29,0.45,12.41
				c0.7,4.91,1.95,9.65,4.37,14.03c1.04,1.87,2.28,3.6,3.9,5.02c0.64,0.56,1.35,1.07,2.09,1.49c1.61,0.92,3.21,0.75,4.58-0.44
				c0.89-0.77,1.66-1.72,2.33-2.69c1.47-2.14,2.41-4.56,3.1-7.04c0.98-3.52,1.81-7.08,2.7-10.63c0.24-0.98,0.45-1.96,0.7-2.94
				c0.26-1.01,1.08-1.58,2.07-1.47c0.89,0.1,1.31,0.64,1.19,1.53c-0.67,5.08-1.68,10.08-3.27,14.96c-0.94,2.9-2.23,5.62-4.08,8.05
				c-1.49,1.96-3.33,3.43-5.73,4.09c-2.8,0.78-5.47,0.36-8.01-1.01c-2.89-1.56-5.16-3.8-7.09-6.41c-3.2-4.34-5.14-9.24-6.26-14.49
				c-1.41-6.56-1.55-13.17-0.75-19.85c-1.57-0.68-3.18-1.26-4.67-2.06c-1.5-0.8-2.89-1.82-4.39-2.79c-0.09,0.28-0.2,0.58-0.28,0.88
				c-1.88,7.42-4.08,14.75-6.72,21.93c-0.56,1.54-1.29,3.02-2.02,4.49c-0.33,0.66-0.78,1.29-1.28,1.82
				c-1.68,1.75-4.06,1.79-5.77,0.09c-0.68-0.68-1.28-1.46-1.84-2.25c-3.37-4.71-5.83-9.89-7.93-15.26c-1.84-4.71-3.02-9.6-4-14.55
				c-0.03-0.17-0.08-0.34-0.32-0.55c-0.13,0.36-0.26,0.73-0.4,1.09c-1.87,5.08-3.71,10.17-5.62,15.23
				c-0.54,1.42-1.22,2.81-1.97,4.13c-0.79,1.41-2.01,2.4-3.59,2.87c-2.1,0.63-3.99,0.11-5.67-1.22c-1.88-1.49-3.24-3.41-4.19-5.59
				c-0.57-1.29-1.02-2.64-1.59-4.11c-0.18,0.34-0.33,0.6-0.46,0.87c-1.5,3.38-2.97,6.77-4.49,10.14c-0.49,1.09-1.03,2.17-1.68,3.16
				c-0.63,0.96-1.34,1.91-2.17,2.69c-2.2,2.05-5.15,2.33-7.77,0.85c-1.19-0.67-2.17-1.58-3.04-2.61c-2.22-2.64-3.72-5.68-4.79-8.93
				c-0.61-1.84-1.06-3.73-1.58-5.6c-0.05-0.17-0.09-0.34-0.19-0.72c-0.37,0.4-0.64,0.68-0.9,0.97c-3.01,3.39-6.24,6.54-9.86,9.28
				c-3.63,2.75-7.52,4.99-11.98,6.12c-2.46,0.62-4.93,0.84-7.44,0.37c-4.56-0.86-7.72-3.43-9.21-7.87
				c-1.09-3.24-1.22-6.53-0.12-9.79c0.35-1.04,0.88-2.08,1.53-2.96c2.2-2.98,6.26-3.15,8.74-0.39c1.52,1.68,2.21,3.7,2.1,5.97
				c-0.04,0.81-0.45,1.21-1.16,1.21c-0.68,0-0.97-0.32-1.13-1.12c-0.19-0.95-0.37-1.91-0.67-2.82c-0.34-1.05-0.99-1.93-1.9-2.57
				c-1.16-0.82-2.27-0.66-3.14,0.47c-0.95,1.21-1.39,2.64-1.61,4.13c-0.38,2.64-0.12,5.22,0.86,7.71c1.45,3.7,4.5,5.77,8.48,5.83
				c2.48,0.04,4.81-0.58,7.07-1.5c3.92-1.61,7.29-4.06,10.47-6.8c3.12-2.69,5.95-5.66,8.6-8.81c0.47-0.56,0.64-1.1,0.53-1.83
				c-0.76-4.96-1.02-9.96-0.81-14.96c0.16-3.85,0.73-7.65,1.94-11.33c0.76-2.29,1.84-4.41,3.42-6.25c1.34-1.55,2.95-2.61,5.03-2.89
				c2.43-0.33,4.64,0.73,5.87,2.86c0.76,1.32,1.08,2.77,1.17,4.28c0.18,3.04-0.48,5.93-1.48,8.77c-1.42,4.03-3.41,7.79-5.58,11.46
				c-0.63,1.06-1.23,2.15-1.97,3.13c-0.75,0.99-0.96,2.01-0.83,3.23c0.54,4.94,1.29,9.84,2.9,14.57c0.62,1.81,1.38,3.56,2.51,5.11
				c0.46,0.63,1.04,1.17,1.6,1.7c0.47,0.44,1.02,0.45,1.52,0.02c0.42-0.36,0.89-0.72,1.19-1.17c0.8-1.17,1.66-2.33,2.24-3.6
				c2.34-5.08,4.6-10.21,6.85-15.33c0.21-0.48,0.27-1.09,0.22-1.62c-0.41-4.08-0.22-8.14,0.46-12.16c0.23-1.34,0.65-2.69,1.21-3.94
				c0.73-1.62,2.15-2.32,3.93-2.2c1.54,0.11,2.48,0.9,2.53,2.44c0.06,1.79-0.07,3.58-0.18,5.37c-0.26,4.36-0.55,8.73-0.3,13.1
				c0.17,2.95,0.51,5.89,1.78,8.61c0.45,0.97,1.02,1.91,1.65,2.78c0.51,0.7,0.85,0.68,1.46,0.05c0.46-0.48,0.91-1.01,1.22-1.59
				c0.68-1.24,1.36-2.5,1.87-3.82c2.53-6.63,4.99-13.27,7.48-19.91c0.21-0.57,0.28-1.12,0.24-1.74c-0.09-1.68-0.11-3.36-0.1-5.04
				c0-0.63,0.13-1.26,0.24-1.88c0.52-2.98,4.09-3.41,5.77-2.3c0.69,0.46,1.1,1.11,1.24,1.92c0.3,1.73,0.6,3.45,0.85,5.19
				c0.87,6.05,1.63,12.12,2.91,18.12c1.41,6.65,3.75,12.96,6.77,19.04c0.19,0.39,0.43,0.76,0.76,1.34c0.6-1.46,1.16-2.68,1.6-3.93
				c2.81-8.07,5.45-16.2,7.34-24.55c0.17-0.74,0.04-1.25-0.42-1.83c-3.74-4.85-6.46-10.21-8.04-16.13c-0.85-3.18-1.19-6.4-0.34-9.63
				c0.32-1.21,0.78-2.43,1.4-3.52c1.31-2.31,3.56-3.01,6.06-2.05c1.79,0.69,3.06,1.96,4.07,3.54c1.11,1.76,1.78,3.7,2.27,5.7
				c0.93,3.81,1.1,7.67,0.87,11.57c-0.21,3.62-0.71,7.2-1.45,10.75c-0.09,0.46-0.08,0.84,0.28,1.23c2.28,2.46,4.98,4.24,8.28,5.37
				c0.13-0.55,0.25-1.04,0.35-1.53c0.58-2.71,1.37-5.35,2.51-7.88c1.04-2.3,2.37-4.41,4.32-6.06c2.25-1.9,4.8-2.99,7.82-2.73
				c4.05,0.35,7.21,3.73,6.79,8.3c-0.18,1.91-0.92,3.61-2,5.16c-2.66,3.83-6.2,6.42-10.79,7.46
				C269.31,106.19,268.95,106.28,268.38,106.41z M248.69,93.03c0.11-0.42,0.2-0.68,0.25-0.96c0.2-1.33,0.41-2.66,0.56-3.99
				c0.47-4.13,0.6-8.26-0.11-12.39c-0.34-1.95-0.83-3.87-1.75-5.64c-0.47-0.9-1.04-1.73-1.89-2.32c-0.97-0.68-1.54-0.64-2.13,0.37
				c-0.49,0.83-0.88,1.73-1.15,2.65c-0.71,2.45-0.61,4.95-0.12,7.43c1,5.16,3.16,9.86,5.92,14.29
				C248.36,92.62,248.49,92.76,248.69,93.03z M177.4,97.05c0.1,0.03,0.21,0.06,0.31,0.09c0.13-0.17,0.27-0.33,0.38-0.51
				c1.87-3.15,3.56-6.39,4.86-9.82c0.89-2.35,1.6-4.74,1.83-7.25c0.18-2,0.05-3.97-1.04-5.74c-0.63-1.01-1.26-1.15-2.07-0.29
				c-0.7,0.75-1.38,1.62-1.74,2.56c-0.65,1.7-1.22,3.46-1.54,5.24c-0.41,2.31-0.65,4.66-0.79,7
				C177.43,91.24,177.46,94.15,177.4,97.05z M268.78,103.84c0.35-0.04,0.54-0.03,0.71-0.09c4.16-1.35,7.07-4.07,8.59-8.16
				c0.34-0.91,0.41-1.97,0.39-2.96c-0.03-1.18-0.49-2.25-1.45-3.04c-0.81-0.66-1.33-0.7-2.24-0.19c-1.04,0.59-1.76,1.49-2.35,2.5
				C270.31,95.55,269.47,99.58,268.78,103.84z"/>
			<path class="st0" d="M198.18,76.59c0.1-2.82,2.14-4.76,4.9-4.58c2.52,0.16,4.36,2.46,4.06,5.06c-0.03,0.3-0.06,0.59-0.12,0.89
				c-0.36,1.97-1.75,3.27-3.81,3.52c-1.93,0.24-3.64-0.7-4.4-2.54C198.51,78.2,198.39,77.38,198.18,76.59z"/>
		</g>
		<g>
			<path class="st0" d="M106.39,198.35c-2.3,1.16-4.55,2.07-6.92,2.61c-3.4,0.77-6.81,0.86-10.21,0.04
				c-4.5-1.09-7.93-3.71-10.54-7.46c-2.77-3.98-4.04-8.44-4.18-13.26c-0.08-2.93,0.16-5.82,1.15-8.61c0.97-2.73,2.46-5.11,4.69-6.98
				c2.08-1.75,4.46-2.69,7.22-2.46c2.16,0.18,3.95,1.13,5.29,2.81c2.09,2.62,2.9,5.6,2.28,8.92c-0.07,0.36-0.19,0.73-0.35,1.06
				c-0.28,0.56-0.85,0.82-1.39,0.68c-0.54-0.14-0.74-0.43-0.69-1.21c0.09-1.54,0-3.06-0.46-4.54c-0.39-1.26-0.95-2.43-1.8-3.45
				c-1.74-2.07-3.95-2.42-6.13-0.8c-0.91,0.67-1.71,1.56-2.38,2.49c-1.62,2.23-2.37,4.82-2.62,7.53c-0.47,5.08,0.47,9.91,3.13,14.3
				c0.83,1.36,1.83,2.65,2.93,3.8c3.25,3.39,7.33,4.43,11.88,3.82c2.84-0.38,5.46-1.47,7.98-2.82c0.56-0.3,0.65-0.65,0.6-1.25
				c-0.47-6.64,0.15-13.13,2.82-19.31c1.24-2.87,2.88-5.49,5.13-7.68c1.44-1.4,3.06-2.49,5.05-2.98c3.3-0.81,6.2,0.78,7.24,4
				c0.78,2.4,0.5,4.8-0.12,7.18c-0.9,3.47-2.5,6.63-4.46,9.61c-2.63,4-5.85,7.46-9.63,10.39c-0.29,0.23-0.59,0.46-0.93,0.73
				c0.74,4.95,2.11,9.68,4.7,14c1.04,1.74,2.25,3.36,3.73,4.74c0.79,0.74,1.62,1.45,2.53,2.03c2.67,1.73,5.54,2.07,8.57,1.03
				c2.67-0.91,4.91-2.51,6.97-4.37c2.48-2.24,4.58-4.81,6.53-7.52c3.62-5.04,6.8-10.36,9.58-15.91c0.12-0.23,0.22-0.47,0.36-0.75
				c-0.12-0.22-0.24-0.44-0.38-0.66c-3.6-5.63-5.67-11.82-6.8-18.35c-0.81-4.66-0.88-9.37-0.62-14.07
				c0.28-5.05,1.11-10.01,2.86-14.79c0.75-2.04,1.69-3.99,2.98-5.75c1.07-1.46,2.33-2.73,3.94-3.6c3.49-1.89,7.44-0.93,9.69,2.34
				c1.12,1.63,1.76,3.45,2.21,5.35c0.84,3.55,1.04,7.16,0.82,10.8c-0.43,7.05-2.04,13.87-4.05,20.61
				c-1.52,5.12-3.29,10.15-5.48,15.03c-0.27,0.61-0.26,1.09,0.1,1.66c0.95,1.48,1.92,2.95,3.27,4.11c0.7,0.6,1.48,1.14,2.29,1.58
				c1.34,0.73,2.73,0.63,3.88-0.34c1.08-0.91,2.12-1.91,2.97-3.02c3.03-3.94,5.74-8.1,8.27-12.38c1.29-2.19,2.48-4.43,3.73-6.64
				c0.36-0.63,0.5-1.3,0.56-2.02c0.23-3.06,0.65-6.09,1.6-9.02c0.25-0.77,0.58-1.54,1.01-2.24c0.92-1.51,2.67-2.17,4.38-1.74
				c1.16,0.29,1.84,1.06,1.76,2.25c-0.12,1.86-0.34,3.72-0.56,5.57c-0.57,4.82-1.07,9.65-0.8,14.52c0.29,5.27,1.56,10.25,4.27,14.8
				c0.68,1.14,1.56,2.19,2.49,3.14c0.89,0.91,1.46,0.86,2.21-0.17c0.83-1.14,1.63-2.34,2.2-3.62c1.2-2.73,2.28-5.52,3.34-8.31
				c0.99-2.62,1.9-5.27,2.85-7.9c0.21-0.57,0.28-1.12,0.21-1.74c-0.7-5.83-0.99-11.69-0.68-17.55c0.36-6.98,1.6-13.79,4.43-20.23
				c0.91-2.06,2.01-4,3.47-5.73c0.95-1.12,2.03-2.09,3.32-2.8c3.62-1.97,7.76-0.97,10.08,2.43c1.29,1.89,1.92,4.02,2.19,6.28
				c0.45,3.82-0.17,7.52-1.32,11.15c-2.03,6.39-5.09,12.2-9.89,16.96c-1.24,1.23-2.66,2.28-4.04,3.35
				c-0.48,0.37-0.76,0.68-0.73,1.35c0.16,4,0.6,7.96,1.23,11.91c0.03,0.17,0.13,0.34,0.2,0.52c0.98,0.2,1.88-0.09,2.78-0.31
				c3.29-0.8,6.21-2.32,8.76-4.55c2.72-2.37,4.94-5.19,6.99-8.14c0.23-0.33,0.26-0.84,0.25-1.26c-0.1-3.34,0.15-6.64,1.14-9.86
				c0.93-2.99,2.25-5.77,4.32-8.15c1.48-1.7,3.26-2.93,5.44-3.59c5.06-1.53,9.1,1.43,10.4,5.76c0.69,2.3,0.34,4.52-0.75,6.62
				c-1.49,2.86-3.81,4.85-6.67,6.24c-1.66,0.8-3.4,1.32-5.22,1.61c-0.37,0.06-0.73,0.13-1.19,0.22c0,0.48-0.03,0.96,0,1.43
				c0.53,6.83,2.64,13.08,6.91,18.49c1.03,1.31,2.22,2.53,3.46,3.65c5.26,4.69,11.32,5.84,17.95,3.66
				c5.96-1.96,10.57-5.75,14.02-10.97c0.06-0.09,0.09-0.2,0.16-0.36c-1.09-1.72-1.98-3.56-2.53-5.55c-0.79-2.84-1.18-5.7-0.56-8.63
				c0.25-1.18,0.71-2.28,1.46-3.24c2.14-2.74,5.74-2.58,7.6,0.35c0.84,1.33,1.19,2.81,1.25,4.36c0.13,3.36-0.64,6.52-2.06,9.54
				c-0.41,0.88-0.88,1.73-1.35,2.67c0.13,0.21,0.26,0.48,0.44,0.7c2.56,3.16,5.78,5.15,9.89,5.47c2.62,0.2,5.04-0.54,7.25-1.9
				c1.17-0.72,2.29-1.57,3.28-2.51c3.34-3.17,5.45-7.15,7.34-11.38c-0.31-0.3-0.6-0.58-0.89-0.86c-3.85-3.69-6.68-8.02-8.09-13.2
				c-1.01-3.71-1.18-7.44,0.07-11.14c0.3-0.88,0.68-1.75,1.16-2.53c2.31-3.77,6.9-4.68,10.5-2.11c1.37,0.98,2.35,2.28,3.12,3.76
				c1.35,2.6,1.91,5.41,2.02,8.31c0.19,5.17-1.05,10.07-2.97,14.82c-0.17,0.42-0.34,0.83-0.51,1.25c0.05,0.11,0.08,0.23,0.15,0.3
				c2.42,2.19,5.15,3.87,8.36,4.57c5.43,1.17,9.89-0.71,13.34-4.88c2.35-2.84,3.33-6.24,2.93-9.94c-0.11-0.98-0.48-1.95-0.85-2.87
				c-0.19-0.49-0.64-0.88-0.95-1.29c-0.91,0.19-1.31,0.79-1.7,1.38c-0.43,0.65-0.81,1.35-1.26,1.99c-0.59,0.83-1.53,1.02-2.37,0.54
				c-0.62-0.35-0.89-0.84-0.61-1.49c0.46-1.05,0.9-2.16,1.58-3.06c1.92-2.53,5.32-2.68,7.52-0.39c1.88,1.96,2.52,4.41,2.34,7.02
				c-0.49,7.15-4.27,12.02-10.76,14.82c-4.44,1.92-8.94,1.7-13.44,0.13c-2.12-0.75-4.09-1.79-6.07-3.08
				c-0.22,0.39-0.42,0.73-0.62,1.08c-1.59,2.84-3.36,5.57-5.57,7.97c-2.98,3.24-6.5,5.59-10.87,6.49
				c-5.69,1.17-10.62-0.42-14.9-4.24c-0.22-0.2-0.44-0.41-0.66-0.61c-0.03-0.02-0.06-0.03-0.18-0.09c-0.24,0.3-0.49,0.62-0.74,0.93
				c-3.91,4.79-8.66,8.47-14.56,10.42c-9.22,3.06-17.54,1.21-24.87-5.07c-5.71-4.9-9.29-11.12-10.98-18.45
				c-0.05-0.21-0.12-0.42-0.24-0.81c-0.34,0.42-0.57,0.74-0.83,1.03c-1.57,1.75-3.07,3.58-4.75,5.21c-2.5,2.43-5.51,4.06-8.82,5.15
				c-0.31,0.1-0.61,0.2-1.07,0.36c0.36,0.23,0.6,0.4,0.84,0.53c1.35,0.72,2.71,1.42,4.05,2.15c4.36,2.36,8.06,5.52,11.22,9.33
				c2.41,2.91,4.01,6.19,4.45,9.98c0.39,3.32-0.27,6.4-2.21,9.15c-2.4,3.4-6.1,4.24-9.76,2.27c-1.86-1.01-3.41-2.41-4.83-3.96
				c-2.76-3.03-4.94-6.46-6.87-10.06c-3.55-6.63-5.93-13.68-7.58-20.99c-0.07-0.31-0.16-0.62-0.31-1.17c-0.26,0.7-0.43,1.15-0.6,1.6
				c-1.26,3.43-2.5,6.88-3.8,10.29c-0.4,1.04-0.91,2.05-1.47,3.01c-0.45,0.76-1,1.49-1.62,2.13c-2.07,2.11-4.82,2.53-7.36,1.02
				c-1.14-0.68-2.19-1.57-3.1-2.54c-3.32-3.49-5.34-7.73-6.6-12.31c-0.69-2.5-1.07-5.09-1.61-7.75c-0.19,0.31-0.4,0.63-0.59,0.96
				c-2.69,4.71-5.61,9.27-8.82,13.63c-0.88,1.19-1.87,2.35-2.98,3.33c-2.7,2.38-5.83,2.85-9.21,1.68c-1.98-0.69-3.65-1.87-5.15-3.29
				c-0.27-0.25-0.54-0.5-0.88-0.82c-0.23,0.4-0.43,0.74-0.61,1.09c-3.26,6.1-6.86,11.99-11.28,17.34c-2.12,2.57-4.45,4.94-7.2,6.86
				c-2.47,1.73-5.12,3.07-8.1,3.66c-3.88,0.76-7.5,0.1-10.85-1.97c-2.79-1.72-4.91-4.11-6.69-6.82c-2.52-3.83-4.04-8.06-4.93-12.53
				C106.58,199.03,106.49,198.75,106.39,198.35z M156.76,182.37c0.23-0.52,0.4-0.88,0.54-1.25c2.55-6.47,4.61-13.09,6.17-19.86
				c1.25-5.39,2.13-10.84,1.89-16.41c-0.1-2.4-0.39-4.77-1.16-7.04c-0.37-1.08-0.85-2.17-1.49-3.11c-1.17-1.71-2.69-1.85-4.3-0.55
				c-0.95,0.76-1.62,1.75-2.19,2.81c-1.06,1.95-1.77,4.03-2.3,6.17c-1.07,4.37-1.43,8.83-1.56,13.31
				c-0.18,6.11,0.35,12.15,1.79,18.1C154.79,177.15,155.59,179.71,156.76,182.37z M218,185.37c0.05,0.4,0.06,0.66,0.12,0.91
				c0.88,4.05,2.04,8.02,3.54,11.89c1.56,4.01,3.36,7.9,5.82,11.45c1.07,1.54,2.24,2.99,3.74,4.14c0.62,0.47,1.29,0.9,2,1.21
				c1.32,0.58,2.39,0.29,3.28-0.85c0.43-0.55,0.78-1.19,1.05-1.83c0.87-2.06,0.91-4.21,0.53-6.38c-0.62-3.52-2.31-6.5-4.59-9.21
				C229.3,191.7,223.88,188.38,218,185.37z M215.71,165.12c0.11,0.06,0.22,0.11,0.33,0.17c0.71-0.69,1.45-1.35,2.13-2.07
				c4.86-5.2,7.79-11.41,9.48-18.26c0.75-3.03,1.03-6.1,0.45-9.2c-0.32-1.7-0.85-3.33-2.09-4.62c-0.86-0.89-1.46-0.93-2.44-0.17
				c-1.14,0.89-1.98,2.05-2.57,3.34c-0.77,1.69-1.5,3.42-2.07,5.18c-1.57,4.88-2.54,9.9-2.85,15.01
				C215.87,158.04,215.83,161.59,215.71,165.12z M110.48,191.21c0.47-0.37,0.76-0.57,1.03-0.81c3.58-3.18,6.53-6.86,8.78-11.09
				c1.03-1.95,1.88-3.98,2.37-6.14c0.37-1.65,0.59-3.33,0.08-4.98c-0.68-2.21-1.86-2.95-4.01-1.59c-1.22,0.77-2.18,1.81-3.02,2.96
				c-1.54,2.1-2.62,4.42-3.43,6.88c-1.07,3.25-1.57,6.6-1.77,10C110.4,187.95,110.48,189.47,110.48,191.21z M319.61,167.54
				c0.09-0.06,0.19-0.11,0.28-0.17c0.05-0.14,0.11-0.27,0.15-0.41c1.02-3.21,1.72-6.5,1.89-9.87c0.15-3-0.14-5.97-1.23-8.81
				c-0.46-1.2-1.06-2.31-1.99-3.21c-0.96-0.94-1.71-0.98-2.57,0.05c-0.63,0.75-1.16,1.66-1.51,2.58c-0.92,2.39-0.9,4.9-0.56,7.4
				c0.61,4.48,2.59,8.37,5.27,11.96C319.45,167.2,319.52,167.38,319.61,167.54z M243.6,164.11c2.47-0.33,4.66-0.98,6.58-2.36
				c1.68-1.2,2.94-2.76,3.55-4.75c0.82-2.67,0.38-5.1-1.63-7.12c-1.09-1.09-1.91-1.11-3.16-0.18c-0.94,0.7-1.63,1.63-2.21,2.64
				c-1.2,2.08-2,4.32-2.5,6.67C243.88,160.65,243.62,162.29,243.6,164.11z M288.01,178.69c0.2-0.28,0.31-0.39,0.37-0.51
				c1.12-2.52,1.81-5.15,1.74-7.9c-0.03-1.13-0.32-2.28-0.61-3.38c-0.18-0.68-0.59-1.28-1.39-1.7c-0.3,0.36-0.71,0.67-0.89,1.07
				c-0.35,0.81-0.69,1.66-0.85,2.52c-0.42,2.36-0.03,4.68,0.62,6.96C287.27,176.69,287.64,177.61,288.01,178.69z"/>
			<path class="st0" d="M190.64,150.87c-1.82,0.03-3.49-1.03-4.16-2.69c-0.68-1.69-0.36-3.23,0.86-4.57
				c1.14-1.25,3.26-1.7,4.86-1.07c0.31,0.12,0.61,0.28,0.88,0.48c1.31,0.94,2.2,3.33,1.83,4.9c-0.35,1.5-1.95,2.77-3.72,2.94
				C191.02,150.88,190.83,150.87,190.64,150.87z"/>
		</g>
		<g>
			<path class="st0" d="M210.32,243.14c2.57,0.44,4.87-0.2,7.06-1.35c0.59-0.31,1.16-0.69,1.69-1.09c2.65-2.01,5.11-4.25,7.45-6.61
				c0.45-0.45,0.62-0.94,0.68-1.57c0.16-1.52,0.37-3.04,0.71-4.52c0.19-0.82,0.6-1.62,1.06-2.33c0.97-1.5,2.84-2.17,4.51-1.72
				c1.11,0.29,1.85,0.99,2.02,2.14c0.12,0.85,0.19,1.71,0.21,2.56c0.09,3.7,0.13,7.39,0.23,11.09c0.08,3.07,0.55,6.1,1.38,9.05
				c0.33,1.17,0.86,2.3,1.39,3.41c0.28,0.58,0.78,1.06,1.28,1.73c0.39-0.5,0.74-0.83,0.95-1.24c0.72-1.39,1.5-2.77,2.05-4.23
				c2.25-6.01,4.46-12.04,6.59-18.09c0.39-1.1,0.32-2.35,0.48-3.53c0.3-2.14,0.6-4.28,0.92-6.42c0.07-0.44,0.22-0.87,0.38-1.28
				c0.8-2.08,3.19-3.11,5.25-2.27c0.98,0.4,1.58,1.13,1.72,2.17c0.08,0.63,0.12,1.27,0.09,1.9c-0.19,3.95-0.33,7.91-0.61,11.86
				c-0.39,5.42-0.55,10.82,0.35,16.2c0.54,3.21,1.32,6.36,2.68,9.33c0.45,0.98,0.96,1.94,1.89,2.71c0.55-0.47,0.77-1.11,0.97-1.72
				c1.01-3.12,2.02-6.25,2.97-9.39c0.47-1.57,0.77-3.19,1.22-4.77c0.3-1.04,0.23-2.04,0.05-3.08c-1.26-6.99-1.44-14.02-0.67-21.08
				c0.49-4.44,1.34-8.79,3.05-12.92c0.58-1.4,1.31-2.77,2.15-4.04c1.02-1.55,2.48-2.58,4.4-2.77c2.25-0.23,4.02,0.59,5.25,2.5
				c0.91,1.41,1.32,3,1.58,4.63c0.65,3.99,0.18,7.89-1.04,11.71c-1.51,4.72-3.91,8.96-7.09,12.74c-0.67,0.79-0.99,1.51-0.89,2.59
				c0.66,7.62,2.01,15.09,4.76,22.26c0.7,1.81,1.5,3.58,2.66,5.16c0.3,0.4,0.67,0.75,1.15,1.28c0.43-0.77,0.86-1.34,1.09-1.98
				c0.65-1.75,1.31-3.5,1.8-5.29c1.14-4.14,2.2-8.3,3.25-12.45c0.14-0.56,0.19-1.2,0.08-1.76c-1.14-6.08-1.55-12.22-1.24-18.39
				c0.35-7.02,1.67-13.86,4.42-20.36c0.78-1.85,1.72-3.65,2.74-5.38c0.57-0.98,1.35-1.9,2.2-2.66c3.06-2.73,7.32-2.04,9.35,1.52
				c1.75,3.08,2.32,6.43,2,9.94c-0.26,2.82-1.11,5.48-2.27,8.05c-1.58,3.51-3.44,6.87-5.59,10.08c-1.21,1.8-2.57,3.49-4.15,4.98
				c-0.31,0.29-0.53,0.57-0.51,1.05c0.34,7.98,1.31,15.84,4.36,23.32c0.96,2.36,2.11,4.63,3.75,6.6c0.69,0.83,1.44,1.63,2.28,2.3
				c1.42,1.13,2.45,0.97,3.49-0.53c0.59-0.85,1.04-1.81,1.44-2.77c0.95-2.29,1.36-4.72,1.79-7.15c0.22-1.25,0.5-2.49,0.83-3.71
				c0.25-0.95,0.96-1.43,1.9-1.43c0.92,0,1.43,0.41,1.4,1.34c-0.05,1.53-0.11,3.06-0.32,4.57c-0.37,2.75-1.13,5.4-2.26,7.94
				c-0.57,1.27-1.28,2.45-2.27,3.44c-2.53,2.54-5.95,3.12-9.16,1.55c-1.42-0.7-2.66-1.66-3.81-2.73c-3.12-2.91-5.27-6.46-6.93-10.35
				c-0.47-1.09-0.89-2.2-1.42-3.5c-0.16,0.54-0.27,0.86-0.36,1.2c-0.84,3.06-1.66,6.12-2.52,9.18c-0.47,1.66-1.09,3.26-2.16,4.64
				c-1.17,1.51-2.69,2.33-4.63,2.3c-1.17-0.01-2.18-0.46-3.1-1.13c-1.48-1.07-2.55-2.51-3.5-4.04c-1.64-2.64-2.95-5.45-4.02-8.36
				c-0.4-1.09-0.75-2.19-1.13-3.28c-0.07-0.2-0.18-0.38-0.33-0.7c-0.59,2.04-1.12,3.94-1.68,5.82c-0.41,1.36-0.87,2.7-1.32,4.04
				c-0.15,0.46-0.33,0.91-0.55,1.35c-1.58,3.18-4.8,3.91-7.53,1.62c-0.96-0.8-1.78-1.81-2.52-2.83c-1.64-2.26-2.66-4.83-3.54-7.46
				c-1.27-3.84-2.09-7.78-2.5-11.8c-0.02-0.18-0.05-0.37-0.09-0.55c0-0.02-0.06-0.03-0.2-0.09c-0.13,0.32-0.26,0.64-0.38,0.97
				c-1.11,3.09-2.17,6.2-3.36,9.26c-0.59,1.52-1.32,3.02-2.22,4.37c-1.39,2.09-3.44,3.03-5.98,2.71c-1.46-0.19-2.65-0.95-3.72-1.93
				c-1.28-1.17-2.23-2.6-3.06-4.12c-1.64-3.02-2.54-6.29-3.15-9.64c-0.21-1.17-0.34-2.36-0.51-3.54c-0.06-0.39-0.14-0.78-0.23-1.3
				c-0.34,0.31-0.58,0.53-0.82,0.75c-1.42,1.26-2.84,2.54-4.28,3.78c-2.19,1.89-4.7,3.15-7.52,3.81c-0.18,0.04-0.36,0.09-0.54,0.14
				c-0.02,0.01-0.03,0.05-0.12,0.18c0.35,0.24,0.71,0.48,1.07,0.73c2.05,1.39,3.91,3,5.35,5.04c1.71,2.41,2.65,5.09,2.62,8.06
				c-0.02,1.67-0.44,3.25-1.32,4.69c-2.05,3.32-6.11,4.21-9.36,2.06c-1.23-0.82-2.2-1.9-3.04-3.11c-2.08-2.98-3.36-6.32-4.31-9.79
				c-1.4-5.14-2.17-10.38-2.07-15.71c0.11-5.52,0.79-10.95,2.86-16.12c0.88-2.19,1.93-4.29,3.37-6.17c1.17-1.52,2.58-2.7,4.57-2.96
				c2.25-0.29,4.06,0.46,5.29,2.39c1.39,2.17,1.76,4.57,1.47,7.09c-0.25,2.2-1.09,4.17-2.34,5.99c-1.82,2.63-4.09,4.75-6.96,6.18
				c-0.51,0.25-0.86,0.52-0.85,1.16c0.01,2.5-0.02,5-0.02,7.5C210.22,242.83,210.27,242.93,210.32,243.14z M296.23,226.76
				c0.09,0.02,0.18,0.05,0.27,0.07c0.23-0.29,0.47-0.57,0.68-0.87c2.62-3.71,4.79-7.65,6.47-11.87c0.89-2.23,1.5-4.53,1.64-6.94
				c0.16-2.73-0.26-5.36-1.47-7.83c-0.31-0.63-0.64-1.25-1.38-1.74c-0.36,0.48-0.76,0.88-0.99,1.36c-0.52,1.07-1.04,2.15-1.41,3.28
				c-2.09,6.38-3.24,12.95-3.6,19.65C296.35,223.5,296.3,225.13,296.23,226.76z M210.53,246.91c0.2,1.35,0.35,2.5,0.55,3.63
				c0.57,3.28,1.27,6.52,2.69,9.55c0.45,0.97,1.02,1.91,1.65,2.78c0.49,0.68,1.11,1.46,2.08,1.25c0.94-0.2,1.24-1.12,1.54-1.93
				c0.5-1.37,0.48-2.79,0.26-4.2C218.46,252.8,215.32,249.4,210.53,246.91z M278.28,204.65c-0.37,0.69-0.68,1.11-0.84,1.59
				c-0.41,1.16-0.85,2.32-1.11,3.51c-1.37,6.33-1.93,12.75-1.86,19.23c0,0.12,0.08,0.24,0.13,0.39c0.12-0.12,0.19-0.16,0.23-0.22
				c3.16-4.93,5.2-10.23,5.36-16.15c0.06-2.21-0.17-4.4-0.97-6.49C279,205.95,278.67,205.42,278.28,204.65z M210.62,231.1
				c0.19-0.01,0.28,0.01,0.33-0.03c2.59-1.85,4.63-4.12,5.56-7.23c0.68-2.26,0.6-4.5-0.44-6.65c-0.23-0.49-0.47-1.01-1.16-1.31
				C212.4,220.68,211.35,225.82,210.62,231.1z"/>
			<g>
				<path class="st0" d="M149.42,251.13c0.23-1.96,0.44-3.92,0.7-5.88c0.99-7.6,2.37-15.12,5.14-22.31c1.17-3.04,2.6-5.95,4.43-8.65
					c0.94-1.4,1.97-2.73,3.27-3.82c1.85-1.55,3.95-2.22,6.36-1.64c1.97,0.48,3.37,1.71,4.35,3.44c1.02,1.82,1.52,3.81,1.79,5.85
					c0.55,4.19,0.5,8.42,0.52,12.64c0.03,3.85,0,7.7,0.6,11.51c0.33,2.06,0.79,4.1,1.37,6.1c0.3,1.05,0.97,2,1.52,2.96
					c0.2,0.35,0.52,0.63,0.83,0.9c1.12,0.96,1.76,0.93,2.57-0.27c0.54-0.79,0.99-1.68,1.31-2.58c0.65-1.86,1.19-3.77,1.77-5.66
					c0.11-0.36,0.2-0.72,0.36-1.06c0.34-0.69,0.91-1.07,1.68-1.11c1.01-0.05,1.52,0.41,1.34,1.41c-0.55,3.01-1.03,6.04-2.36,8.84
					c-0.19,0.4-0.41,0.8-0.65,1.17c-2.82,4.27-7.44,3.78-10.08,1.85c-2.36-1.73-4.01-3.99-5.07-6.69c-1.1-2.79-1.75-5.7-2.23-8.65
					c-0.86-5.33-0.87-10.71-0.96-16.08c-0.04-2.61-0.07-5.23-0.61-7.8c-0.16-0.76-0.46-1.48-0.75-2.42
					c-0.54,0.41-1.01,0.65-1.32,1.03c-1.05,1.26-2.14,2.5-3.04,3.87c-2.67,4.07-4.35,8.58-5.58,13.25c-1.3,4.96-2.15,10-2.55,15.11
					c-0.38,4.84-0.6,9.69-0.91,14.53c-0.05,0.74-0.1,1.49-0.23,2.23c-0.32,1.79-2.12,3.13-3.93,2.97c-1.19-0.11-1.97-0.81-2.57-1.77
					c-1.42-2.29-2.59-4.71-3.58-7.21c-1.52-3.84-2.46-7.82-3.12-11.88c-0.02-0.11-0.05-0.22-0.13-0.55
					c-0.21,0.44-0.36,0.71-0.47,0.99c-1.73,4.33-3.45,8.67-5.19,13c-0.74,1.84-1.57,3.63-2.78,5.22c-0.95,1.26-2.16,2.15-3.72,2.52
					c-1.91,0.46-3.63-0.02-5.22-1.05c-1.24-0.8-2.23-1.87-3.11-3.04c-1.64-2.18-2.74-4.63-3.5-7.22c-1.22-4.1-1.85-8.3-1.83-12.58
					c0.01-2.13,0.14-4.26,0.67-6.33c0.63-2.45,3.02-3.73,5.4-2.95c1.04,0.34,1.73,1.03,1.94,2.12c0.12,0.62,0.21,1.25,0.22,1.88
					c0.04,2.58,0.02,5.15,0.07,7.73c0.07,3.44,0.28,6.86,1.05,10.23c0.48,2.09,1.18,4.09,2.31,5.91c0.43,0.7,0.92,1.35,1.67,1.78
					c0.63-0.24,0.99-0.74,1.29-1.23c0.89-1.47,1.88-2.9,2.55-4.47c2.62-6.14,5.15-12.33,7.68-18.51c0.2-0.5,0.24-1.09,0.23-1.63
					c-0.03-2.47,0.06-4.93,0.72-7.33c0.65-2.37,2.63-3.63,5.02-3.26c1.35,0.21,2.28,0.93,2.56,2.3c0.18,0.88,0.32,1.77,0.37,2.65
					c0.27,4.32,0.45,8.65,0.76,12.97c0.16,2.22,0.52,4.43,0.79,6.65C149.24,251.12,149.33,251.12,149.42,251.13z"/>
				<path class="st0" d="M118.83,231.59c-1.61,0.02-2.82-0.92-3.22-2.59c-0.07-0.29-0.14-0.58-0.2-0.87
					c-0.33-1.6,0.23-2.95,1.54-3.76c1.41-0.87,3.22-0.84,4.42,0.1c1.06,0.82,1.61,1.95,1.78,3.25c0.11,0.85-0.25,1.61-0.79,2.26
					C121.46,231.04,120.29,231.53,118.83,231.59z"/>
			</g>
		</g>
	</g>
</g>
</svg>
