<?xml version="1.0" encoding="utf-8"?>
<!-- Generator: Adobe Illustrator 20.1.0, SVG Export Plug-In . SVG Version: 6.00 Build 0)  -->
<svg version="1.1" id="Calque_1" xmlns="http://www.w3.org/2000/svg" xmlns:xlink="http://www.w3.org/1999/xlink" x="0px" y="0px"
	 viewBox="0 0 432 432" style="enable-background:new 0 0 432 432;" xml:space="preserve">
<style type="text/css">
	.st0{fill:#CC7B26;}
	.st1{fill:#D60B52;}
	.st2{fill:#020203;}
</style>
<g>
	<g>
		<g>
			<path d="M135.7,92.7c0-1-0.1-1.9-0.2-2.7c-0.2-1-0.4-1.9-0.7-2.6c-0.9-1.8-2.3-2.7-4.4-2.7h-0.2c-0.4,0-0.8,0.1-1.2,0.1l-0.6,0.1
				l-0.6,0.1c-0.8,0.2-1.2,0.6-1.2,1.3l-0.3,13.1c-0.1,2.5-0.1,4.9-0.1,7.1c0,2.2,0,4.2,0.1,6c0.2,7,0.7,12.6,1.6,16.6
				c0.1,0.4,0.2,0.8,0.3,1.2c0.1,0.5,0.2,0.9,0.4,1.4c0.3,1.1,0.7,2,1.1,2.8c1.1,2.2,2.5,3.3,4.3,3.5h0.2c0.3,0,0.6-0.1,0.9-0.3
				c0.3-0.3,0.5-0.6,0.5-0.9c0.1-1.2,0.1-2.6,0.1-4.3l0-2.2v-2.1l0-13.5l0-11V92.7z"/>
			<path d="M166.8,109.8h-0.3c-0.6,0-1,0.3-1.1,1.1c-1.6,8.4-3.2,14.5-5.1,18.3c-0.2,0.4-0.4,0.8-0.7,1.2c-0.3,0.6-0.6,1.1-1,1.6
				c-0.9,1.2-1.7,1.9-2.4,1.9c-1,0-1.7-0.9-2.3-2.7c-0.2-0.6-0.4-1.4-0.5-2.2c-0.1-0.3-0.1-0.6-0.1-1c-0.1-0.3-0.1-0.5-0.1-0.8
				c-0.2-1.6-0.2-3.3-0.2-5.3c0-2.4,0.1-5.2,0.4-8.3c0.2-3,0.6-7.8,1.3-14.6c0.5-0.1,1-0.1,1.4-0.1h0.4c1.5,0.1,2.8,0.8,4,1.9
				c0.3,0.3,0.6,0.4,0.9,0.4c0.3,0,0.6-0.1,0.9-0.4c0.3-0.3,0.5-0.6,0.5-0.9c0-0.3-0.1-0.6-0.4-0.9c-1.7-1.8-3.8-2.6-6.2-2.6
				c-0.3,0-0.7,0-1,0c0.1-1.2,0.5-3.3,1-6.5c0-0.1,0-0.2,0-0.3c0-0.3-0.1-0.6-0.4-0.9c-0.1-0.1-0.3-0.2-0.5-0.3
				c-0.1-0.1-0.3-0.2-0.5-0.2c-0.6-0.3-1.2-0.5-1.8-0.6c-0.4-0.1-0.7-0.1-1-0.1c-0.6,0-1.2,0.1-1.7,0.4c-0.7,0.4-1.1,1-1.4,1.8v0.1
				c-0.1,0.4-0.2,0.7-0.2,1c-0.1,0.4-0.2,0.8-0.2,1.1c-0.2,0.9-0.4,1.8-0.5,2.6c-0.2,0.6-0.4,1.9-0.7,3.9c-0.8,0.2-1.5,0.3-2.1,0.3
				c-0.3,0-0.6,0-0.9-0.1c-1.2-0.2-2.2-1-3.1-2.3c-0.3-0.4-0.6-0.6-0.9-0.6c-0.3,0-0.5,0.1-0.8,0.3c-0.4,0.3-0.6,0.6-0.6,1
				c0,0.2,0.1,0.5,0.3,0.7c1.6,2.3,3.6,3.4,6.2,3.4c0.5,0,1.1,0,1.6-0.1c-1.1,6.9-1.6,13.3-1.6,19.1c0,1.5,0.1,3,0.2,4.3
				c0.7,8.5,3.7,12.7,9,12.7c3.3,0,6.1-2.3,8.3-6.9c1.9-4.1,3.7-10.4,5.3-19v-0.3C167.9,110.3,167.5,109.9,166.8,109.8z"/>
			<path d="M184.8,99.6c0.4,0.1,0.7,0.1,1.1,0.1c0.9,0,1.7-0.2,2.5-0.7c1.2-0.7,2-1.7,2.4-3.2c0.1-0.4,0.2-0.8,0.2-1.2
				c0-0.7-0.2-1.4-0.5-2.1c-0.6-1.2-1.6-1.9-3.1-2.2c-0.3-0.1-0.7-0.1-1-0.1c-1.1,0-2.1,0.3-3,1c-1.1,0.8-1.7,1.7-2,2.9
				c-0.1,0.5-0.2,1-0.2,1.4c0,0.9,0.2,1.6,0.7,2.3C182.5,98.8,183.5,99.4,184.8,99.6z"/>
			<path d="M230.6,109.8h-0.3c-0.7,0-1,0.3-1.1,1.1c-1.2,8.6-4.6,15.9-10.2,21.9c0.1-0.4,0.1-0.9,0.1-1.4c0-3.2-1.9-7.5-5.8-12.8
				l-1.1-1.4l-1.1-1.4c-0.8-1.1-1.4-2-1.8-2.7c-1.2-1.9-1.8-3.6-1.8-4.9c0-2.1,1.8-3.2,5.5-3.2h0.5c0.8,0,1.2-0.4,1.2-1.2v-0.1
				c0-0.8-0.4-1.2-1.2-1.2h-0.7c-3.1,0-5.7,0.5-7.7,1.5c-2.9,1.4-4.3,3.8-4.3,7.1c0,0.7,0.1,1.4,0.2,2c-0.8,5.4-1.8,10.2-3,14.4
				c-1.6,5.4-3,8.1-4.4,8.1c-0.5-0.8-1-3.1-1.4-6.9c-0.1-1.2-0.3-2.6-0.4-4.2c0-0.3,0-0.5,0-0.9c0-0.2-0.1-0.5-0.1-0.8
				c-0.1-0.6-0.1-0.9-0.1-1.1l-0.2-2.5l-0.3-2.6c-0.2-1.9-0.5-3.6-0.9-5c-0.2-0.7-0.3-1.3-0.5-1.8c-0.2-0.7-0.5-1.4-0.7-1.9
				c-0.7-1.4-1.6-2.2-2.7-2.6c-0.3-0.1-0.6-0.2-1-0.2c-0.5,0-1,0.2-1.6,0.5c-0.5,0.3-0.9,0.6-1.3,1.1c-0.9,1-1.4,2.3-1.4,3.7
				c0,0.2,0,0.5,0,0.7c0,0.2,0.1,0.4,0.2,0.5c0.6,1.1,1.1,3.1,1.4,5.8c0.1,0.9,0.3,2,0.4,3.4l0.1,0.8l0.1,0.7c0.1,0.5,0.1,1,0.1,1.2
				c0.2,1.6,0.4,3.2,0.7,4.8c0.4,2.1,0.9,3.9,1.5,5.5c1.6,4.2,3.6,6.3,6.2,6.3h0.1c4-0.1,7.1-4.2,9.4-12.3c0.8-2.7,1.4-5.8,2-9.4
				c0.8,1.3,1.9,2.8,3.4,4.6l1.1,1.3l1.1,1.3c0.8,1,1.4,1.8,1.9,2.5c1.2,1.8,1.8,3.3,1.8,4.6c0,1.9-0.7,3.2-2.1,4l-0.8,0.4
				c-0.3,0.2-0.5,0.3-0.7,0.4c-0.4,0.3-0.6,0.8-0.6,1.4c0,0.3,0.2,0.5,0.5,0.7c0.2,0.1,0.5,0.2,0.9,0.2c5.6,0,10.6-3.5,15-10.4
				c3.7-5.8,6-11.9,6.9-18.3c0-0.1,0-0.2,0-0.3C231.7,110.3,231.3,109.9,230.6,109.8z"/>
			<path d="M308.5,109.8h-0.3c-0.6,0-1,0.3-1.1,1.1c-0.2,1.2-0.4,2.4-0.7,3.5c-0.4,1.5-0.8,2.7-1.3,3.9c-1.4,3-3.2,4.5-5.5,4.5
				c-0.5,0-0.9,0-1.4-0.1c0.2-1.5,0.4-2.9,0.4-4.4c0-1.2-0.1-2.4-0.2-3.6c-0.2-1.5-0.5-2.9-0.8-4.2c-1-3.3-2.6-5.2-4.6-5.8l-0.1,0
				c0-0.2-0.1-0.4-0.2-0.6c-0.5-1-1.4-1.7-2.7-2.2c-1.1-0.4-2.2-0.6-3.5-0.6c-3,0-5.4,1.5-7.1,4.6c-1.5,2.7-2.3,6.1-2.3,10.3
				c0,0.5,0,1,0,1.4c-0.8,4.7-1.6,8.7-2.4,12c-1.4,5.5-2.6,8.3-3.6,8.3c-0.9,0-1.4-1.8-1.6-5.3c-0.1-1.2-0.1-3-0.2-5.4v-1.5l0-1.5
				l-0.1-3.2c-0.2-5.1-0.6-9-1.3-11.5c-1-3.5-2.5-5.2-4.7-5.2c-1,0-2,0.6-3,1.8c-0.4,0.5-0.7,1-1.1,1.7c-0.1,0.2-0.3,0.5-0.4,0.8
				c-0.1,0.2-0.3,0.4-0.4,0.7c-1.2,2.5-2.5,5.8-3.8,9.9c-0.6,2-1.2,3.9-1.6,5.6l-0.2-2.3c-0.5-4-1.1-7.1-1.8-9.4
				c-0.2-0.6-0.4-1.1-0.6-1.6c-0.3-0.6-0.5-1.2-0.9-1.6c-0.8-1.2-1.7-1.8-2.8-1.8c-0.7,0-1.4,0.3-2.2,0.8c-0.7,0.4-1.2,1-1.7,1.6
				c-0.1,0.2-0.2,0.4-0.2,0.7c0,0.2,0.1,0.4,0.2,0.6c1.1,2,1.9,5.8,2.5,11.3c0.2,2.1,0.4,4.3,0.5,6.7c0.1,1.9,0.2,3.7,0.2,5.2
				c0,0.8,0.3,1.5,1,1.9c0.6,0.4,1.3,0.6,2.1,0.6h0.2c0.9,0,1.8-0.3,2.5-0.9c0.8-0.6,1.4-1.6,1.8-2.7v0c0.1-0.2,0.1-0.4,0.2-0.7
				c0.6-3.6,1.7-7.9,3.3-13c0.2-0.7,0.9-2.4,1.9-5.2c1.1-2.9,1.7-4.3,1.8-4.3c0.2,0,0.4,0.2,0.6,0.7c0.1,0.2,0.1,0.3,0.2,0.5
				l0.1,0.3l0,0.2c0.3,1.1,0.4,2.5,0.5,4.3c0,0.6,0,1.3,0,2.1v2.9l0,1.7l0,1.2v1.3c0,1,0,1.9,0.1,2.8c0.2,2.2,0.5,4.1,0.9,5.6
				c1.2,4.2,3.6,6.3,7.3,6.3c1.8,0,3.4-1.3,4.8-4c0.5-0.9,0.9-2,1.3-3.3c0.2-0.4,0.3-0.9,0.4-1.4c0.1-0.2,0.1-0.4,0.2-0.6l0.1-0.3
				l0.1-0.2c0.5-1.7,0.9-3.6,1.3-5.7c0.4,1.4,0.9,2.7,1.6,3.9c2.1,4,4.7,6,7.9,6c2.6,0,4.8-1,6.5-3c1.5-1.7,2.6-3.9,3.4-6.7
				c0.6,0.1,1.2,0.2,1.9,0.2l0.7,0c2.8-0.3,5-2.1,6.7-5.3c0.6-1.2,1.2-2.7,1.6-4.4c0.4-1.3,0.6-2.7,0.9-4.2V111
				C309.6,110.3,309.3,110,308.5,109.8z M294.8,126.2c-0.3,0.8-0.6,1.4-0.9,2c-0.9,1.5-1.9,2.3-3.1,2.3c-2.1,0-3.7-1.5-4.8-4.6
				c-1-2.6-1.4-5.9-1.4-9.8c0-3.3,0.4-6.1,1.1-8.4c0.8-2.5,1.8-3.7,3.1-3.7c0.2,0,0.4,0.1,0.7,0.2c0.2,0.1,0.4,0.3,0.5,0.4
				c-1.2,0.4-2.1,1.2-2.8,2.5c-0.6,1.1-1,2.4-1,3.9c0,2.8,0.9,5.5,2.6,8.1c1.7,2.5,3.9,4.3,6.6,5.4
				C295.2,125.1,295,125.7,294.8,126.2z M295.9,121.9c-2.1-0.9-3.8-2.4-5.1-4.5c-1.4-2.1-2-4.2-2-6.5c0-1,0.2-1.9,0.7-2.7
				c0.5-0.9,1.3-1.4,2.3-1.4c0.2,0,0.4,0,0.6,0.1c0.6,0.2,1.2,0.7,1.7,1.5c0.4,0.6,0.7,1.3,1.1,2.1c0.8,2.1,1.1,4.7,1.1,7.6
				C296.2,119.5,296.1,120.7,295.9,121.9z"/>
		</g>
		<g>
			<path d="M136.4,173.5c0.1-1-0.1-1.8-0.2-2.6c-0.2-1.1-0.6-2.2-0.8-3.4c-0.1-0.4-0.3-0.7-0.4-1.1c-1-2-2.5-3.4-4.3-4.1
				c-0.7-0.3-1.4-0.4-2.1-0.8c0.2-0.1,0.3-0.3,0.4-0.3c1-0.4,1.8-1,2.7-1.7c0.9-0.5,1.5-1.5,1.9-2.6c0.2-0.6,0.3-1.1,0.2-1.6
				c-0.1-0.4-0.1-1-0.1-1.3c-0.2-1.2-0.4-2.4-1.1-3.2c-0.8-1-2.3-3.1-6.2-3.2c-2.6-0.1-8,0.6-10.2,1.6c-0.3,0.3-0.6,0.4-0.9,0.6
				c-0.3,0.3-0.3,1,0.1,1.1c0.5,0.3,0.8,0.1,1.3,0.1c0.5-0.1,1.1-0.1,1.8-0.2c0.1,0.4,0.1,0.6,0.1,0.8c-0.1,1.3-0.1,2.7-0.3,4
				c-0.3,3.8-0.3,7.5-0.5,11.2c-0.1,1.6-0.1,3.3-0.1,4.9c-0.1,3.4-0.2,6.8-0.2,10.3c0.1,0.6,0,1.2-0.1,1.9c-0.1,1-0.3,1.1-0.9,1.1
				l-1.6,0.2c-0.5,0.1-0.7,0.4-0.5,0.9c0.4,0.9,1,1.2,1.7,1.2c1.3-0.1,2.6,0.2,3.8,0.6c0.4,0.1,0.8,0.3,1.2,0.2c0.3,0,0.6,0,0.8,0.1
				c1.8,0.3,3.4,0.1,5.1-0.3c0.5-0.2,1.1-0.3,1.6-0.6c0.8-0.4,1.6-1.1,2.5-1.6c0.7-0.3,1.3-1,1.8-1.7c0.4-0.6,1-1.2,1.5-1.9
				c0.7-1,1.5-2,1.6-3.4l0.2-0.6c0.3-1.3,0.4-2.7,0.3-4C136.4,173.8,136.4,173.7,136.4,173.5z M122,150c2.1-0.6,4-0.7,5.9,0.2
				c0.5,0.4,0.8,0.8,0.9,1.4c0.1,0.8,0.1,1.6,0.1,2.5c-0.1,1.5-0.6,2.9-1.4,4.2c-1,1.7-2.3,2.6-2.8,2.9c-0.7,0.3-1.4,0.4-2.1,0.7
				c-0.4,0.1-0.6-0.1-0.6-0.5c0-1.5,0-3-0.1-4.5c0.1-1.6,0.2-3.3,0.2-4.9C122.1,151.4,122,150.8,122,150z M130.4,178.8l-0.4,0.8
				c-0.5,1-1.1,2.1-1.7,3.1c-0.3,0.4-0.6,0.7-1,1.1c-0.9,0.5-1.8,1-2.7,1.3c-0.6,0.1-1.3,0.2-1.9,0.3c-0.6,0.1-1.1,0.2-1.7-0.1
				c0-0.1-0.1-0.4-0.1-0.6c-0.1-0.4-0.1-0.8-0.1-1.3l0.4-7.3c0-1,0.1-2,0.1-3v-1.3c0.1-2.2,0.2-4.5,0.3-6.6c0-0.5,0-1,0.1-1.6
				c1.1,0.4,2.2,0.1,3.1-0.2c0.4-0.1,0.8-0.1,1-0.1c1.1,0.1,2,0.4,3,0.8c0.5,0,0.8,0.4,1,0.9c0.6,1.5,1.1,2.9,1.3,4.5
				C131.8,172.6,131.2,175.8,130.4,178.8z"/>
			<path d="M159.6,184.2l-0.8,0.1c0.1-0.4,0.1-0.6,0.1-1l0.3-2.6c0-0.7,0.1-1.5,0.1-2.3c-0.1-1,0.1-1.9-0.1-2.9
				c-0.2-1.1,0.1-2.4-0.1-3.6c0.3-1.9,0-3.8-0.1-5.7l-0.4-7.3c0-3-1-5.7-2.3-8.3c-0.3-0.8-0.9-1.4-1.4-1.9c-0.6-0.8-1.5-1.1-2.4-1
				c-1.3,0.1-2.7,0.4-3.8,1.5c-1.6,1.5-3,3.1-3.8,5.2c-1.1,2.6-2,5.3-2.6,8.1c-0.3,1.3-0.4,2.7-0.7,4c-0.5,3.1-1,6.2-1.3,9.3
				c-0.1,1.1-0.3,2.2-0.3,3.2c0,1.9,0,3.5,0.1,5.2c-0.1,0.3-0.1,0.6-0.1,0.9c-0.3,0.1-0.4,0.1-0.6,0.2c-0.4,0.2-1,0.4-1.4,0.7
				c-0.2,0.1-0.3,0.5,0,0.7c0.1,0.2,0.3,0.3,0.5,0.4c0.8,0.4,1.5,0.4,2.3,0.4c0.6,0.1,1.3,0,1.9,0.2c0.6,0.3,1.9-0.2,2-0.9
				c0.1-0.5-0.1-0.8-0.6-1c-1.2-0.4-0.4-1-0.3-3.3c0-0.9,0-1.8,0.1-2.7c0.1-0.8,0.2-1.4,0.2-2.2c0.1-1.4,0.3-2.6,0.4-4
				c0.3-1.3,0.5-2.6,0.8-4c0.1-0.8,0.2-1.5,0.6-2.3c0.4-0.1,0.8-0.2,1.3-0.3c1.8-0.1,3.6-0.1,5.4-0.6h0.4c0.3-0.1,0.7,0.2,0.7,0.5
				c0.1,0.7,0.1,1.5,0.1,2.1c0,1.3,0.1,2.7,0.1,3.9c0.1,1.8,0.1,3.5,0.1,5.2c0.1,2.4-0.2,4.8,0.6,7.1c-0.4,0.1-0.7,0.3-0.9,0.5
				c-0.4,0.3-0.3,0.8,0,0.9c0.4,0.3,1,0.5,1.5,0.5l4.1-1.3c0.1,0,0.3-0.1,0.5-0.1c0.5-0.1,0.8-0.5,0.8-1
				C160.3,184.5,160,184.2,159.6,184.2z M153.5,164.1c-1.3,0.3-2.4,0.4-3.5,0.6c-1.1,0.2-2.3,0.4-3.4,0.6c-0.1-0.1-0.3-0.1-0.3-0.3
				c-0.1-1.5-0.1-3.1,0.3-4.7c0.2-0.8,0.3-1.6,0.4-2.4c0.2-0.9,0.2-1.9,0.4-2.6c0.1-1.1,0.7-2.2,1.3-3.1c0.4-0.7,1.1-1.4,1.7-2
				c0.3-0.3,0.9-0.2,1.1,0.3c0.8,2.1,1.7,4.3,1.7,6.6c0.1,1.9,0.3,3.8,0.3,5.7C153.5,163.3,153.5,163.7,153.5,164.1z"/>
			<path d="M184.3,154.4l-0.5-0.8c-4.8-6.3-11.2-6.3-16.5-6.1c-1.5,0-2.9,0.4-4.4,1.2c-0.2,0.1-0.4,0.2-0.6,0.4
				c-0.4,0.3-0.6,0.5-0.4,0.7c0.2,0.1,0.4,0.3,0.6,0.3c0.7,0.1,1.5,0.2,2.2,0.1c0.3,0,0.6,0,0.8,0.3c0,0.2,0.1,0.5,0.1,0.8
				c-0.1,1.1-0.1,2.1-0.1,3.3c0.1,2.4-0.5,15-0.6,17.1c0,0.1,0,0.3,0.1,0.4c0,2.4,0.1,10.4,0.1,10.7c0,0.6-0.1,1.2,0,1.7
				c-0.7,0.5-1.5-0.1-2.2,0.2c0,0.2,0.1,0.4,0.1,0.5c0.4,0.3,0.8,0.5,1.1,0.8c0.6,0.3,1.1,0.7,1.9,0.8c1.7,0.3,3.6,0.2,5.2-0.6
				l2.7-1.1c0.4-0.2,0.9-0.4,1.3-0.6c1-0.5,4.7-3.4,5.4-4.2c1-1.2,1.9-2.4,2.7-3.5c0.4-0.8,0.8-1.6,1.2-2.4c0.6-1.2,1-2.4,1.1-3.6
				c0.3-1.1,0.4-2.4,0.6-3.6c0.2-1,0.4-1.9,0.4-2.9c-0.1-2-0.1-4.1-0.5-6.1C185.5,156.8,185,155.5,184.3,154.4z M174.1,180.9
				c-1.2,0.8-2.4,1.6-3.7,2.1c-0.4,0.1-0.6,0.1-1.1,0.4c-0.2-1.2-0.3-2.2-0.3-3.2c0-0.3,0.1-0.8,0-1.1c0-1.7-0.1-3.4-0.1-5.2
				c0-3.4-0.1-6.7,0.1-10.1c0.2-1.9,0.1-3.8,0.2-5.7c0.1-2.4,0.2-4.7,0.3-7.1c0-0.2,0.1-0.4,0.1-0.7c0.1-0.2,0.3-0.3,0.4-0.4
				c0.4,0,0.7-0.1,1-0.1c1.7,0.2,3.4,0.5,5,1.3c0.4,0.3,0.8,0.6,1.3,0.9c3.8,2.2,4.1,7.7,4.1,10.5
				C181.4,166.4,179.7,177.9,174.1,180.9z"/>
			<path d="M218.5,149l-0.5-0.2c-0.4-0.1-0.8-0.2-1.1-0.2c-0.3,0-0.7-0.1-1.1-0.1c-1.7,0.1-3.3,0.2-5,0.3c-0.1,0-0.3,0.1-0.4,0.1
				c-1,0.1-2.1,0.1-3.1,0.3c-0.6,0.1-1.1,0.1-1.7,0.3c-1.3,0.3-2.6,0.4-3.8,0.6c-0.6,0.1-1.1,0.2-1.6,0.4c-0.3,0.1-0.6,0.5-0.7,0.9
				c0.1,0.7,0,1.5,0.1,2.2c0,0.3,0.3,0.4,0.4,0.4c0.6,0.1,1-0.1,1-0.6c0.1-0.5,0.1-1.1,0.4-1.5c0.7-0.3,1.5-0.4,2.4-0.4
				c0.6,0,1.4-0.1,2.2,0.1c0.1,0.2,0.1,0.4,0.1,0.7c-0.1,1.3-0.3,2.7-0.2,3.9c0,1.3-0.3,2.6,0,3.9c0,0.1,0,0.3-0.1,0.5
				c0,0.7-0.1,1.5-0.1,2.2v1.3c-0.1,1.3-0.1,2.7-0.2,4.2c-0.1,1.2-0.3,2.4-0.3,3.6c-0.1,1-0.2,2-0.1,3c0,1.1,0.1,2.3,0.1,3.4
				c0.1,0.8,0.1,1.5,0.1,2.2c-0.1,0.9-0.1,1.9,0,2.7c0.2,0.4,0.1,0.9,0.1,1.3c0,0.3-0.3,0.5-0.6,0.6c-0.3,0-0.5,0.2-0.7,0.3
				c-0.2,0.1-0.6,0.1-0.8,0.1c-0.4,0.1-0.5,0.4-0.3,0.8c0.3,0.4,0.8,0.7,1.2,0.8c0.9,0.1,1.7,0.3,2.5,0.2c0.8,0,1.7-0.1,2.6,0.1
				c0.8,0.1,1.5-0.1,1.9-0.7c0.2-0.2,0.3-0.4,0.3-0.6c-0.1-0.3-0.3-0.4-0.6-0.4c-0.4,0-0.6,0.1-1,0.1c-0.4,0-0.5-0.2-0.6-0.4
				c0.2-1.3,0.3-2.5,0.1-3.8c0-0.1,0.1-0.3,0.1-0.4c0.1-0.7,0.1-1.4,0.1-2c0.1-0.7-0.1-1.3,0.1-1.9c0.1-1.3,0.1-2.4,0.3-3.6l0.3-3.5
				l0.2-3.3c0.1-0.2,0.1-0.4,0.1-0.7c0-0.6,0-1.1,0.1-1.7c0.1-1.3,0.2-2.5,0.3-3.8c0.2-2.2,0.3-4.5,0.3-6.8
				c-0.1-0.8-0.1-1.7-0.4-2.4v-0.3c0.1-0.1,0.2-0.2,0.3-0.2c1.5-0.2,3-0.3,4.5-0.4c0.3-0.1,0.4,0,0.6,0c0.4,1.1,0.4,1.2,1.4,1.9
				c0.1,0.1,0.1,0.2,0.2,0.2c0.4,0.3,0.8,0.3,1-0.1c0.2-0.3,0.4-0.6,0.4-0.9c0-0.5,0.1-1.1,0.2-1.8C219.4,149.4,219.1,149,218.5,149
				z"/>
			<path d="M242.3,148.5c-0.8-0.2-1.7-0.2-2.4-0.2c-0.7,0-1.3,0.2-1.9,0.3c-0.2,0.1-0.3,0.4-0.1,0.5c0.5,0.5,1,0.9,1.6,1.3v1.5
				c-0.1,1.3-0.1,2.8-0.2,4.1c-0.1,1.3-0.4,4.6-0.6,6c-0.1,0.8-0.4,1-1.3,1.1h-0.3c-2.9,0.1-3.3,0.1-6.1,0.4h-0.5
				c-0.9,0-1.9,0.1-2.7,0.1c-0.3,0-0.6-0.1-0.7-0.1c-0.1-0.2-0.1-0.3-0.1-0.3c0.1-1.5,0.3-4.9,0.3-6.3c-0.1-0.7,0-1.2,0-1.9
				c0-1.3,0.4-2.7,0.3-4.1c0.4,0,1.1-0.2,1.5-0.3c0.3-0.1,1.4-0.6,1.5-1c0.1-0.2-0.1-0.4-0.7-0.6c-0.6-0.2-1.3-0.4-2-0.3
				c-1,0.4-2,0.4-3,0.3c-0.3,0-0.7-0.1-1.1-0.1c-0.3,0-0.6,0.1-0.9,0.1c-0.5,0.1-1,0.4-1,0.6c0.1,0.4,0.4,0.5,0.7,0.7
				c0.6,0.3,0.9,0.8,0.8,1.4c0,0.3,0.1,0.4,0,0.7c-0.1,2-0.2,4.1-0.4,6.2c-0.4,5.2-0.7,8.5-0.6,9.9c0.1,3-0.3,5.9-0.2,8.9
				c0.1,1.5,0.1,3.2,0.1,4.8c0,1.1,0.1,2.4,0.6,3.4c0.1,0.2,0,0.4,0,0.6c-0.4,0.2-1,0.3-1.3,0.4c-0.4,0.1-0.7,0.4-0.6,0.6
				c0.2,0.4,0.6,0.4,0.8,0.4c1.7,0.1,3.3,0.3,5,0.3c0.8,0,1.2-0.5,1.6-1.1c-0.5-0.7-1.5-0.4-2.2-1.1c0.1-0.3,0.1-0.6,0.3-1
				c0.3-1,0.4-2.1,0.3-3.2l0.1-4.7c0.1-1.2,0.1-2.4,0.1-3.6l0.2-3.6c0-1.1,0.2-2.2,0.3-3.3c0.1-0.9-0.1,0.1,0-0.7
				c0-0.1,0.1-0.2,0.1-0.3c0-0.1,0.1-0.1,0.2-0.1c1.7-0.2,3.4-0.3,5.2-0.4h4.3c0.4,0,0.7,0.1,1.1,0.1c0.3,0.1,0.4,0.3,0.4,0.5
				c0,0.1,0,0.4,0.1,0.6c-0.2,1.6-0.1,1.2-0.1,2.7c-0.1,0.8-0.1,1.4-0.1,2.1l-0.2,6.5c0.1,2.8-0.3,5.4,0.4,8.1
				c0,0.1-0.1,0.2-0.1,0.3c-0.1,0.1-0.3,0.1-0.4,0.1c-0.3,0.1-0.6,0.3-0.5,0.6c0.1,0.3,0.3,0.4,0.5,0.4c0.1,0.1,0.2,0.1,0.3,0.1
				c1.4,0.3,2.8,0.2,4.2,0.1c0.5-0.1,1-0.3,1.6-0.4c0.2-0.1,0.3-0.3,0.4-0.3c0.1-0.2,0.1-0.6-0.1-0.6c-0.3,0-0.5-0.1-0.8-0.2
				c-0.6-0.1-1.2-0.1-1.8-0.1c0-0.5,0.1-0.9,0.1-1.3c0-3.2,0.4-6.2,0.3-9.4c0-0.5,0.1-1.1,0.1-1.8c0.1-1.9,0.3-3.8,0.5-5.8
				c0.1-0.8-0.2,0.3-0.1-0.5c0.3-1.8,0.6-3.5,0.6-5.2c0-0.6,0.3-3.1,0.3-3.7c0.1-2,0.4-4.1,0.3-6.1c0-0.4-0.1-1,0.3-1.4l1.4-0.5
				c0.2-0.1,0.3-0.3,0.5-0.5c-0.3-0.3-0.5-0.5-0.8-0.6C244.1,148.7,243.2,148.5,242.3,148.5z"/>
			<path d="M257.4,149.3c-0.4-0.1-0.6-0.3-1-0.3c-1-0.1-2-0.3-2.9-0.3c-1.3,0-2.5,0.2-3.6,0.3c-0.6,0-1,0.3-1.4,0.7
				c-0.2,0.2-0.1,0.7,0.1,0.8c0.4,0.1,0.8,0.3,1.1,0.2h1.7v2c-0.1,0.6-0.2,1.3-0.2,2c-0.2,2.2-0.3,4.7-0.3,6.8
				c0,0.9-0.1,1.7-0.1,2.5c-0.1,2-0.1,4.1-0.1,6.1c-0.1,2.6,0.1,5.1,0.1,7.7c0,1.5-0.1,3.1,0,4.6c0,0.8-0.1,1.5-0.4,2.3
				c-0.1,0.4-0.3,0.8-0.7,0.8l-1.2,0.4c-0.1,0.1-0.1,0.4,0,0.5c0.2,0.4,0.8,0.7,1.3,0.7c0.8-0.1,2.6,0.1,3.4,0.1
				c0.6-0.1,1.1,0,1.7-0.2c0.3-0.1,0.6-0.1,0.8-0.3c0.1-0.2,0.3-0.3,0.2-0.6l-0.4-0.3c-0.4-0.1-0.8,0.1-1.2-0.1
				c0.1-0.1,0.2-0.4,0.1-0.5c0.1-0.8,0.3-1.4,0.3-2c0.1-0.6,0-1.3-0.1-2l-0.1-5.1c0.1-1.1,0.1-2.1,0.1-3.1c0.1-1.3,0-2.8,0-4.1
				c0.1-1.7,0.2-3.4,0.3-5.1c0.1-0.9,0.1-1.9,0.1-2.8c0-1.3,0-2.6,0.2-4c0.1-0.4,0.1-0.9,0.1-1.2c0.1-0.4,0-0.8,0.1-1.2
				c0.1-0.6,0.1-1.1,0.1-1.7c-0.1-0.3-0.1-0.8,0-1.2c-0.1-0.8,0.1-0.9,1.1-1c0.2,0,0.4,0.1,0.6,0.1c0.1,0,0.3-0.2,0.4-0.2
				c0.4-0.1,0.6-0.8,0.3-1C257.7,149.5,257.5,149.3,257.4,149.3z"/>
			<path d="M288.7,148.9c-0.9-0.3-1.9-0.2-2.9-0.1c-0.3,0.1-0.5,0.1-0.8,0.1c-1.1,0-2.1,0.4-3.2,0.6c-0.4,0.1-0.6,0.3-0.9,0.5
				c-0.3,0.3-0.2,0.8,0.2,0.8c0.2,0.1,0.4,0.1,0.6,0.1c0.4,0.1,0.5,0.3,0.6,0.8c-0.1,0.1-0.1,0.1-0.1,0.3c-0.4,11-0.4,12.3-0.4,13.5
				c-0.1,0.6,0,1.2,0,1.7c0,0.6-0.1,1.1,0,1.6c0.1,2.6-0.1,5-0.1,7.5c0,0.2-0.1,0.3-0.1,0.8l-0.5-0.8c-0.4-1-1-2-1.4-2.9
				c-0.3-0.7-0.5-1.5-0.8-2.2c-0.3-0.6-0.6-1.5-1-2.2c-0.4-1-2.7-6.3-3.4-7.5c-1.3-2-2.2-4.1-3.1-6.3c-0.6-1.7-1.4-3.1-2.2-4.7
				c-0.9-1.9-1.8-0.8-3-1l-2.6,0.2c-1,0-1.1,0.8-1.3,1c-0.4,0.6-0.1,1.6,1,1.5c0.3,0,0.5-0.1,0.7-0.1c0.4,0.1,0.6,0.3,0.6,0.7
				c0,1,0.1,2,0.1,3c0,3-0.1,6.1-0.3,9.1c-0.2,2.2-0.4,4.5-0.2,6.7l-0.1,0.3c-0.1,1.8-0.2,3.7-0.2,5.6c0,1.7-0.1,3.4-0.2,5.2
				c0,0.9,0,1.6-0.1,2.3c-0.4,0.4-1,0.6-1.2,0.9c-0.4,0.4-1.4,0.6-1.5,0.8c-0.1,0.2,0,0.6,0.2,0.7c0.2,0.2,0.4,0.2,0.7,0.2
				c0.3-0.1,0.7-0.2,1.1-0.3c0.8-0.2,1.5-0.2,2.4,0c1.1,0.3,2-0.3,2.1-1.5c0.1-1.1,0.3-2,0.1-3.1v-0.6c0.1-1.2,0.3-2.3,0.3-3.5
				c0.1-2.4,0.3-4.7,0.3-7.1c0.1-2.4,0.2-4.8,0.2-7.3c0.1-2,0.2-4.1,0.3-6.1c0-0.1,0.1-0.2,0.3-0.3c0.3,0.6,0.7,1.1,0.9,1.8
				c0.8,1.5,1.5,3.1,2.2,4.7c0.5,1,1,2,1.5,3.1c0.9,1.8,1.8,3.8,2.5,5.7l3.7,10c0.6,0.9,1.3,1.8,2,2.7c0.3,0.5,0.8,0.8,1.5,0.8
				c0.6,0.1,1-0.1,1.2-0.7c0.2-0.4,0.7-5.5,0.8-7.9c0-1.2-0.3-2.6,0.7-13.4l0.2-4.1c0-1.1-0.1-2.1-0.1-3.2c-0.1-0.4,0-0.8,0-1.3
				c-0.3-1.7,0.2-3.5-0.3-5.2c0.2-0.1,0.3-0.1,1.3-0.1c0.8-0.1,1.4-0.4,1.9-0.7c0.3-0.1,0.4-0.4,0.3-0.8
				C289.1,149.2,288.9,149,288.7,148.9z"/>
			<path d="M314.5,167.9c-0.4-0.1-5.6-0.5-7.2-0.4c-0.3,0-0.6,0.1-0.8,0.2c-0.3,0.2-0.6,0.4-0.6,0.8c0,0.3,0.4,0.6,0.8,0.8
				c0.4,0.1,0.7,0.2,1.1,0.2c0.5,0.1,1.1,0.1,1.6,0.1c0.3,0,0.5,0.1,0.8,0.1c0.2,0.7,0.1,1.4,0,2.2c-0.3,1.6-2.2,9.4-4.5,11.5
				c-0.8,0.7-2.3,1.3-3.6,0.8c-0.2-0.2-0.5-0.2-0.7-0.3c-1.1-0.4-2-1.1-2.6-2.2c-0.4-0.8-0.8-1.6-1.1-2.6c-1-3.2-1.4-6.4-1.3-9.8
				c0.1-1.3,0.2-2.6,0.2-4c0-1.7,0.2-3.6,0.5-5.4c0.3-1.9,1.7-9.8,8.1-9.5c0.2,0,0.3-0.1,0.6-0.1c0.9,0.1,1.5,0.3,2.2,0.9
				c0.4,0.4,0.7,1,0.6,1.6c0,0.1-0.1,0.4,0,0.6c0.1,1.1,1.2,1.9,2.2,1.5c0.2-0.2,0.4-0.4,0.5-0.5c0.2-0.4,0.4-0.8,0.4-1.1
				c0.1-1,0.1-2,0.3-3.1c0-0.2-0.1-0.6-0.3-0.8c-0.4-0.4-1-0.9-1.6-0.9c-0.7,0-0.9,0.6-1.1,1.1c0,0.1-0.1,0.1-0.3,0.3l-1.2-0.8
				c-0.6-0.3-1.2-0.6-2-0.6c-11.6-1.3-13.7,11-14.1,13.7c-0.3,2.2-0.6,4.4-0.8,6.6c-0.1,1-0.1,1.8-0.1,2.8c0.1,2.4,0.4,4.8,1.3,7
				c0.7,1.9,1.3,3.6,2.6,5.2c1.3,1.5,2.7,2.7,4.3,3.7c3,1.7,7.8-0.6,8.4-1.8c0.3-0.4,0.5-0.8,0.9-1.2c0.8-1.2,1.6-2.4,2.1-3.8
				c0.3-0.8,1.3-4.6,1.5-5.7c0.1-0.6,0.3-3.2,0.5-3.9c0.3-0.6,0.2-1.3,0.3-1.8c-0.3-0.2,1.1,0.4,2.5,0c0.1-0.1,0.1-0.2,0.1-0.4
				C315.2,168.4,315.2,168.1,314.5,167.9z"/>
		</g>
		<g>
			<path d="M120.1,217.3h-0.3c-0.6,0-1,0.3-1.1,1.1c-0.2,1.2-0.4,2.4-0.7,3.5c-0.4,1.5-0.8,2.7-1.3,3.9c-1.4,3-3.2,4.5-5.5,4.5
				c-0.5,0-0.9,0-1.4-0.1c0.2-1.5,0.4-2.9,0.4-4.4c0-1.2-0.1-2.4-0.2-3.6c-0.2-1.5-0.5-2.9-0.8-4.2c-1-3.3-2.6-5.2-4.6-5.8l-0.1,0
				c0-0.2-0.1-0.4-0.2-0.6c-0.5-1-1.4-1.7-2.7-2.2c-1.1-0.4-2.2-0.6-3.5-0.6c-3,0-5.4,1.5-7.1,4.6c-1.5,2.7-2.3,6.1-2.3,10.3
				c-1.3,5.7-2.6,10.1-4,13.1c-0.2,0.4-0.4,0.8-0.7,1.2c-0.3,0.6-0.6,1.1-1,1.6c-0.9,1.2-1.7,1.9-2.4,1.9c-1,0-1.7-0.9-2.3-2.7
				c-0.2-0.6-0.4-1.4-0.5-2.2c-0.1-0.3-0.1-0.6-0.1-1c-0.1-0.3-0.1-0.5-0.1-0.8c-0.2-1.6-0.2-3.3-0.2-5.3c0-2.4,0.1-5.2,0.4-8.3
				c0.2-3,0.6-7.8,1.3-14.6c0.5-0.1,1-0.1,1.4-0.1h0.4c1.5,0.1,2.8,0.8,4,1.9c0.3,0.3,0.6,0.4,0.9,0.4c0.3,0,0.6-0.1,0.9-0.4
				c0.3-0.3,0.5-0.6,0.5-0.9c0-0.3-0.1-0.6-0.4-0.9c-1.7-1.8-3.8-2.6-6.2-2.6c-0.3,0-0.7,0-1,0c0.1-1.2,0.5-3.3,1-6.5
				c0-0.1,0-0.2,0-0.3c0-0.3-0.1-0.6-0.4-0.9c-0.1-0.1-0.3-0.2-0.5-0.4c-0.1-0.1-0.3-0.2-0.5-0.2c-0.6-0.3-1.2-0.5-1.8-0.6
				c-0.4-0.1-0.7-0.1-1-0.1c-0.6,0-1.2,0.1-1.7,0.4c-0.7,0.4-1.1,1-1.4,1.8v0.1c-0.1,0.4-0.2,0.7-0.2,1c-0.1,0.4-0.2,0.8-0.2,1.1
				c-0.2,0.9-0.4,1.8-0.5,2.6c-0.2,0.6-0.4,1.9-0.7,3.9c-0.8,0.2-1.5,0.3-2.1,0.3c-0.3,0-0.6,0-0.9-0.1c-1.2-0.2-2.2-1-3.1-2.3
				c-0.3-0.4-0.6-0.6-0.9-0.6c-0.3,0-0.5,0.1-0.8,0.3c-0.4,0.3-0.6,0.6-0.6,1c0,0.2,0.1,0.5,0.3,0.7c1.6,2.3,3.6,3.4,6.2,3.4
				c0.5,0,1.1,0,1.6-0.1c-1.1,6.9-1.6,13.3-1.6,19.1c0,1.5,0.1,3,0.2,4.3c0.7,8.5,3.7,12.7,9,12.7c3.3,0,6.1-2.3,8.3-6.9
				c0.9-1.9,1.7-4.2,2.6-7c0.5,2,1.1,3.9,2,5.6c2.1,4,4.7,6,7.9,6c2.6,0,4.8-1,6.5-3c1.5-1.7,2.6-3.9,3.4-6.7
				c0.6,0.1,1.2,0.2,1.9,0.2l0.7,0c2.8-0.3,5-2.1,6.7-5.3c0.6-1.2,1.2-2.7,1.6-4.4c0.4-1.3,0.6-2.7,0.9-4.2v-0.3
				C121.1,217.7,120.8,217.4,120.1,217.3z M106.4,233.6c-0.3,0.8-0.6,1.4-0.9,2c-0.9,1.5-1.9,2.3-3.1,2.3c-2.1,0-3.7-1.5-4.8-4.6
				c-1-2.6-1.4-5.9-1.4-9.8c0-3.3,0.4-6.1,1.1-8.4c0.8-2.5,1.8-3.7,3.1-3.7c0.2,0,0.4,0.1,0.7,0.2c0.2,0.1,0.4,0.3,0.5,0.4
				c-1.2,0.4-2.1,1.2-2.8,2.5c-0.6,1.1-1,2.4-1,3.9c0,2.8,0.9,5.5,2.6,8.1c1.7,2.5,3.9,4.3,6.6,5.4
				C106.8,232.5,106.6,233.1,106.4,233.6z M107.4,229.3c-2.1-0.9-3.8-2.4-5.1-4.5c-1.4-2.1-2-4.2-2-6.5c0-1,0.2-1.9,0.7-2.7
				c0.5-0.9,1.3-1.4,2.3-1.4c0.2,0,0.4,0,0.6,0.1c0.6,0.2,1.2,0.7,1.7,1.5c0.4,0.6,0.7,1.3,1.1,2.1c0.8,2.1,1.1,4.7,1.1,7.6
				C107.7,226.9,107.6,228.1,107.4,229.3z"/>
			<path d="M366.1,217.6c-0.3-0.3-0.6-0.5-1-0.5h-0.2c-0.3,0-0.6,0.1-0.9,0.3c-0.3,0.3-0.5,0.6-0.5,1c-0.1,0.8-0.2,1.5-0.4,2.3
				c-0.2,1-0.3,2-0.5,2.9c-0.5,2.5-1.1,4.8-1.8,6.7c-1.9,5.5-4.2,8.3-7,8.3c-2.6,0-4.6-1.6-6.1-4.9c-0.6-1.2-1-2.7-1.4-4.4
				c-0.3-1.4-0.5-2.8-0.7-4.3c2.9-0.2,5.2-0.9,7-2.1c2.2-1.4,3.2-3.5,3.2-6.2c0-2.3-0.9-4.2-2.7-5.8c-1.7-1.6-3.8-2.4-6-2.4
				c-2.8,0-5,1.1-6.7,3.3c-1.9,2.4-2.9,6-2.9,10.6c0,0.3,0,0.6,0,1c-1.3,5.8-2.6,10.2-4,13.2c-0.2,0.4-0.4,0.8-0.7,1.2
				c-0.3,0.6-0.6,1.1-1,1.6c-0.9,1.2-1.7,1.9-2.4,1.9c-1,0-1.7-0.9-2.3-2.7c-0.2-0.6-0.4-1.4-0.5-2.2c-0.1-0.3-0.1-0.6-0.1-1
				c-0.1-0.3-0.1-0.5-0.1-0.8c-0.2-1.6-0.2-3.3-0.2-5.3c0-2.4,0.1-5.2,0.4-8.3c0.2-3,0.6-7.8,1.3-14.6c0.5-0.1,1-0.1,1.4-0.1h0.3
				c1.5,0.1,2.8,0.8,4,1.9c0.3,0.3,0.6,0.4,0.9,0.4c0.3,0,0.6-0.1,0.9-0.4c0.3-0.3,0.5-0.6,0.5-0.9c0-0.3-0.1-0.6-0.4-0.9
				c-1.7-1.8-3.8-2.6-6.2-2.6c-0.3,0-0.7,0-1,0c0.1-1.2,0.5-3.3,1-6.5c0-0.1,0-0.2,0-0.3c0-0.3-0.1-0.6-0.4-0.9
				c-0.1-0.1-0.3-0.2-0.5-0.4c-0.1-0.1-0.3-0.2-0.5-0.2c-0.6-0.3-1.2-0.5-1.8-0.6c-0.4-0.1-0.7-0.1-1-0.1c-0.6,0-1.2,0.1-1.7,0.4
				c-0.7,0.4-1.1,1-1.4,1.8v0.1c-0.1,0.4-0.2,0.7-0.2,1c-0.1,0.4-0.2,0.8-0.2,1.1c-0.2,0.9-0.4,1.8-0.5,2.6
				c-0.2,0.6-0.4,1.9-0.7,3.9c-0.8,0.2-1.5,0.3-2.1,0.3c-0.3,0-0.6,0-0.9-0.1c-1.2-0.2-2.2-1-3.1-2.3c-0.3-0.4-0.6-0.6-0.9-0.6
				c-0.3,0-0.5,0.1-0.8,0.3c-0.4,0.3-0.6,0.6-0.6,1c0,0.2,0.1,0.5,0.3,0.7c1.6,2.3,3.6,3.4,6.2,3.4c0.5,0,1.1,0,1.6-0.1
				c-0.5,3.5-0.9,6.8-1.2,10.1c-0.9,6.4-2.2,11.4-4,15.2c-0.1,0.2-0.2,0.3-0.3,0.5c-0.1,0.2-0.2,0.4-0.4,0.7c-0.3,0.5-0.6,1-0.9,1.5
				c-0.9,1.2-1.6,1.9-2.3,1.9c-1,0-1.8-1.5-2.3-4.4c-0.2-1-0.3-2.1-0.4-3.3c0-0.4,0-0.9,0-1.3c0-0.2,0-0.4,0-0.5v-1.9
				c0-1.6,0.1-3.6,0.2-5.8v-0.4l0-0.5c0-0.5,0.1-0.9,0.1-1.3v-0.6c0-0.8,0-1.3-0.1-1.6c-0.2-0.8-1.1-1.4-2.7-1.8
				c-0.6-0.2-1.2-0.2-1.8-0.2c-0.7,0-1.3,0.1-1.8,0.4c-2.9-3-5.9-4.4-9-4.4h-0.1c-3.3,0-5.8,1.5-7.6,4.5c-1.4,2.5-2.1,5.5-2.1,9.2
				c0,0.3,0,0.5,0,0.8c0,0.2-0.1,0.4-0.1,0.6c-0.5,3.2-1.1,6-1.6,8.6c-1.7,6.5-3.1,9.8-4.2,9.8c-2.4,0-3.8-3.8-4.2-11.4
				c-0.1-1.8-0.2-3.6-0.2-5.6c0-1.3,0-2.7,0.1-4.2c0.1-1.2,0.1-2.5,0.2-3.7c0-0.4,0.1-0.9,0.1-1.3c0-0.3,0-0.6,0-0.8
				c0-0.2,0-0.4-0.1-0.5c-0.2-0.4-0.4-0.7-0.9-0.8c-0.2-0.1-0.4-0.1-0.6-0.1c-0.2,0-0.3,0-0.5,0l-1,0.2l-0.9,0.2
				c-2.3,0.4-4.1,0.7-5.6,0.8c-0.6,0-1.1,0-1.6,0c-0.7,0-1.3,0-1.9-0.1c-1-0.2-1.8-0.6-2.4-1.2c-0.4-0.5-0.7-1.2-0.7-2
				c0-0.3,0.1-0.5,0.2-0.8c0.2-0.2,0.5-0.4,0.9-0.4c0.8,0,1.2-0.4,1.2-1.2c0-0.8-0.4-1.2-1.2-1.2c-1.1,0-1.9,0.3-2.6,1
				c-0.7,0.7-1,1.6-1,2.7c0,2.5,1.1,4.2,3.4,5.1c0,0,0.1,0.1,0.2,0.1c-0.2,1.1-0.4,2.2-0.6,3.2c-0.4,1.5-0.8,2.7-1.3,3.8
				c-1.4,2.9-3.3,4.3-5.6,4.3c-0.3,0-0.6,0-1,0c0-0.4,0.1-0.8,0.1-1.1c0.1-1.1,0.1-2.2,0.1-3.3c0-1.2-0.1-2.5-0.3-3.8
				c-0.2-1.6-0.6-3-1.1-4.2c-1.2-3.2-3.1-4.8-5.6-4.8c-1.7,0-3.1,0.8-4.2,2.3c-0.9,1.3-1.4,2.9-1.4,4.7c0,2.7,0.9,5.2,2.6,7.6
				c1.7,2.3,3.8,3.9,6.4,4.9c-0.9,4.7-2.4,7.5-4.5,8.3c-0.4,0.2-0.9,0.3-1.3,0.3c-2.3,0-3.8-4.6-4.6-13.7c-0.3-2.9-0.4-6.3-0.5-10
				c0-1.2,0-2.5,0-3.8c0-0.4,0-0.8,0-1.3v-0.8l0.1-0.2c0.1-0.4,0.3-0.9,0.6-1.5l0.4-0.8l0.3-0.7c0.1-0.2,0.2-0.4,0.3-0.7l0.3-0.7
				c0.3-0.6,0.6-1.2,0.7-1.7c0.6-1.4,1.1-2.7,1.6-3.8c1.2-3.2,1.8-5.5,1.8-7.1c0-0.7-0.2-1.2-0.7-1.6c-0.5-0.4-1.1-0.6-1.8-0.6
				c-4.5,0-7.7,4.1-9.4,12.4c-0.6,2.9-1,6.2-1.2,9.9c-0.1,1.4-0.1,2.8-0.2,4.3v3.1c-0.1,0.6-0.2,1.3-0.4,1.9
				c-0.5,2.5-1.1,4.8-1.8,6.7c-1.9,5.5-4.2,8.3-7,8.3c-2.6,0-4.6-1.6-6.1-4.9c-0.6-1.2-1-2.7-1.4-4.4c-0.3-1.4-0.5-2.8-0.7-4.3
				c2.9-0.2,5.2-0.9,7-2.1c2.2-1.4,3.2-3.5,3.2-6.2c0-2.3-0.9-4.2-2.7-5.8c-1.7-1.6-3.8-2.4-6-2.4c-2.8,0-5,1.1-6.7,3.3
				c-1.9,2.4-2.9,5.8-2.9,10.2c-0.8,5.4-1.8,9.8-2.9,13.2c-1,3-2,4.4-3,4.4c-0.9,0-1.7-1.2-2.3-3.6c-0.9-3.1-1.6-7.2-2.1-12.2
				c-0.4-4-0.6-8.2-0.6-12.4v-0.8c0.7-0.8,1.3-1.8,1.9-2.8c1.9-2.9,3.2-5.9,3.9-8.9c0.2-0.6,0.3-1.2,0.4-1.7c0.1-0.5,0.1-1,0.1-1.5
				v-0.4c-0.1-1.5-0.5-2.5-1.4-3.1c-0.4-0.3-0.9-0.4-1.4-0.4c-3.6,0-6.3,3.5-8.2,10.6c-0.6,2.5-1.2,5.4-1.5,8.5
				c-0.1,1.2-0.2,2.4-0.4,3.7c-0.1,1-0.1,1.9-0.2,2.7c0,1,0,2,0,3c0,0.4,0,0.7,0,1.1c-0.1,0.7-0.2,1.3-0.4,2
				c-0.5,2.5-1.1,4.8-1.8,6.7c-1.9,5.5-4.2,8.3-7,8.3c-2.6,0-4.6-1.6-6.1-4.9c-0.6-1.2-1-2.7-1.4-4.4c-0.3-1.4-0.5-2.8-0.7-4.3
				c2.9-0.2,5.2-0.9,7-2.1c2.2-1.4,3.2-3.5,3.2-6.2c0-2.3-0.9-4.2-2.7-5.8c-1.7-1.6-3.8-2.4-6-2.4c-2.8,0-5,1.1-6.7,3.3
				c-1.8,2.3-2.8,5.6-2.9,9.8c-0.1,0.6-0.2,1.2-0.3,1.8c-0.5,2.5-1.1,4.7-1.8,6.7c-1.9,5.6-4.3,8.5-7,8.5c-2.8,0-4.9-1.9-6.4-5.8
				c-0.5-1.4-1-3.1-1.3-4.9c-0.2-1.5-0.4-2.9-0.5-4.4v-2.9c0.1-1.5,0.2-2.7,0.4-3.9c0.5-3.2,1.6-4.8,3.2-4.8h0.1
				c0.9,0.1,1.8,0.6,2.5,1.7c0.8,1,1.2,2.1,1.2,3c0,0.5,0,1-0.1,1.3v0.2c0,0.3,0.1,0.6,0.3,0.9c0.2,0.3,0.6,0.5,1,0.6h0.2
				c0.3,0,0.6-0.1,0.9-0.3c0.3-0.3,0.5-0.6,0.6-1c0.1-0.5,0.1-1.1,0.1-1.7c0-2.3-0.8-4.2-2.4-5.8c-1.6-1.6-3.7-2.4-6.3-2.4
				c-2.8,0-5,1-6.6,3c-1.5,1.7-2.4,4-2.8,6.9c-0.2,1.3-0.3,2.7-0.3,4.1c0,2.1,0.2,4.2,0.6,6.4c0.8,4.1,2.4,7.4,4.8,10
				c2.4,2.6,5,3.9,7.9,3.9c5,0,8.9-2.9,11.7-8.7c0.5-1.1,1-2.4,1.5-3.7c0.5,1.8,1.2,3.5,2,5.2c2.5,4.9,5.9,7.3,10.2,7.3
				c5.1,0,9-2.9,11.7-8.7c0.4-0.9,0.8-1.8,1.1-2.8c0.3,1.9,0.6,3.5,1.1,5c1.6,5.4,4.3,8.1,8.2,8.1c1.9,0,3.5-0.9,5-2.6
				c1.1-1.4,2.1-3.2,2.8-5.6c0.5-1.5,0.9-3.1,1.4-4.9c0.5,1.5,1,2.9,1.7,4.3c2.5,4.9,5.9,7.3,10.2,7.3c5.1,0,9-2.9,11.7-8.7
				c0.4-0.8,0.7-1.6,1-2.5c0.2,1.6,0.5,3.1,0.9,4.4c1.7,5.8,4.9,8.6,9.4,8.6c2.3,0,4.3-1,6.2-2.9c2-2.1,3.3-5.1,4.1-8.9
				c0.4,0.1,0.7,0.1,1.1,0.1h0.4c3.2,0,5.8-1.7,7.7-4.9c1.3-2.3,2.2-5.2,2.8-8.7c0.3,0,0.6,0,0.9,0c0.5,0,1.1,0,1.7-0.1
				c0.8-0.1,1.6-0.1,2.4-0.2c-0.2,1.1-0.4,2.5-0.6,4.4c-0.2,1.4-0.2,3-0.2,4.6c0,0.9,0,1.8,0.1,2.8c0.1,5.1,1,9.3,2.6,12.4
				c1.6,3.1,4,4.7,7.2,4.7c2.8,0,5-2.2,6.6-6.7c0.8-1.9,1.6-4.5,2.3-7.6c0.2,0.7,0.3,1.4,0.6,2c1.6,4.6,4.1,6.9,7.6,6.9
				c1.7,0,3.3-0.7,4.9-2.1c1.3-1.1,2.4-2.6,3.3-4.4c0.7,2.2,1.8,3.7,3.2,4.7c1.5,1,3,1.6,4.5,1.6c3.8,0,6.9-2.4,9.2-7.1
				c0.4-0.9,0.8-1.8,1.1-2.7c0.8,8.2,3.8,12.3,9,12.3c3.4,0,6.1-2.3,8.3-6.9c1-2,1.9-4.6,2.7-7.7c0.5,1.9,1.2,3.7,2.1,5.5
				c2.5,4.9,5.9,7.3,10.2,7.3c5.1,0,9-2.9,11.7-8.7c1-2.2,1.9-4.8,2.6-7.9c0.5-2.1,1-4.6,1.3-7.4c0-0.1,0-0.2,0-0.3
				C366.4,218.1,366.3,217.8,366.1,217.6z M235.5,204.9c0-1.8,0.3-3.8,0.8-5.8c0.6-2.2,1.3-3.5,2-4c0.2,0,0.3,0.2,0.3,0.6
				c0,0.5-0.2,1.4-0.5,2.6c-0.6,2.2-1.5,4.5-2.6,6.9V204.9z M192.8,199.1c0-0.2,0.1-0.3,0.1-0.5c0.1-0.2,0.1-0.4,0.2-0.6
				c0.1-0.5,0.3-0.9,0.4-1.4c0.5-1.1,0.9-1.7,1.4-1.9l0.2,0c0.1,0.2,0.1,0.4,0.1,0.7c0,0.4,0,0.8-0.1,1.4c-0.1,0.4-0.1,0.7-0.2,1.1
				c-0.1,0.3-0.1,0.6-0.2,0.8c-0.6,2.1-1.5,4.2-2.6,6.3C192.1,202.8,192.4,200.8,192.8,199.1z M168.4,214.5c0.6-1.7,1.5-2.6,2.9-2.6
				c0.9,0,1.8,0.6,2.6,1.7c0.8,1,1.1,2.1,1.1,3c0,1.8-0.8,3.2-2.4,4c-1.2,0.7-2.9,1.1-4.9,1.2C167.7,218.5,167.9,216,168.4,214.5z
				 M211.6,214.5c0.6-1.7,1.5-2.6,2.9-2.6c0.9,0,1.8,0.6,2.6,1.7c0.8,1,1.1,2.1,1.1,3c0,1.8-0.8,3.2-2.4,4c-1.2,0.7-2.9,1.1-4.9,1.2
				C210.9,218.5,211.1,216,211.6,214.5z M246.9,229c-1.8-0.8-3.4-2.1-4.6-3.9c-1.2-1.8-1.8-3.6-1.8-5.5c0-1,0.2-1.8,0.6-2.6
				c0.5-0.9,1.2-1.4,2-1.4c1.4,0,2.5,1.4,3.2,4.1c0.3,1,0.5,2.1,0.6,3.3c0.1,1,0.2,1.8,0.2,2.5C247.1,226.6,247,227.8,246.9,229z
				 M299.7,223.5c-0.1,1.5-0.2,2.9-0.2,4.3c0,0.9,0,1.7,0.1,2.5l-0.1,0.4l-0.1,0.4c-0.1,0.4-0.2,0.6-0.2,0.9
				c-0.2,0.8-0.4,1.4-0.7,1.9c-0.6,1.5-1.4,2.3-2.3,2.3c-1.2,0-2.3-1.2-3.3-3.5c-0.4-0.8-0.7-1.8-0.9-2.8c-0.2-0.8-0.4-1.5-0.5-2.2
				c-0.2-1.4-0.4-2.8-0.4-4.2c0-0.7,0.1-1.4,0.2-2.3c0.2-1.1,0.4-2.1,0.6-3c0.8-2.5,1.8-3.8,3.1-3.8c1,0,2,0.4,3.1,1.1
				c0.7,0.5,1.5,1.3,2.4,2.3C300.1,219.6,299.8,221.5,299.7,223.5z M346.4,214.5c0.6-1.7,1.5-2.6,2.9-2.6c0.9,0,1.8,0.6,2.6,1.7
				c0.8,1,1.1,2.1,1.1,3c0,1.8-0.8,3.2-2.4,4c-1.2,0.7-2.9,1.1-4.9,1.2C345.6,218.5,345.9,216,346.4,214.5z"/>
		</g>
		<g>
			<path d="M104.7,290.5l-0.8,0.1c0.1-0.4,0.1-0.6,0.1-1l0.3-2.6c0-0.7,0.1-1.5,0.1-2.3c-0.1-1,0.1-1.9-0.1-2.9
				c-0.2-1.1,0.1-2.4-0.1-3.6c0.3-1.9,0-3.8-0.1-5.7l-0.4-7.3c0-3-1-5.7-2.3-8.3c-0.3-0.8-0.9-1.4-1.4-1.9c-0.6-0.8-1.5-1.1-2.4-1
				c-1.3,0.1-2.7,0.4-3.8,1.5c-1.6,1.5-3,3.1-3.8,5.2c-1.1,2.6-2,5.3-2.6,8.1c-0.3,1.3-0.4,2.7-0.7,4c-0.5,3.1-1,6.2-1.3,9.3
				c-0.1,1.1-0.3,2.2-0.3,3.2c0,1.9,0,3.5,0.1,5.2c-0.1,0.3-0.1,0.6-0.1,0.9c-0.3,0.1-0.4,0.1-0.6,0.2c-0.4,0.2-1,0.4-1.4,0.7
				c-0.2,0.1-0.3,0.5,0,0.7c0.1,0.2,0.3,0.3,0.5,0.4c0.8,0.4,1.5,0.4,2.3,0.4c0.6,0.1,1.3,0,1.9,0.2c0.6,0.3,1.9-0.2,2-0.9
				c0.1-0.5-0.1-0.8-0.6-1c-1.2-0.4-0.4-1-0.3-3.3c0-0.9,0-1.8,0.1-2.7c0.1-0.8,0.2-1.4,0.2-2.2c0.1-1.4,0.3-2.6,0.4-4
				c0.3-1.3,0.5-2.6,0.8-4c0.1-0.8,0.2-1.5,0.6-2.3c0.4-0.1,0.8-0.2,1.3-0.3c1.8-0.1,3.6-0.1,5.4-0.6H98c0.3-0.1,0.7,0.2,0.7,0.5
				c0.1,0.7,0.1,1.5,0.1,2.1c0,1.3,0.1,2.7,0.1,3.9c0.1,1.8,0.1,3.5,0.1,5.2c0.1,2.4-0.2,4.8,0.6,7.1c-0.4,0.1-0.7,0.3-0.9,0.5
				c-0.4,0.3-0.3,0.8,0,0.9c0.4,0.3,1,0.5,1.5,0.5l4.1-1.3c0.1,0,0.3-0.1,0.5-0.1c0.5-0.1,0.8-0.5,0.8-1
				C105.4,290.8,105.2,290.5,104.7,290.5z M98.6,270.4c-1.3,0.3-2.4,0.4-3.5,0.6c-1.1,0.2-2.3,0.4-3.4,0.6c-0.1-0.1-0.3-0.1-0.3-0.3
				c-0.1-1.5-0.1-3.1,0.3-4.7c0.2-0.8,0.3-1.6,0.4-2.4c0.2-0.9,0.2-1.9,0.4-2.6c0.1-1.1,0.7-2.2,1.3-3.1c0.4-0.7,1.1-1.4,1.7-2
				c0.3-0.3,0.9-0.2,1.1,0.3c0.8,2.1,1.7,4.3,1.7,6.6c0.1,1.9,0.3,3.8,0.3,5.7C98.7,269.6,98.6,270,98.6,270.4z"/>
			<path d="M133.4,272.7c-1-0.8-2-1.5-3.4-2c-0.7-0.2-1.4-0.6-2.1-1c-0.4-0.7-1-1.3-1.7-2c-0.1-0.2-0.3-0.4-0.3-0.5
				c-0.2-0.6-0.6-1.3-0.8-2c-0.4-1.3-0.3-2.6,0.4-4c0.4-1.2,3-3.6,5.7-3.3c0.3,0.1,0.7,0.3,0.9,0.4l1.3,1.4c0.5,0.6,1,2.8,1.2,2.9
				c1.1,0.2,1.5,0.2,2.2-0.6l-0.7-2.1c0,0-0.1-0.1-0.1-0.2c-0.4-0.8-0.9-1.4-1.2-1.9c-4.1-4.3-7.7-4.1-11.3-0.7
				c-0.3,0.4-0.7,0.7-1,1c-1,0.6-1.5,3.3-1.5,3.7c-0.3,1.9-1.3,5,3.4,9.3c0.4,0.4,1.2,0.6,1.7,1c0.4,0.3,0.9,0.6,1.2,0.8
				c1.1,0.8,2.1,1.6,3.1,2.5c0.4,0.3,0.6,0.6,0.8,1c0.8,1.1,1.1,2.2,1.5,3.6c0.3,0.8,0.3,1.7,0.3,2.6c-0.1,1.5-0.6,3-0.9,4.5
				c-0.3,1.6-1.1,2.9-2,4.2c-0.3,0.6-0.8,1-1.2,1.5c-0.3,0.3-0.7,0.4-1.3,0.3c-0.6-0.2-1.3-0.3-1.9-0.8c-2-1.4-3.2-5.4-3.1-8.7
				c0-0.3,0.3-0.4,0.3-0.6c0.3-0.6,0.2-1-0.6-1.2c-0.2,0-0.4-0.1-0.7-0.1c-0.8,0.1-1.9,0.2-2.8,0.3c-0.1,0-0.6,0.2-0.8,0.3
				c-0.2,0.1-0.2,0.7,0,0.8c0.1,0.1,0.3,0.2,0.6,0.3c0.1,0.1,0.5,0.3,0.8,0.3c0,0.3,0,0.4-0.1,0.5c-0.1,0.6-0.1,1.1-0.1,1.8
				c0.1,0.4,0,1.1,0,1.7c0,0.2-0.1,0.4,0.1,0.6c0.2,1.7,1,3.7,2.5,4.8c2.9,2.4,6.9,2.6,9.5,1.1c1.8-0.8,3.1-2.2,4.1-3.8
				c0.5-0.8,0.9-1.9,1.2-2.9c0.6-1.8,0.7-3.6,0.7-5.6c0-1.4-0.3-2.7-0.8-4C136.3,275.8,135.2,274.1,133.4,272.7z"/>
			<path d="M150.4,255.6c-0.4-0.1-0.6-0.3-1-0.3c-1-0.1-2-0.3-2.9-0.3c-1.3,0-2.5,0.2-3.6,0.3c-0.6,0-1,0.3-1.4,0.7
				c-0.2,0.2-0.1,0.7,0.1,0.8c0.4,0.1,0.8,0.3,1.1,0.2h1.7v2c-0.1,0.6-0.2,1.3-0.2,2c-0.2,2.2-0.3,4.7-0.3,6.8
				c0,0.9-0.1,1.7-0.1,2.5c-0.1,2-0.1,4.1-0.1,6.1c-0.1,2.6,0.1,5.1,0.1,7.7c0,1.5-0.1,3.1,0,4.6c0,0.8-0.1,1.5-0.4,2.3
				c-0.1,0.4-0.3,0.8-0.7,0.8l-1.2,0.4c-0.1,0.1-0.1,0.4,0,0.5c0.2,0.4,0.8,0.7,1.3,0.7c0.8-0.1,2.6,0.1,3.4,0.1
				c0.6-0.1,1.1,0,1.7-0.2c0.3-0.1,0.6-0.1,0.8-0.3c0.1-0.2,0.3-0.3,0.2-0.6l-0.4-0.3c-0.4-0.1-0.8,0.1-1.2-0.1
				c0.1-0.1,0.2-0.4,0.1-0.5c0.1-0.8,0.3-1.4,0.3-2c0.1-0.6,0-1.3-0.1-2l-0.1-5.1c0.1-1.1,0.1-2.1,0.1-3.1c0.1-1.3,0-2.8,0-4.1
				c0.1-1.7,0.2-3.4,0.3-5.1c0.1-0.9,0.1-1.9,0.1-2.8c0-1.3,0-2.6,0.2-4c0.1-0.4,0.1-0.9,0.1-1.2c0.1-0.4,0-0.8,0.1-1.2
				c0.1-0.6,0.1-1.1,0.1-1.7c-0.1-0.3-0.1-0.8,0-1.2c-0.1-0.8,0.1-0.9,1.1-1c0.2,0,0.4,0.1,0.6,0.1c0.1,0,0.3-0.2,0.4-0.2
				c0.4-0.1,0.6-0.8,0.3-1C150.7,255.8,150.5,255.6,150.4,255.6z"/>
			<path d="M187.4,254.7c-0.3-0.4-0.8-0.6-1.3-0.7c-0.3,0.1-0.5,0.1-0.8,0.1c-1,0.2-4,0.1-5-0.1c-1.9-0.2-2.7,1.3-4.3,4.4
				c-0.6,1-5.2,13.3-6.3,16.5c-0.2,0.6-0.4,1.3-0.8,1.7c-0.3-0.1-0.4-0.3-0.5-0.6c-0.3-0.7-0.6-1.5-1-2.3c-0.8-1.8-1.5-3.7-2.4-5.5
				c-0.4-1.1-0.8-2.1-1.1-3.2c-0.3-1.3-0.9-2.6-1.3-4.1c-0.4-1.4-0.9-2.8-0.9-4.3c0-0.9-0.8-1.8-1.7-1.9c-1.3-0.1-2.6-0.1-3.8,0.1
				c-0.7,0.1-1.5,0.4-2.1,0.4c-1.2,0-1.7,2.4-1,2.4c0.8,0.2,1.5,0.3,2.4,0.1l0.7-0.3c0.3,0.1,0.5,0.1,0.6,0.4c0.1,0.3,0,0.5,0,0.8
				c0,2.6-0.1,5.2-0.2,7.8c-0.1,2.2-0.2,4.4-0.3,6.5l0.2,8.3c0.1,1,0.1,1.9,0.1,2.7c0.1,1,0.1,1.9,0.1,2.9c0,1.5,0,2.9,0.2,4.3
				c-0.2,0.1-0.3,0.3-0.5,0.4c-0.2,0.1-0.4,0.2-0.6,0.2c-0.2,0.1-0.4,0.1-0.6,0.3c-0.3,0.1-0.4,0.4-0.4,0.7c0.1,0.3,0.3,0.4,0.6,0.4
				l1.1-0.1c1.4-0.4,2.7-0.8,4.1-0.4c0.8,0.1,1.5-0.3,2.2-0.5c0.4-0.1,0.6-0.6,0.6-1c0-0.3-0.4-0.8-0.7-0.8c-0.2,0-0.3,0-0.5-0.1
				c-0.3-0.1-0.6-0.1-1-0.2c-0.3,0-0.6-0.3-0.6-0.5c-0.1-0.3-0.1-0.6-0.1-0.9c0.3-0.8,0.1-1.6,0.1-2.4c-0.1-1.2,0-2.5,0.1-3.8
				c0-0.7,0-1.4,0.1-2c0-1.4-0.1-2.9-0.1-4.3c0-2.3-0.1-4.5,0.1-6.7c0-0.4-0.2-0.9,0.1-1.3c0.5,0.1,0.6,0.4,0.7,0.7
				c0.7,2,1.5,4,2.2,6.1c0.7,2,1.4,4,2.1,6.1c0.4,1,1.1,1.5,2.1,1.9c0.3,0.1,0.5,0.1,0.7-0.1c0.3-0.1,0.4-0.3,0.5-0.5l1.1-2.4
				c0.3-0.7,0.5-1.5,0.8-2.3c0.3-0.8,0.4-1.7,0.8-2.4c1.2-2.9,6.3-15.4,6.6-16.2c0.1-0.1,0.3-0.3,0.3-0.4c0.1-0.2,0.3-0.3,0.4-0.1
				l0.2,1c-0.1,0.8-0.1,1.6-0.1,2.5c-0.1,3.4-0.2,6.7-0.4,10c-0.1,2.4-0.2,4.7-0.3,6.9c-0.2,2.7-0.3,5.3-0.4,8
				c-0.1,0.9-0.1,1.7-0.1,2.6c-0.1,0.4-0.1,0.9,0,1.5c0.2,0.5,0.1,0.9-0.5,1.1l-1,0.5c-0.2,0.1-0.3,0.3-0.1,0.6
				c0.3,0.4,0.5,0.6,0.8,0.5c0.8-0.4,1.7-0.3,2.5-0.5c0.8-0.2,1.5-0.3,2.2-0.3c2.1,0.5,3.3-1.3,2-1.9c-0.3-0.1-0.6-0.1-1-0.3
				c-0.3,0-0.6-0.2-0.8-0.3c-0.1-0.1-0.1-0.3-0.1-0.3c-0.1-1.1,0.3-11.2,0.4-12.4l0.4-7.3c0-1.1,0-2.1,0-3.1c0-1.3-0.1-2.4,0.1-3.7
				c0.1-1.2,0.1-2.5,0.1-3.7c0-0.8-0.1-1.4,0-2.2c0-0.4,0.1-0.6,0.6-0.7c0.2-0.1,0.4-0.1,0.6-0.1c0.6-0.1,1.2-0.2,1.9-0.2
				c0.5-0.1,1.1-0.3,1.5-0.6c0.3-0.2,0.3-0.7,0.1-1C187.8,255,187.5,254.9,187.4,254.7z"/>
			<path d="M209.3,260.8c-0.3-0.7-0.8-1.4-1.1-2c-0.1-0.4-0.3-0.6-0.6-1c-0.5-0.6-1.1-1.1-1.9-1.4c-1.8-1-3.7-1.3-5.6-1.3
				c-2.1,0.1-4.1,0.5-6.2,1.2c-0.2,0.1-0.4,0.2-0.8,0.3c-1.1,0.1-2.1,0.7-3.1,1.2c-0.1,0.1-0.3,0.4-0.4,0.6
				c-0.3,0.3-0.2,0.7,0.1,0.9c0.3,0.1,0.4,0.2,0.8,0.3c0.3,0,0.7,0,1.1-0.1c0.6-0.1,1.1-0.1,1.7-0.3c0.3,0.3,0.3,0.6,0.3,0.9
				c-0.1,0.4-0.2,1-0.2,1.5c-0.2,2.1-0.4,4.2-0.6,6.3c-0.1,1.5-0.3,2.9-0.3,4.4c-0.1,3.1-0.1,6.1,0,9.1c-0.1,2.9-0.1,6.4,0.3,9.4
				l-0.1,1.2c-2.6,0.7-2.2,2.7-0.4,2.4c0.7-0.2,1.3-0.1,2,0.1c0.7,0.1,1.4,0.2,2,0.3c0.5,0,1.1-0.1,1.5-0.1c0.8-0.1,1.3-0.9,0.8-1.7
				c-0.2-0.3-0.5-0.1-0.8-0.4c-0.3-0.1-0.6-0.3-0.8-0.3c-0.1-1.3-0.1-3.2-0.1-4.3v-4c0.1-1.8-0.1-3.4-0.2-5.2c0-0.1,0-0.2-0.1-0.3
				h0.1c0.6-0.1,3.8-0.8,4.5-1c0.7-0.3,1.5-0.5,2.2-0.8c0.3,0,0.5-0.1,0.8-0.3c1.9-0.8,3.5-2.2,4.8-4.1c1.1-1.6,1.5-3.4,1.5-5.3
				c0-1.7-0.4-3.4-1-5C209.6,261.5,209.5,261.1,209.3,260.8z M207.5,267.1c-0.1,1.3-0.5,2.4-1.3,3.4c-1.5,2.2-3.4,3.5-5.8,4.1
				c-0.5,0.3-1,0.4-1.5,0.6c-0.4,0.1-0.7,0.2-1,0.3c-0.8,0.1-1.3-0.3-1.3-1.3c0.3-3.2,0.3-14.2,0.3-16c0-0.1-0.1-0.3-0.1-0.5
				c0.3-0.1,0.6-0.3,0.9-0.3c1.3-0.3,2.7-0.4,4-0.3c0.7,0.1,1.3,0.2,2,0.6c0.5,0.3,0.9,0.4,1.1,0.8c1,1.3,1.9,2.6,2.2,4.3
				C207.5,264.2,207.6,265.6,207.5,267.1z"/>
			<path d="M230.3,288.1c0-0.6-0.3-0.9-0.6-1.2c-0.6-0.1-1,0-1.2,0.6c-0.2,0.3-0.4,0.6-0.4,0.9c-0.3,0.8-0.8,1.5-1.3,2.3
				c-0.3,0.4-0.6,0.7-1.1,0.8c-1.1,0.3-2.2,0.6-3.3,0.6c-1.1-0.1-2.8,0.1-4.3,0.2c-0.2-1.4-0.3-2.6-0.2-3.9c0-0.4,0.1-0.8,0.1-1.1
				c-0.1-3,0.1-5.8,0.5-8.7l0.2-1.5c0.2-2.6,0.4-5,0.6-7.5l0.4-5.1c0-0.8-0.1-1.6,0-2.4c0.1-1.5,0.2-2.9,0.3-4.5
				c0-0.1,0.1-0.3,0.1-0.4c0.7-0.3,1.3-0.3,2-0.3c0.4,0,0.6-0.4,0.8-0.7c0.1-0.2,0.1-0.6-0.1-0.7c-0.1-0.2-0.4-0.4-0.7-0.4
				c-1.1,0.1-2.1-0.3-3.2-0.1c-0.6,0.1-1.3,0-2.1,0h-1.5c-0.4,0.1-1,0.2-1.5,0.3c-0.1,0.1-0.3,0.3-0.3,0.5c0,0.1,0.2,0.4,0.3,0.4
				c0.4,0.3,0.8,0.5,1.3,0.7l0.1,0.9c0.2,1.2,0.2,2.5,0.1,3.7c-0.1,0.4-0.1,0.8-0.1,1.1c-0.1,1.4-0.1,3-0.3,4.5
				c-0.3,3.1-0.6,6-0.8,9.1c-0.3,3.8-0.7,7.7-0.7,11.6c0,1.5-0.1,2.9,0.3,4.3c0.1,0.2-0.1,0.5-0.3,0.6l-1,0.5
				c-0.3,0.1-0.7,0.4-0.9,0.6c-0.1,0.1-0.2,0.3-0.2,0.6c0.1,0.1,0.3,0.4,0.4,0.4c6.3,0,5.9-0.4,7.5-0.5c0.6,0,1.1-0.1,1.6-0.1h1
				c1.9,0.1,3.8-0.2,5.6-0.7c1.1-0.2,2-1,2.8-1.8c0.4-0.8,0.8-1.6,0.6-2.6C230.3,288.8,230.4,288.4,230.3,288.1z"/>
			<path d="M252,255.7c-0.6-0.1-1.1-0.2-1.6-0.3c-0.4-0.1-0.8-0.1-1.2-0.1l-7.7-0.1c-1-0.1-1.9-0.1-2.8,0.1c-0.5,0.1-1,0.1-1.5,0.2
				c-0.8,0.1-1.6,0.3-2.4,0.4c-0.3,0.2-0.6,0.4-0.6,0.8c-0.1,0.6,0,1.3,0.3,1.9c0.1,0.4,0.4,0.4,0.7,0.4c0.3,0,0.6-0.1,0.7-0.5
				c0.1-0.2,0.1-0.4,0.3-0.7c0.1-0.2,0.4-0.3,0.6-0.2c0.1,0.1,0.3,0.3,0.3,0.4c0,0.5-0.1,1.1-0.1,1.7c0.1,1.2-0.1,2.4-0.2,3.7
				c-0.2,2.8-0.3,5.6-0.4,8.6c-0.1,1.7-0.1,3.3-0.2,4.9c-0.3,4.3-0.5,8.6-0.3,12.8v1.1c0,0.3,0.4,0.6,0.1,1.1
				c-0.4,0.2-0.8,0.1-1.2,0.1h-1.3c-0.1,0-0.3,0.1-0.3,0.3c-0.1,0.3,0,0.6,0.1,0.8c0.3,0.1,0.4,0.3,0.7,0.3c1.3,0.5,2.8,0.8,4.2,0.8
				c1.5,0.1,3-0.1,4.5-0.2c0.8-0.1,1.7-0.1,2.6-0.2c0.4,0,0.9,0,1.3,0.1c1.4,0.2,2.9,0.1,4.3,0c0.3-0.1,0.6-0.1,0.8-0.4
				c0.4-0.4,0.6-1,0.8-1.6l0.2-2c0.1-0.6-0.1-0.9-0.6-1.2c-0.2-0.1-0.4-0.2-0.6-0.3c-0.3-0.2-0.7-0.1-0.8,0.3l-0.4,1.4
				c-0.1,0.4-0.4,0.7-0.8,0.8c-0.4,0.1-0.8,0.2-1.1,0.2l-2.2,0.2c-1.1,0-2.3,0.1-3.4,0.1c-0.6,0-1.1-0.1-1.7-0.2
				c-0.3-1.3-0.5-2.6-0.4-3.9c0-0.8,0.1-1.7,0.1-2.5c-0.1-2.9,0.3-5.7,0.5-8.5c0.1-0.3,0.1-0.7,0.4-0.9c0.6,0,1.2,0.2,1.9,0.3
				c0.7,0.1,1.3,0.1,1.9,0.1c0.1,0.3,0.2,0.3,0.2,0.4c0.2,1.2,0.9,1.7,1.7,2.2c0.5,0.4,1,0,1-0.7c0-0.3,0-0.6-0.1-0.8
				c0-0.9-0.1-1.7-0.2-2.6c-0.1-0.4-0.3-0.8-0.4-1.3c-0.2-0.5-0.5-0.7-1-0.9c-0.6-0.3-1,0.1-1.2,0.8v0.3c-0.1,0.3-0.3,0.5-0.4,0.6
				c-1,0.2-2,0.3-3,0.2c-0.4-0.1-0.6-0.3-0.6-0.8v-0.5c0.1-2.4,0.3-4.7,0.4-6.8c0.1-2.7,0.1-5.5-0.3-8.3c0,0,0-0.1,0.1-0.1
				c0.3-0.3,0.7-0.1,1.1-0.1l6.7,0.1c0.1,0,0.1,0.1,0.1,0.1c0.2,0.4,0.1,0.8,0,1.2c-0.3,1-0.1,1.9,0.6,2.6c0.2,0.1,0.3,0.4,0.4,0.6
				c0.8,0.9,1.5,0.9,1.8,0.1c0.1-0.1,0.1-0.3,0.1-0.4c0.1-1.1,0.3-2.2,0.4-3.4c0-0.2,0.1-0.4,0.1-0.7
				C252.9,256.3,252.6,255.9,252,255.7z"/>
			<path d="M287.1,288.1c0-0.6-0.3-0.9-0.6-1.2c-0.6-0.1-1,0-1.2,0.6c-0.2,0.3-0.4,0.6-0.4,0.9c-0.3,0.8-0.8,1.5-1.3,2.3
				c-0.3,0.4-0.6,0.7-1.1,0.8c-1.1,0.3-2.2,0.6-3.3,0.6c-1.1-0.1-2.8,0.1-4.3,0.2c-0.2-1.4-0.3-2.6-0.2-3.9c0-0.4,0.1-0.8,0.1-1.1
				c-0.1-3,0.1-5.8,0.5-8.7l0.2-1.5c0.2-2.6,0.4-5,0.6-7.5l0.4-5.1c0-0.8-0.1-1.6,0-2.4c0.1-1.5,0.2-2.9,0.3-4.5
				c0-0.1,0.1-0.3,0.1-0.4c0.7-0.3,1.3-0.3,2-0.3c0.4,0,0.6-0.4,0.8-0.7c0.1-0.2,0.1-0.6-0.1-0.7c-0.1-0.2-0.4-0.4-0.7-0.4
				c-1.1,0.1-2.1-0.3-3.2-0.1c-0.6,0.1-1.3,0-2.1,0h-1.5c-0.4,0.1-1,0.2-1.5,0.3c-0.1,0.1-0.3,0.3-0.3,0.5c0,0.1,0.2,0.4,0.3,0.4
				c0.4,0.3,0.8,0.5,1.3,0.7l0.1,0.9c0.2,1.2,0.2,2.5,0.1,3.7c-0.1,0.4-0.1,0.8-0.1,1.1c-0.1,1.4-0.1,3-0.3,4.5
				c-0.3,3.1-0.6,6-0.8,9.1c-0.3,3.8-0.7,7.7-0.7,11.6c0,1.5-0.1,2.9,0.3,4.3c0.1,0.2-0.1,0.5-0.3,0.6l-1,0.5
				c-0.3,0.1-0.7,0.4-0.9,0.6c-0.1,0.1-0.2,0.3-0.2,0.6c0.1,0.1,0.3,0.4,0.4,0.4c6.3,0,5.9-0.4,7.5-0.5c0.6,0,1.1-0.1,1.6-0.1h1
				c1.9,0.1,3.8-0.2,5.6-0.7c1.1-0.2,2-1,2.8-1.8c0.4-0.8,0.8-1.6,0.6-2.6C287.1,288.8,287.2,288.4,287.1,288.1z"/>
			<path d="M298.2,255.6c-0.4-0.1-0.6-0.3-1-0.3c-1-0.1-2-0.3-2.9-0.3c-1.3,0-2.5,0.2-3.6,0.3c-0.6,0-1,0.3-1.4,0.7
				c-0.2,0.2-0.1,0.7,0.1,0.8c0.4,0.1,0.8,0.3,1.1,0.2h1.7v2c-0.1,0.6-0.2,1.3-0.2,2c-0.2,2.2-0.3,4.7-0.3,6.8
				c0,0.9-0.1,1.7-0.1,2.5c-0.1,2-0.1,4.1-0.1,6.1c-0.1,2.6,0.1,5.1,0.1,7.7c0,1.5-0.1,3.1,0,4.6c0,0.8-0.1,1.5-0.4,2.3
				c-0.1,0.4-0.3,0.8-0.7,0.8l-1.2,0.4c-0.1,0.1-0.1,0.4,0,0.5c0.2,0.4,0.8,0.7,1.3,0.7c0.8-0.1,2.6,0.1,3.4,0.1
				c0.6-0.1,1.1,0,1.7-0.2c0.3-0.1,0.6-0.1,0.8-0.3c0.1-0.2,0.3-0.3,0.2-0.6l-0.4-0.3c-0.4-0.1-0.8,0.1-1.2-0.1
				c0.1-0.1,0.2-0.4,0.1-0.5c0.1-0.8,0.3-1.4,0.3-2c0.1-0.6,0-1.3-0.1-2l-0.1-5.1c0.1-1.1,0.1-2.1,0.1-3.1c0.1-1.3,0-2.8,0-4.1
				c0.1-1.7,0.2-3.4,0.3-5.1c0.1-0.9,0.1-1.9,0.1-2.8c0-1.3,0-2.6,0.2-4c0.1-0.4,0.1-0.9,0.1-1.2c0.1-0.4,0-0.8,0.1-1.2
				c0.1-0.6,0.1-1.1,0.1-1.7c-0.1-0.3-0.1-0.8,0-1.2c-0.1-0.8,0.1-0.9,1.1-1c0.2,0,0.4,0.1,0.6,0.1c0.1,0,0.3-0.2,0.4-0.2
				c0.4-0.1,0.6-0.8,0.3-1C298.5,255.8,298.3,255.6,298.2,255.6z"/>
			<path d="M323.8,256.3c-0.3-3.2-3.5-2.1-4-2c-1.1,0.1-2.1,0.3-3.1,0.4c-0.6,0.1-1.3,0.1-1.9,0.3c-2.2,0.4-9.2,1.7-10.1,1.9
				c-0.3,0.1-0.6,0.3-0.8,0.4c-0.3,0.3-0.3,1,0,1.3c0.1,0.1,0.3,0.2,0.4,0.3c1,0.3,1.1,1,1.1,1.8c0,0.5,0,1-0.1,1.5
				c-0.1,2.9-0.1,5.7-0.1,8.6c0,0.7-0.1,1.3-0.1,2c0,1.9-0.1,3.8-0.2,5.7c-0.1,1.3-0.3,2.8-0.3,4.1c0,2.7,0.1,5.4,0.1,8.2l-0.2,0.6
				c-0.2,0.1-0.3,0.2-0.5,0.2c-0.1,0.1-0.3,0.1-0.5,0.1c-0.5,0.2-0.7,0.5-0.7,1c0.1,0.5,0.3,0.9,0.9,1c0.4,0.1,5.1,0.8,5.6,0.8
				c0.3-0.1,0.5-0.2,0.8-0.3c0.4-0.3,0.5-0.8,0.3-1.1c-0.4-0.4-1.1-0.3-1.3-1c0.4-1.4,0.4-2.9,0.6-4.3c0.1-2.3,0.2-4.7,0.3-7
				l0.2-1.5c0.8-0.5,1.7-0.5,2.4-0.6c0.7-0.1,1.4-0.1,2.1-0.3c1-0.1,1.9-0.2,2.9-0.4c0.6-0.1,1.1-0.2,1.7-0.4
				c0.3-0.1,0.6-0.4,0.7-0.7c0.3-1.1,0.1-2.2-0.3-3.3c-0.1-0.3-0.6-0.5-1.1-0.4c-0.3,0.1-0.5,0.3-0.6,0.5c-0.1,0.4-0.1,0.8-0.3,1.3
				c-0.1,0.6-0.5,0.9-1.2,1c-1.4,0.3-2.9,0.5-4.3,0.7c-0.4,0.1-0.8,0.1-1.2,0.2c-0.4,0-0.7-0.2-0.7-0.6c-0.1-0.5,0-1,0-1.4
				c0.2-2.8,0.1-5.6,0-8.4c-0.5-7.1-0.8-7.2-0.6-7.9c1-0.7,2-0.9,3-1c2.6-0.3,5.1-0.7,7.6-0.8c0.6-0.1,1,0.2,1.1,0.8l0.2,2.1
				c0.1,0.6,0.4,1.2,0.8,1.7c0.5,0.6,1.1,0.7,1.7,0.5c0.3-0.1,0.4-0.3,0.6-0.5c0.1-0.3,0.1-0.5,0.1-0.8
				C324.7,259.1,323.9,257.7,323.8,256.3z"/>
			<path d="M343.6,260.9c0.2,0.1,0.3,0.4,0.4,0.6c0.8,0.9,1.5,0.9,1.8,0.1c0.1-0.1,0.1-0.3,0.1-0.4c0.1-1.1,0.3-2.2,0.4-3.4
				c0-0.2,0.1-0.4,0.1-0.7c-0.1-0.7-0.4-1.1-1-1.3c-0.6-0.1-1.1-0.2-1.6-0.3c-0.4-0.1-0.8-0.1-1.2-0.1l-7.7-0.1
				c-1-0.1-1.9-0.1-2.8,0.1c-0.5,0.1-1,0.1-1.5,0.2c-0.8,0.1-1.6,0.3-2.4,0.4c-0.3,0.2-0.6,0.4-0.6,0.8c-0.1,0.6,0,1.3,0.3,1.9
				c0.1,0.4,0.4,0.4,0.7,0.4c0.3,0,0.6-0.1,0.7-0.5c0.1-0.2,0.1-0.4,0.3-0.7c0.1-0.2,0.4-0.3,0.6-0.2c0.1,0.1,0.3,0.3,0.3,0.4
				c0,0.5-0.1,1.1-0.1,1.7c0.1,1.2-0.1,2.4-0.2,3.7c-0.2,2.8-0.3,5.6-0.4,8.6c-0.1,1.7-0.1,3.3-0.2,4.9c-0.3,4.3-0.5,8.6-0.3,12.8
				v1.1c0,0.3,0.4,0.6,0.1,1.1c-0.4,0.2-0.8,0.1-1.2,0.1h-1.3c-0.1,0-0.3,0.1-0.3,0.3c-0.1,0.3,0,0.6,0.1,0.8
				c0.3,0.1,0.4,0.3,0.7,0.3c1.3,0.5,2.8,0.8,4.2,0.8c1.5,0.1,3-0.1,4.5-0.2c0.8-0.1,1.7-0.1,2.6-0.2c0.4,0,0.9,0,1.3,0.1
				c1.4,0.2,2.9,0.1,4.3,0c0.3-0.1,0.6-0.1,0.8-0.4c0.4-0.4,0.6-1,0.8-1.6l0.2-2c0.1-0.6-0.1-0.9-0.6-1.2c-0.2-0.1-0.4-0.2-0.6-0.3
				c-0.3-0.2-0.7-0.1-0.8,0.3l-0.4,1.4c-0.1,0.4-0.4,0.7-0.8,0.8c-0.4,0.1-0.8,0.2-1.1,0.2l-2.2,0.2c-1.1,0-2.3,0.1-3.4,0.1
				c-0.6,0-1.1-0.1-1.7-0.2c-0.3-1.3-0.5-2.6-0.4-3.9c0-0.8,0.1-1.7,0.1-2.5c-0.1-2.9,0.3-5.7,0.5-8.5c0.1-0.3,0.1-0.7,0.4-0.9
				c0.6,0,1.2,0.2,1.8,0.3c0.7,0.1,1.3,0.1,1.9,0.1c0.1,0.3,0.2,0.3,0.2,0.4c0.2,1.2,0.9,1.7,1.7,2.2c0.5,0.4,1,0,1-0.7
				c0-0.3,0-0.6-0.1-0.8c0-0.9-0.1-1.7-0.2-2.6c-0.1-0.4-0.3-0.8-0.4-1.3c-0.2-0.5-0.5-0.7-1-0.9c-0.6-0.3-1,0.1-1.2,0.8v0.3
				c-0.1,0.3-0.3,0.5-0.4,0.6c-1,0.2-2,0.3-3,0.2c-0.4-0.1-0.6-0.3-0.6-0.8v-0.5c0.1-2.4,0.3-4.7,0.4-6.8c0.1-2.7,0.1-5.5-0.3-8.3
				c0,0,0-0.1,0.1-0.1c0.3-0.3,0.7-0.1,1.1-0.1l6.7,0.1c0.1,0,0.1,0.1,0.1,0.1c0.2,0.4,0.1,0.8,0,1.2
				C342.7,259.4,342.9,260.2,343.6,260.9z"/>
		</g>
	</g>
	<path class="st0" d="M103.9,167.5c-0.2-7.2,0.8-14.2,3.7-20.9c2.5-5.7,4.7-11.6,4.7-17.9c0-1.5-0.2-3-0.3-4.6
		c-0.2-4.1-2.2-7.5-3.9-11c-1.9-4-4.5-7.7-6.2-11.8c-1.6-4.1-2-8.4-1.9-12.8c0-1.1,0.2-2.1,0-3.2c-0.1-0.4-0.1-1.1-0.7-1
		c-0.5,0.1-0.5,0.6-0.5,1c-0.1,2.5-0.3,4.9-0.3,7.4c0,3-1.2,5.6-3.3,7.5c-4.4,4-8.5,8.4-13.4,11.6c-3.3,2.2-5.9,4.9-8.5,7.8
		c-2.7,3.1-4.2,6.9-5.4,10.8c-1.8,5.5-2.7,11.2-2.4,17c0.1,2.5,1,4.7,1.8,7c1.1,3.2,1.4,6.7,2.3,9.9c1.2,4,2.7,7.7,5,11.2
		c4.1,6.1,10,9.8,16.8,12.2c2.3,0.8,4.4-0.2,6-1.9C102.2,180.6,104.1,174.4,103.9,167.5z M71.2,160.2c2.7-3.3,5.3-6.7,9.2-8.9
		c1.1-0.6,1.2-0.4,1.2,0.8c0,3.1-0.1,6.2,0.5,9.3c0.1,0.8-0.1,1.5-0.4,2.2c-1.4,3.4-3.7,6.3-5.2,9.6c-0.5,1.1-0.8,0.6-1.2,0
		c-2.1-3.1-3.2-6.6-4.1-10.3C71,162,70.5,161,71.2,160.2z M87,120.1c1-0.4,2.1-0.7,3.3-1.1c0.8,0,0.3,0.5,0.3,0.9
		c-0.9,4.5-3.7,7.2-8,8.7c-2.8,1-5.8,1.6-8.5,2.9c-1.4,0.7-2.7,1.3-4.1,2c-0.2,0.1-0.5,0.5-0.8,0.2c-0.2-0.2-0.2-0.6-0.1-0.8
		c0.2-0.8,0.5-1.5,0.7-2.3c1.1-3.9,2.8-7,7.3-7.9C80.5,122.1,83.9,121.4,87,120.1z M108.9,134.8c-0.4,0-0.4-0.3-0.5-0.6
		c-0.8-3.3-2.6-6-4.5-8.7c-2.2-3.3-4.5-6.6-6.1-10.3c-0.6-1.3-1.3-2.7-1-4.2c0.7-3.1,1.8-6.2,2.2-9.4c0-0.3,0-0.8,0.5-0.8
		c0.4,0,0.4,0.4,0.5,0.6c1.5,3.2,3.3,6.3,5.1,9.5c2.2,4,4.4,8.1,4.9,13c0.5,3.3,0.4,6.7-0.4,10.1
		C109.5,134.3,109.5,134.8,108.9,134.8z M101.6,163.7c-0.4,0.1-0.6-0.3-0.8-0.6c-1.2-1.8-2.9-3.1-4.4-4.6c-3-2.9-6.4-5.5-8.9-9
		c-1.2-1.8-2.8-3.6-2.6-5.8c0.4-3.6,2-7,3-10.5c0.2-0.8,0.7-0.8,1-0.1c1.9,3.9,5,7,7.4,10.5c3.5,5,4.5,10.9,5.6,16.7
		c0,0.8,0,1.6,0,2.5C101.9,163.1,102.1,163.6,101.6,163.7z M95.6,184.2c-1,0.6-1.7,0.4-2.4-0.4c-2.8-3.3-4.6-7.2-6.4-11
		c-0.1-0.3-0.3-0.6,0.1-0.8c0.3-0.2,0.5,0.1,0.8,0.3c1.9,1.4,3.9,2.8,5.7,4.3c1.7,1.4,2.8,3.3,3.6,5.1
		C97.2,182.8,96.7,183.5,95.6,184.2z"/>
	<path class="st0" d="M323.4,156.5c-1.9-6.6-1.4-13.4-0.5-20c1-7.9-0.1-15.4-2.5-22.8c-2.2-7.1-2.2-14.1,1.2-20.8
		c1.1-2.2,3-3.9,5.7-3.8c7.8,0.3,14.9,2.4,21.1,7.5c3.5,2.9,6.1,6.3,8.6,10.1c2,3.1,3.3,6.6,5.4,9.6c1.5,2.1,3.1,4.1,4,6.6
		c2,5.9,2.8,12,2.6,18.3c-0.2,4.4-0.5,8.7-2.4,12.8c-1.8,3.8-3.6,7.4-6.4,10.7c-4.1,4.9-7,10.7-10.4,16.1c-1.6,2.6-2.1,5.6-1.2,8.8
		c0.7,2.6,1.3,5.2,1.9,7.7c0.1,0.4,0.3,1-0.2,1.2c-0.6,0.3-0.8-0.4-1.1-0.8c-0.5-1-0.7-2.2-1-3.3c-1.3-4.5-2.9-8.9-5.8-12.6
		c-3-3.8-6.8-6.8-10-10.4c-2.8-3.2-5.9-6.1-7.4-10.2C324.5,159.6,323.8,158.1,323.4,156.5z M335.4,136.2c3.6,2.9,7.6,5.2,10.8,8.6
		c0.5,0.6,1,0.5,1-0.4c0-3.9,0.7-7.9-0.1-11.7c-0.5-2.4-2.6-3.8-4.4-5.2c-3.6-2.9-7.9-4.5-11.9-6.6c-2-1.1-4.2-1.9-5.9-3.4
		c-0.3-0.3-0.6-0.5-1-0.3c-0.5,0.2-0.1,0.7-0.1,1c0.2,0.9,0.5,1.7,0.7,2.6C327.4,126.3,330.2,132,335.4,136.2z M360.7,117.1
		c-0.5-0.6-1-1.1-1.5,0c-1.6,3.8-4.3,6.9-6.5,10.2c-1.9,2.9-3.2,6-3,9.6c0.1,2,0,4-0.1,6.1c-0.1,1.1,0.2,1.4,1.2,0.7
		c3-2.1,6-4.3,9.1-6.2c2.1-1.4,3.5-3.4,5.4-5c0.7-0.6,1-1.5,0.8-2.4c-0.5-2.5-1-4.9-1.9-7.4C362.9,120.9,362.1,118.8,360.7,117.1z
		 M336.3,172.7c2.7,2.7,5.5,5.4,8.1,8.3c0.2,0.2,0.4,0.6,0.7,0.5c0.5-0.2,0.3-0.7,0.2-1c-0.6-3.5-0.4-6.9-0.6-10.4
		c-0.1-1.6-1.3-2.8-2.3-4c-2.7-3.4-6.1-6.1-9.4-8.8c-2.7-2.3-5.5-4.5-7.3-7.7c-0.2-0.3-0.3-0.6-0.7-0.5c-0.6,0.2-0.4,0.7-0.4,1.1
		c0.2,3.8,1.1,7.4,2.6,10.6C329.4,165.7,332.8,169.2,336.3,172.7z M336.4,154.1c2.8,2,5.4,4.1,8.1,6.3c1,0.8,1.4,0.7,1.5-0.6
		c0.2-1.9,0.3-3.8,0.5-5.7c0.1-1.1-0.5-1.9-1-2.7c-1.6-2.8-3.6-5.1-6.1-7.1c-3.3-2.6-7.2-4.6-10.1-7.7c-0.9-1-1.7-2-2.5-3.1
		c-0.3-0.3-0.5-0.8-1-0.8c-0.1,0-0.2,0.7-0.2,1c-0.8,3.5,0.8,6.7,1.3,9.2C329.2,148.1,332.5,151.3,336.4,154.1z M334.9,107.5
		c-4.1-1.8-8.4-3.2-12.1-5.8c-1.1-0.8-1.4-0.3-1.5,0.9c-0.3,3.7,1.8,6.3,4.1,8.7c2.6,2.7,6,4.4,9.2,6.3c3.3,1.9,6.7,3.5,9.9,5.6
		c0.4,0.2,0.8,0.7,1.2,0.5c0.4-0.2,0.2-0.8,0.1-1.2c-0.8-2.8-1.7-5.6-2.3-7.5C341.4,110.8,338.2,109,334.9,107.5z M348.4,99.3
		c-0.7-0.5-1.1-1-1.3,0.4c-0.6,3.9-2.1,7.6-2.5,11.5c-0.1,0.8-0.1,1.6,0.2,2.4c1.5,3,2.3,6.3,3.3,9.5c0.3,1.2,0.6,1.4,1.5,0.4
		c3.3-3.4,5-7.8,6.8-12c0.5-1.1-0.3-1.9-0.6-2.8C353.8,105.1,351.6,101.8,348.4,99.3z M352.2,157.7c2.9-2.2,6.2-4,9.4-5.6
		c4.5-2.3,5.3-6,5.2-10.4c0-0.9,0.1-1.8,0-2.6c0-0.3-0.2-0.7-0.4-0.8c-0.3-0.2-0.5,0.2-0.7,0.4c-1.2,1.1-2.4,2.2-3.6,3.3
		c-2.4,2.2-5.3,3.7-7.9,5.6c-4,2.9-6,6.5-5.6,11.5c0,0.4-0.3,1.2,0.5,0.9C350.2,159.1,351.2,158.4,352.2,157.7z M352,163.7
		c-3.3,2.7-5.2,6-4.9,10.3c0.1,1.7-0.2,3.4,0.1,5.1c0,0.2,0.1,0.6,0.3,0.7c0.4,0.2,0.5-0.3,0.6-0.5c1.7-2.1,3-4.5,4.4-6.9
		c2.8-4.7,6-9.1,9-13.6c0.2-0.3,0.8-0.7,0.4-1.1c-0.4-0.4-0.7,0.3-1,0.2C357.7,159.7,354.7,161.5,352,163.7z M341.1,104
		c1.5-2.7,1.6-5.7,1-8.7c-0.1-0.7-0.7-1-1.3-1.3c-3.6-1.6-7.5-2.4-11.4-2.7c-0.6,0-1.3-0.1-1.5,0.5c-0.2,0.5,0.5,0.8,0.9,1.1
		c4.1,3.2,7.7,6.9,10.9,11c0.6,0.8,0.6,0.8,1.1,0.5C340.8,104.5,341,104.3,341.1,104z M328.6,101.1c2.4,1,4.8,1.9,7.2,2.8
		c0.3,0.1,0.6,0.3,0.9,0.1c0.3-0.3,0.1-0.6-0.2-0.8c-3.1-3.4-6.1-6.9-10-9.5c-1-0.7-1.8-0.6-2.6,0.3c-1,1.1-1.3,2-0.7,3
		C324.8,98.5,326.4,100.1,328.6,101.1z"/>
	<path class="st0" d="M316.8,318.2c0-0.2,0-0.4-0.1-0.6c-1.8-3.8-7.1-5.9-10.6-7.6c-5-2.3-10.5-4.3-16-4.6c-3.2-0.2-7.6,1.3-5.6,5.3
		c1.1,2.2,3,4,5.1,5.7c-12.3,0.7-24.6,1-36.9,1.3c-0.1-0.6-0.2-1.3-0.2-1.9c0-0.7-0.9-1.3-1.5-1.2c-0.8,0.1-1.2,0.8-1.2,1.5
		c0,0.6,0,1.1,0.1,1.7c-2.1,0-4.1,0.1-6.2,0.1c-0.3-1.6-0.6-3.3-1.2-4.8c-0.7-1.6-3.2-0.6-2.5,1c0.5,1.2,0.8,2.5,1,3.9
		c-1.7,0-3.4,0.1-5.1,0.1c-0.4,0-0.8,0-1.2,0c-1.5-2.1-3.2-4.1-4.4-6.4c-0.4-0.7-1.4-1.2-2.1-0.6c-1,0.9-1.8,2.1-2.7,3.3
		c-1.1,1.4-2.2,2.7-3.3,4c-2.5,0.1-5.1,0.1-7.6,0.2c0-1.5-0.1-3-0.1-4.5c-0.1-1.8-2.8-1.4-2.7,0.4c0,1.4,0.1,2.8,0.1,4.2
		c-2.3,0.1-4.6,0.1-6.9,0.2c0-0.7,0-1.3,0.1-2c0.2-1.8-2.5-2.1-2.7-0.3c-0.1,0.8-0.1,1.6-0.1,2.4c-8.7,0.2-17.3,0.5-26,0.8
		c2.7-2.4,4.5-5.7,4-9.6c-0.7-5.7-7.1-9.3-12.4-9.4c-5.6-0.1-9.1,6-5.9,10.8c1.3,1.9,3.8,3,6.1,2.7c2.8-0.3,3.6-3.3,3.5-5.6
		c-0.1-1.8-2.8-1.4-2.7,0.4c0.2,4.8-5.5,1.9-5.4-1.5c0.1-4.4,4.8-4.4,7.9-3.3c3.6,1.2,6.5,3.9,6.3,8c-0.2,3.8-3.6,6.6-7,7.8
		c-1.6,0.1-3.2,0.1-4.8,0.2c-4.7,0.2-9.3,0.4-14,0.6c2.5-2.3,3.9-5.5,3.5-9.2c-0.7-5.7-7.1-9.3-12.4-9.4c-5.6-0.1-9.1,6-5.9,10.8
		c1.3,1.9,3.8,3,6.1,2.7c2.8-0.3,3.6-3.3,3.5-5.6c-0.1-1.8-2.8-1.4-2.7,0.4c0.2,4.8-5.5,1.9-5.4-1.5c0.1-4.4,4.8-4.4,7.9-3.3
		c3.6,1.3,6.5,3.9,6.3,8c-0.1,3.4-3,6.1-6.1,7.5c-5.9,0.3-11.7,0.7-17.5,1.4c2.1-2.3,3.4-5.2,3-8.7c-0.7-5.7-7.1-9.3-12.4-9.4
		c-5.6-0.1-9.1,6-5.9,10.8c1.3,1.9,3.8,3,6.1,2.7c2.8-0.3,3.6-3.3,3.5-5.6c-0.1-1.8-2.8-1.4-2.7,0.3c0.2,4.8-5.5,1.9-5.4-1.5
		c0.1-4.4,4.8-4.4,7.9-3.3c3.6,1.3,6.5,3.9,6.3,8c-0.1,3.3-2.8,5.9-5.7,7.3c-1,0.1-2,0.3-3,0.4c-2.1,0.3-2.1,3.1-0.5,3.8
		c0.3,0.2,0.6,0.4,1.1,0.3c8.5-1.3,14.9,9.6,7.7,15.3c-3,2.4-8.2,3.5-10.3-0.5c-2.4-4.4,4.6-9.3,6.5-4.6c0.7,1.6,3.2,0.6,2.5-1
		c-2.4-5.9-10-3.6-12,1.4c-1.1,2.6,0.2,6.1,2.3,7.9c2.3,1.9,5.3,2.3,8.1,1.5c5.8-1.7,10.2-7.1,8.7-13.3c-0.8-3.3-3.1-6-6-7.6
		c7-0.8,14.1-1.3,21.2-1.7c6.6,1.5,10.5,10.2,4.3,15.2c-3,2.4-8.2,3.5-10.3-0.5c-2.4-4.4,4.6-9.3,6.5-4.6c0.7,1.6,3.2,0.6,2.5-1
		c-2.4-5.9-10-3.6-12,1.4c-1.1,2.6,0.2,6.1,2.3,7.9c2.3,1.9,5.3,2.3,8.1,1.5c5.8-1.7,10.2-7.1,8.7-13.3c-0.6-2.7-2.3-5-4.5-6.6
		c5.6-0.2,11.1-0.4,16.7-0.6c5.9,2.2,9.1,10.2,3.2,14.9c-3,2.4-8.2,3.5-10.3-0.5c-2.4-4.4,4.6-9.3,6.5-4.6c0.7,1.6,3.2,0.6,2.5-1
		c-2.4-5.9-10-3.6-12,1.4c-1.1,2.6,0.2,6.1,2.3,7.9c2.3,1.9,5.3,2.3,8.1,1.5c5.8-1.7,10.2-7.1,8.7-13.3c-0.6-2.4-2-4.6-4-6.2
		c8.6-0.3,17.1-0.6,25.7-0.8c0.2,0.5,0.3,1,0.6,1.5c0.7,1.6,3.3,0.6,2.5-1c-0.1-0.2-0.2-0.4-0.2-0.6c2.1-0.1,4.2-0.1,6.3-0.2
		c0,1.6,0,3.1,0.1,4.7c0,1.8,2.7,1.4,2.7-0.4c0-1.5,0-2.9,0-4.4c2.9-0.1,5.8-0.1,8.7-0.2c2.1,1.7,3.7,4.1,5.6,6
		c0.7,0.7,1.7,0.1,2.1-0.6c1-1.9,1.8-3.8,2.9-5.6c2.5-0.1,5-0.1,7.6-0.2c0.2,1.4,0.3,2.8,0.1,4.2c-0.3,1.7,2.4,2.1,2.7,0.3
		c0.2-1.5,0.2-3.1,0-4.6c0.3,0,0.5,0,0.8,0c1.9,0,3.7-0.1,5.6-0.1c0.1,0.2,0.1,0.4,0.2,0.7c0.2,0.7,1.1,1,1.8,0.8
		c0.6-0.3,0.9-0.9,0.8-1.5c11.9-0.3,23.8-0.5,35.6-1.2c-2.3,1.9-4.4,4.2-4.8,6.6c-0.9,4.6,5.7,4.9,8.6,4.8
		c5.7-0.1,11.6-1.8,16.6-4.2C313,325.9,317.8,322.7,316.8,318.2z"/>
</g>
</svg>
