<?xml version="1.0" encoding="utf-8"?>
<!-- Generator: Adobe Illustrator 21.1.0, SVG Export Plug-In . SVG Version: 6.00 Build 0)  -->
<svg version="1.1" id="Calque_1" xmlns="http://www.w3.org/2000/svg" xmlns:xlink="http://www.w3.org/1999/xlink" x="0px" y="0px"
	 viewBox="0 0 432 432" style="enable-background:new 0 0 432 432;" xml:space="preserve">
<style type="text/css">
	.st0{fill:#905269;}
	.st1{fill:#5B473E;}
	.st2{fill:#EE8081;}
	.st3{fill:#455063;}
	.st4{fill:#A5998D;}
	.st5{fill:#B94E46;}
	.st6{fill:#8D7867;}
	.st7{fill:#E4C08C;}
	.st8{fill:#BEC1A4;}
	.st9{fill:#B3AEA8;}
	.st10{fill:#F39DA0;}
	.st11{fill:#1A1A1A;}
	.st12{fill:#F7C7C5;}
	.st13{fill:#997BA1;}
	.st14{fill:#658367;}
	.st15{fill:#EA7563;}
	.st16{fill:#3BBACB;}
	.st17{fill:#F98600;}
	.st18{fill:#F5CD00;}
	.st19{fill:#CCCCCC;}
	.st20{fill:#449BC4;}
	.st21{fill:#C69C6D;}
	.st22{fill:#B7C8A4;}
	.st23{fill:#333333;}
	.st24{fill:#B6DB00;}
	.st25{fill:#C10810;}
	.st26{fill:#B98D4D;}
	.st27{fill:#D6A8B2;}
	.st28{fill:#F3532F;}
	.st29{fill:#0071BC;}
	.st30{fill:#006837;}
	.st31{fill:#F1E06C;}
	.st32{fill:#FFB07F;}
	.st33{fill:#B26E6E;}
	.st34{fill:#89A57D;}
	.st35{fill:#E4B1B1;}
	.st36{fill:#A35061;}
	.st37{fill:#677763;}
	.st38{fill:#DFAFB4;}
	.st39{fill:#6D2E2E;}
	.st40{fill:#D79191;}
	.st41{fill:#A51A1A;}
	.st42{fill:#E16F6F;}
	.st43{fill:#ECA3A3;}
	.st44{fill:#A99FC8;}
	.st45{fill:#F4CDA1;}
	.st46{fill:#F28460;}
	.st47{fill:#666666;}
	.st48{fill:#FE6467;}
	.st49{fill:#FBB03B;}
	.st50{fill:#5E417B;}
	.st51{fill:#8EA73D;}
	.st52{fill:#A677B5;}
	.st53{fill:#D397D5;}
	.st54{fill:#8FBA72;}
	.st55{fill:#525541;}
	.st56{fill:#FEB8BD;}
	.st57{fill:#B86B8B;}
	.st58{fill:#4EA8D0;}
	.st59{fill:#A7343B;}
	.st60{fill:#F3A61D;}
	.st61{fill:#BD607F;}
	.st62{fill:#678A6C;}
	.st63{fill:#5B2642;}
	.st64{fill:#A5A184;}
	.st65{fill:#BF8F56;}
	.st66{fill:#2C2B27;}
	.st67{fill:#3C3C3B;}
	.st68{fill:#E7AE61;}
	.st69{fill:#A3897A;}
	.st70{fill:#F1B4B4;}
	.st71{fill:#DEE1DA;}
	.st72{fill:#8BAA67;}
	.st73{fill:#634E42;}
	.st74{fill:#EF810D;}
	.st75{fill:#493D38;}
	.st76{fill:#DEBA88;}
	.st77{fill:#697279;}
	.st78{fill:#5A6054;}
	.st79{fill:#E6421C;}
	.st80{fill:#DCBA6E;}
	.st81{fill:#EB608A;}
	.st82{fill:#D8BFAC;}
	.st83{fill:#507B64;}
	.st84{fill:#7A6A58;}
	.st85{fill:#BD1622;}
	.st86{fill:#B18EAC;}
	.st87{fill:#82A091;}
	.st88{fill:#422813;}
	.st89{fill:#B17F49;}
	.st90{fill:#E68A9C;}
	.st91{fill:#1D1D1B;}
	.st92{fill:#E7A460;}
	.st93{fill:#6A7C5D;}
	.st94{fill:#B23032;}
	.st95{fill:#5E7C4A;}
	.st96{fill:#65052B;}
	.st97{fill:#C42A52;}
	.st98{fill:#390200;}
	.st99{fill:#A1A395;}
	.st100{fill:#ADA667;}
	.st101{fill:#886766;}
	.st102{fill:#96977D;}
	.st103{fill:#607254;}
	.st104{fill:#925673;}
	.st105{fill:#D86E63;}
	.st106{fill:#A2BC70;}
	.st107{fill:#E37A17;}
	.st108{fill:#778A15;}
	.st109{fill:#BE013B;}
	.st110{fill:#CAACC4;}
	.st111{fill:#874D80;}
	.st112{fill:#E7E2DE;}
	.st113{fill:#748565;}
	.st114{fill:#736357;}
	.st115{fill:#8E9091;}
	.st116{fill:#6A665F;}
	.st117{fill:#576B4A;}
	.st118{fill:#606060;}
	.st119{fill:#EBBFC0;}
	.st120{fill:#B297CA;}
	.st121{fill:#DCC6D6;}
	.st122{fill:#420909;}
	.st123{fill:#E2A759;}
	.st124{fill:#DD7576;}
	.st125{fill:#B23838;}
	.st126{fill:#CC9A6D;}
	.st127{fill:#7F454F;}
</style>
<g>
	<g>
		<path class="st72" d="M97,155.4c-17-10.8-25.4,8.1-31.1,23.8c-0.2-1.7,1.4-11.2,1.6-17.6c0.1-2.4-4-4.8-7.3-2.4
			c-9.5,7-6.9,55.5-0.5,74.1c0.8,2.5,3,2.5,5.4,2.4c2.5-0.1,4.9-0.3,4.7-1.8c-2.1-15.3-3.6-32.2-3.6-32.2s4.2,0,9.2-0.9
			C105.5,195.6,112.3,165.1,97,155.4z M82.4,192.5c-5.7,5.1-14.6,4.1-15.9,4.2c0-5.6,4.5-27.1,14.9-37.1
			C94.7,146.8,98.8,178,82.4,192.5z"/>
		<path class="st72" d="M261.4,183.8c7.5,0.3,7-11.5-0.1-10.6C252.4,174.2,254.1,183.4,261.4,183.8z"/>
		<path class="st72" d="M375.9,195.3c-0.6,0-1.2,0.4-1.7,1.1c-1,1.1-1.6,2.7-2.1,3.4c-0.9,1.3-1.7,2.5-2.6,3.6
			c-1.6,2-8.9,11.9-15.1,16.8c-2.5,1.9-5.5,4.1-8.2-5c-1.7-5.6-1.2-11.5-1.2-11.5s9.7-1.8,10.5-7.7c0.6-4.6-5-9.6-9.3-9.9
			c-7.7-0.3-12.6,6.9-13.8,15.4c-3.7,3.1-7.3,1.8-13-1.8c1.1-5.9,1.8-11,2-13.7c0.6-10.3-12.9-9.3-12.9,4c0,7,5.7,11.8,5.7,11.8
			s-4.4,23-5.4,24.1c-0.6-1.1-5.1-28.6-10-33.7c-1.4-1.5-2.5-1.7-3.7-1.9c-1.5-0.1-3.1,0-4,1.7c-0.5,1-0.8,2.9-0.9,5.3
			c-0.9,1.3-1.7,2.5-2.7,3.6c-0.6,0.9-1,0.9-6.4,7.9c-5,6-10,11.7-12.8,15.4c-2.7-28.1,0.9-36.9-7.5-35.9c-2.9,0.3-5.1,4.1-6.2,9.3
			c-7.1,10.6-16.7,18.4-24.6,27.6c-4.6-6.7-1.9-25.9-1.2-40.9c7.4-0.4,10.8-3.7,10.8-3.7c1.3-1.1,2-2.2,2.1-3.2
			c0.1-0.9-0.2-1.5-1.2-1.7c-0.6-0.2-1.2,0-1.8,0.3c-3.6,2.5-6.9,3.7-9.8,4.1c0.1-8.9-0.9-15.4-5.2-15.6c-1.9,0-4,0.5-5.4,4.9
			c0,0.2-1.3,3.1-2.2,8.2c-2.4-0.9-4.7-1.8-7.5-2.9c-21.5-7.7-28.8,9.7-19.2,9.5c9.3-0.2,3.2-9.5,16.7-5.7c3.1,0.9,6,2.2,9.2,3.4
			c-0.6,4.7-1,10.6-0.5,17.5c-0.3,0.4-0.6,1-1,1.4c-6.2,8-13.9,14.7-18.2,19c-0.2-1.6-0.3-4.3-0.5-7.9c-0.2-4.7,1.9-23.8-4.3-24
			c-3.9-0.2-5.4-0.3-7,7c-0.2,0.7-0.3,1.5-0.4,2.5c-5.5,7.8-12.5,12.6-20.6,16c-2.9-5.9-6.8-12.1-6.8-18.2c0-1.5,0.4-2.2,1.1-2.2
			c0.9,0,2,1.3,2.7,3.5c0.3,1.1,0.5,1.9,0.7,2.5c0.2,1,0.3,1.8,2.5,1.8c0.1,0,1.1,0.2,1.6-1.1c0.2-0.4,0.3-1.2,0.3-2.2
			c0-5.2-5.9-10.6-11.2-10.6c-7.3,0-8.6,8.9-8.7,11.8c-0.1,0.2-0.2,0.4-0.4,0.6c-1.8,2.9-5.1,5.2-9.3,6.6c-0.7-9.9-6.8-19-20.2-19.6
			c-10.8-0.5-21,13.8-8.8,22.6c-1.6,17.1,5.2,24.6,12.3,23.9c9.5-1,16-11.6,16.8-22.5c4.3-1.1,7.8-2.9,10.5-5.3
			c2.2,7.3,7.8,14.2,7.8,14.2s-3.9,4.8-3.9,11.1c0,2.1,0.7,5.7,5.1,5.7c4.8,0,11.1-4.6,11.1-12.1c0-2.4-0.7-4.7-1.7-7.3
			c7.1-2.8,13.9-6.1,19-11.2c0.5,9.3,3.3,20,9.3,20c6.2,0,17.8-12.9,23-19.2c1.6,9.9,6.5,25.8,14.3,23.4
			c3.7-0.7,16.4-13.7,23.9-22.9c0,1,0.1,1.9,0.2,2.9c0.6,6.1,2.7,12.4,6.5,17.5c5.5,7.1,12.3,1.4,30.1-22.1
			c1.1,7.7,3.9,17.6,9.5,26.3c1.4,2.1,3,4,5.9,3.7c4.4-0.2,9.2-16.6,12.2-30.7c5.9,2.9,10.3,3.1,13.7,2.1c0.1,5.8,1.9,11.5,5.7,15.4
			c3.5,3.5,8.1,5.4,12.9,4.5c0.3,0,0.6-0.1,1.1-0.3c6.3-1.7,19.2-16.1,22.4-20.4c1.1-1.4,1.9-2.7,2.6-3.9c1-1.6,1.5-3,1.5-4.1
			C378,195.6,376.3,195.3,375.9,195.3z M107.4,202.2c-0.1,0.7-0.3,1.3-0.3,2c-2-3.9-1.6-13.5,7.6-13.7c5.4-0.1,9.1,2.9,11.5,6.2
			c2.4,3.4,3.7,7.1,4.3,10.4c-3.7,0.7-7.9,0.8-12.3,0.4c0.5-3.3,1.3-6.7,2.4-10.4C121.7,192.9,110.2,188.1,107.4,202.2z
			 M120.3,227.8c-2.4-0.9-3.7-7.3-2.7-16.5c4.7,0.5,9.1,0.4,13.1-0.1C130.4,221.4,123.8,229.5,120.3,227.8z M155.2,233.4
			c-1.2,0-1.8-1.8-1.8-4.1c0-2.5,0.7-5.5,2.6-7.3c1.1,1.7,2.3,4.8,2.3,6.5C158.2,231.5,156.2,233.4,155.2,233.4z M315.2,196.5
			c-2.7-6.6,1.2-16,1.5-11C317.1,189.1,316,193,315.2,196.5z M348.6,191.8c1.3,1.6,1.3,3.1,0.6,4.4c-1.2,2.5-4.5,3-4.5,3
			C345.1,195.3,346.9,189.7,348.6,191.8z"/>
	</g>
	<g>
		<g>
			<path class="st67" d="M97.8,249.1c-0.2-0.9-0.3-1.4-2.4-1.8c-0.7-0.1-1.6,0-1.9,1c-0.5,1.3-6.7,15.1-7.1,15.2
				c-0.9-1.3-4.4-9.7-8.1-14.2c-0.8-0.9-1.4-1.9-2.2-2c-3.1-0.4-2.2,1.2-2.1,1.7c1.4,7.9,1.1,22,1.6,26.1c0.1,0.9,0.3,1.7,0.5,2.6
				c0.1,0.2,0.2,0.5,0.6,0.5c0.8,0.1,1.4-0.2,1.5-0.9c0.1-0.6,0.1-1.3,0.1-2c-1-18.6-1.2-19.8-1.3-21.5c2.1,4.6,5.1,12.2,9,12.2
				c2.3-0.1,5.6-10.3,6.9-12.6c-0.9,9.4,0.5,23.7,1.2,25.4c0.4,0.9,1.3,0.8,2.4,0.7c0.7,0,1.5,0,1.7-1.4c0.1-1.2-0.2-3.1-0.2-6.3
				C97.7,257,98.1,251.3,97.8,249.1z"/>
			<path class="st67" d="M104.5,264.7c-0.3-15.6,0.7-17.5-1.4-17.7c-1.4-0.1-2.5-0.3-2.9,1c0-0.2-2,15.1,1.3,30.3
				c0.3,1.4,0.5,1.4,2.1,1.3c1.7-0.1,1.8-1.4,1.5-3.4C105.1,275.6,104.7,273.2,104.5,264.7z"/>
			<path class="st67" d="M125.1,263.4c-0.7-13.5-0.5-16.2-2.5-16.1c-2.3,0.1,0.4,6.2,0.4,25.7c-2.1-3.4-9.5-23.3-14.8-24.1
				c-0.3,0-0.6,0-0.9,0.1c-0.8,0.3-0.9,0.7-0.8,1.4c0.8,4.8,1.1,9.7,1.1,14.6c0,5.3-0.3,10.7-0.1,13c0,0.1-0.1,1.4,1.2,1.4
				c0.9,0,0.9-0.4,0.9-1c0.3-8.8-0.2-20.9-0.2-20.9c2.2,3.2,3.5,6.9,5.1,10.3c6,12.9,7.7,12.2,10.7,12c1.3-0.1,0.5-4.7,0.4-6.7
				C125.5,269.7,125.3,266.6,125.1,263.4z"/>
			<path class="st67" d="M141.5,247.8c-6.8,0-8,20.8-8.1,22.2c-0.3-1.5-0.5-3-0.6-4.5c-1.3-13,2.9-17.4,0-18.5
				c-6.2-2.3-6.6,20.4-2.8,28.8c1.4,3.2,2.8,4.6,6.6,3.4C150.4,275,150.2,247.9,141.5,247.8z M137.8,276.2c-0.6,0.7-1.7,1.5-2.5,1.8
				c-1.6-19.5,4.4-27.9,5.5-27.8C141.7,250.3,145.1,267.5,137.8,276.2z"/>
		</g>
		<path class="st67" d="M173.7,260.1c4.2,5.1-4.2,13.1-9,5.7C161.3,260.4,169.4,254.9,173.7,260.1z"/>
		<g>
			<path class="st67" d="M207.6,247.9c-0.7-0.3-1.2-0.1-1.4,0.5c-1.8,4.6-6,26.3-6.3,26.7c0-0.2-0.1-0.4-0.2-0.6
				c-4-11.1-4.3-22.7-6.9-26.5c-0.4-0.5-0.9-0.7-1.7-0.6c-0.7,0.1-1.3,0.2-1.4,2.3c-0.3,6.5,5.3,30.1,9.5,30.1c3,0,2,0.8,4.6-14.1
				c0.9-5.3,1.6-7,4.3-16.7C208.3,248.2,208.4,248.2,207.6,247.9z"/>
			<path class="st67" d="M214.6,264.7c-0.3-15.6,0.7-17.5-1.4-17.7c-1.4-0.1-2.5-0.3-2.9,1c0-0.2-2,15.1,1.3,30.3
				c0.3,1.4,0.5,1.4,2.1,1.3c1.7-0.1,1.8-1.4,1.5-3.4C215.2,275.6,214.8,273.2,214.6,264.7z"/>
			<path class="st67" d="M238.2,254.5c0-3.9-2.2-7.8-5.1-7.8c-0.3,0-7,0.5-11,15.9c-0.1-2.2,1-12.1,1-12.8c0-1-1.9-0.9-2.4-0.9
				c-2.4,0-3.7,6.7-3.7,14.8c0,7.1,1.2,16,3.2,16c4,0,3.3-2.4,3.3-2.4s0.3,0.1,1.6,0.1c5.3,0,9.9-2.7,9.9-5.5c0-3.1-5.4-4.4-6.5-4.7
				C229.4,266.7,238.2,263.5,238.2,254.5z M230.2,271.8c0,3.7-6.5,3.5-6.9,3.4c-0.2-0.6-0.7-3.7-0.4-6c0,0,1.4-0.3,2.5-0.3
				C228.8,268.9,230.2,270.4,230.2,271.8z M230.5,260.9c-2.2,3.6-6.1,6-7.4,6c0-1.4,1.1-5.8,1.3-6.2c2-5.7,6-11.7,7.9-11.7
				C233.5,248.9,233.3,256.5,230.5,260.9z"/>
			<path class="st67" d="M250.1,249.2c1.1,0,2-0.3,2-1.2c0-0.3,0-0.4-0.5-0.5c-0.8-0.3-2.3-0.2-4-0.2c-2.8,0-6.5-0.1-6.7,1.7
				c-1,5-3.3,29.7,2.9,30.7c1.9,0.3,9.3,0.5,7.9-1.4c-0.5-0.7-0.9-0.3-4.1-0.5c-0.1,0-1.6,0-1.6,0s-0.2-2.8-0.4-6.8
				c0.3,0,0.6,0,0.9,0c0.5,0,1.1,0,1.5-0.1c0.5-0.2,0.4-0.7,0.2-1c0-0.1-0.2-0.3-0.4-0.4c0,0-0.1,0-0.1,0c-0.7,0-1.4,0-2.2,0
				c0-1.2,0-2.5-0.1-3.8c-0.1-8,0.7-16.2,0.7-16.2S248,249.2,250.1,249.2z"/>
			<path class="st67" d="M264.2,264.2c-2-2.5-10.4-10.7-5.3-15.2c1.2-1,4.5,2,4.8,5.5c0,0.4,0.3,0.5,0.6,0.5c0.4,0,0.6-0.2,0.8-0.4
				c0.5-0.6,0.5-1.3,0.3-2c-1.5-5.7-9.4-7.9-12-2.2c-2.5,5.5,1.3,9.3,5.6,14.9c11.5,15-4.7,17.3-3.4,5.2c0.1-0.5,0-0.9,0.1-1.4
				c0-0.3-0.2-0.5-0.5-0.5c-0.5-0.1-0.9,0.1-1,0.7C250,286.8,276.9,280.2,264.2,264.2z"/>
		</g>
		<path class="st67" d="M293.8,260.1c4.2,5.1-4.2,13.1-9,5.7C281.3,260.4,289.4,254.9,293.8,260.1z"/>
		<g>
			<path class="st67" d="M323.7,277c-1.5,0-8.3,0.7-8.3,0.7s0-28.5,0-28.6c0.1-1.8-0.9-1.6-2-1.8c-1.1-0.2-1.8,0-2.2,1.2
				c-2.1,5.8-2.1,30.5,1,31c1,0.2,4.9-0.1,8.2-0.5c1.5-0.2,5.5-0.4,5-1.7C325.3,276.9,324.2,277,323.7,277z"/>
			<path class="st67" d="M330.4,264.7c-0.3-15.6,0.7-17.5-1.4-17.7c-1.4-0.1-2.5-0.3-2.9,1c0-0.2-2,15.1,1.3,30.3
				c0.3,1.4,0.5,1.4,2.1,1.3c1.7-0.1,1.8-1.4,1.5-3.4C331,275.6,330.5,273.2,330.4,264.7z"/>
			<path class="st67" d="M344.9,247.5c-0.8-0.3-2.3-0.2-4-0.2c-2.8,0-7-0.1-7.3,1.7c-1.1,7-1.4,19.5,0.4,26.5c1.2,4.6,1.3,4.2,3.7,4
				c0.9,0,1.2-0.2,1.3-0.9c0-0.8,0-7.6-0.1-7.6c1.5,0,1.9,0,2.3-0.1c0.6-0.3,0.4-1.4-0.3-1.4c-0.7,0-1.4,0-2.2,0
				c-0.4-11.3,0.5-19.2,0.6-20c0,0,1.9-0.1,3.9-0.1c1.1,0,2-0.3,2-1.2C345.3,247.8,345.3,247.6,344.9,247.5z"/>
			<path class="st67" d="M353.9,277.7c-0.1,0-1.6,0-1.6,0s-0.2-2.8-0.4-6.8c0.3,0,0.6,0,0.9,0c0.5,0,1.1,0,1.5-0.1
				c0.5-0.2,0.4-0.7,0.2-1c0-0.1-0.2-0.3-0.4-0.4c0,0-0.1,0-0.1,0c-0.7,0-1.4,0-2.2,0c0-1.2,0-2.5-0.1-3.8c-0.1-8,0.7-16.2,0.7-16.2
				s1.9-0.1,3.9-0.1c1.1,0,2-0.3,2-1.2c0-0.3,0-0.4-0.5-0.5c-0.8-0.3-2.3-0.2-4-0.2c-2.8,0-6.5-0.1-6.7,1.7c-1,5-3.3,29.7,2.9,30.7
				c1.9,0.3,9.3,0.5,7.9-1.4C357.5,277.5,357.2,277.9,353.9,277.7z"/>
		</g>
	</g>
</g>
</svg>
