<?xml version="1.0" encoding="utf-8"?>
<!-- Generator: Adobe Illustrator 20.1.0, SVG Export Plug-In . SVG Version: 6.00 Build 0)  -->
<svg version="1.1" id="Calque_1" xmlns="http://www.w3.org/2000/svg" xmlns:xlink="http://www.w3.org/1999/xlink" x="0px" y="0px"
	 viewBox="0 0 432 432" style="enable-background:new 0 0 432 432;" xml:space="preserve">
<style type="text/css">
	.st0{stroke:#000000;stroke-width:2.2536;stroke-linecap:round;stroke-linejoin:round;stroke-miterlimit:10;}
	.st1{fill:#C9973C;}
	.st2{fill:#CC7B26;}
	.st3{fill:#CB9A3E;}
	.st4{fill:#C9983C;}
	.st5{fill:#31AC67;}
	.st6{fill-rule:evenodd;clip-rule:evenodd;fill:#CC7B26;}
	.st7{fill:#9D9D9C;}
</style>
<g>
	<g>
		<path class="st0" d="M220.4,148.6c0,0.1-0.3,0.7-1,1.8c-0.6,1.2-1.6,2.6-2.9,4.2c-1.2,1.4-2.8,3-4.8,4.5c-2,1.6-4.4,2.8-7.3,3.5
			c-8.1,2.2-17.3-0.5-27.5-7.9c-0.3-0.2-0.5-0.3-0.8-0.5c-0.2-0.2-0.5-0.3-0.8-0.4c0.1-0.4,0.3-0.9,0.4-1.3c0.2-0.4,0.3-0.9,0.4-1.3
			c0.9-3.2,1.4-6.9,1.6-11c0.2-4.1,0.3-8.3,0.5-12.5c0.1-4.4,0.3-8.8,0.5-13.2c0.2-4.3,0.8-8.2,1.8-11.6c0.9-3.1,2.1-5.5,3.6-7.3
			c0.8,0.2,1.6,0.3,2.4,0.5c0.8,0.2,1.7,0.4,2.6,0.6c1.9,0.5,3.6,0.7,5.1,0.5c1.4-0.2,2.5-0.7,3.2-1.5c0.7-0.8,0.9-1.6,0.4-2.6
			c-0.3-0.7-0.9-1.3-1.8-1.7c-0.9-0.4-1.9-0.6-3.2-0.6c-3.5,0-6.3,1.1-8.5,3.3l-0.5,0.5c-7.7-1.6-14.3-2-19.9-1.3
			c-2.9,0.4-5.4,1.2-7.6,2.2c-2.2,1-4,2.3-5.3,4c-1.7,2-2.6,4.3-2.8,6.8c-0.2,2.2,0.2,4.5,1.2,6.8c1.1,2.4,2.7,4.3,4.8,5.6
			c2.1,1.4,4.4,2,7,2c0.3,0,0.4-0.1,0.4-0.4c0-0.3-0.1-0.4-0.4-0.4c-2.4,0-4.6-0.6-6.5-1.9c-1.9-1.3-3.4-3.1-4.5-5.3
			c-1.1-2.1-1.4-4.3-1.2-6.6c0.3-2.3,1.1-4.3,2.6-6.1c1.3-1.6,3-2.8,5-3.8c2.1-1,4.5-1.7,7.4-2c5.2-0.7,11.6-0.3,19.2,1.2
			c-1.4,1.8-2.6,4.2-3.4,7.2c-0.9,3.5-1.5,7.4-1.8,11.8s-0.4,8.7-0.5,13.2c-0.1,4.2-0.3,8.4-0.5,12.5c-0.2,4.1-0.7,7.8-1.6,11
			c-0.1,0.4-0.2,0.9-0.4,1.3c-0.1,0.4-0.3,0.8-0.4,1.2c-1.8-0.9-3.5-1.4-5.2-1.4c-2.1-0.1-3.9,0.4-5.5,1.7c-1.2,0.8-2,1.9-2.6,3.1
			c-0.6,1.2-0.7,2.3-0.4,3.3c0.1,0.4,0.4,0.9,0.9,1.4c0.5,0.5,1.4,0.7,2.7,0.7c3.1,0,5.7-1,7.7-3c1.2-1.3,2.1-2.8,2.8-4.5
			c0.2,0.1,0.4,0.2,0.6,0.4c0.2,0.1,0.4,0.3,0.7,0.5c7.9,5.9,15.4,8.8,22.3,8.8c2.1,0,4-0.2,5.8-0.8c3-0.8,5.5-2,7.6-3.7
			c2.1-1.7,3.8-3.3,5-4.8c1.3-1.6,2.3-3,3-4.2c0.6-1.2,1-1.8,1-2c0.1-0.2,0.1-0.4-0.2-0.5C220.7,148.3,220.5,148.4,220.4,148.6z
			 M192.8,91.8c1.3,0,2.3,0.2,2.9,0.5c0.7,0.4,1.1,0.8,1.3,1.2c0.3,0.6,0.2,1.2-0.3,1.7c-0.4,0.6-1.3,1-2.5,1.2
			c-1.2,0.2-2.9,0.1-5-0.5c-0.8-0.2-1.5-0.3-2.3-0.5c-0.8-0.2-1.5-0.4-2.3-0.5C186.8,92.8,189.5,91.8,192.8,91.8z M164.5,161.3
			c-1.6,0-2.5-0.5-2.8-1.5c-0.3-0.8-0.2-1.7,0.4-2.7c0.5-1,1.3-1.9,2.4-2.7c0.4-0.3,1.1-0.7,1.9-1c0.8-0.4,1.8-0.5,3-0.5
			c1.5,0,3.2,0.5,5,1.4C172.3,158.9,169.1,161.3,164.5,161.3z"/>
		<path class="st0" d="M225.7,114.1c0.8,0,1.2-0.4,1.2-1.2c0-0.8-0.4-1.2-1.2-1.2c-0.8,0-1.2,0.4-1.2,1.2
			C224.5,113.7,224.9,114.1,225.7,114.1z"/>
		<path class="st0" d="M292,129.7c-0.2-0.1-0.4-0.1-0.6,0.2c-0.6,1.1-1.3,2.1-2,3.3c-0.6,0.9-1.3,2-2.2,3.3
			c-0.9,1.3-1.8,2.5-2.7,3.8c-5.1,6.8-8.9,10.3-11.7,10.3c-2.6,0-4.6-1-5.9-2.9c-1.2-1.8-1.8-4.2-1.8-7.2c0-0.4,0-0.8,0-1.2
			c0-0.4,0.1-0.8,0.2-1.2c0.3,0.1,0.8,0.1,1.5,0.1c0.6,0,1.3-0.1,2.1-0.2c1.1-0.1,2.4-0.5,3.9-1.1c1.5-0.6,2.9-1.7,4.3-3.3
			c1.3-1.5,2.3-3.2,2.8-5.1c0.6-1.8,0.5-3.2-0.1-4.3c-0.6-1.3-1.6-2-3.1-2c-1.8,0-3.4,0.5-5,1.6c-1.5,1.1-2.9,2.6-4.1,4.5
			c-0.3,0.4-0.5,0.9-0.8,1.4c-0.1,0-0.2,0.1-0.2,0.3c-1,1.9-2,3.5-2.9,4.7c-0.9,1.2-2,2.2-3.3,3.2c-1.3,0.9-2.6,1.4-4.1,1.4
			c-1.1,0-2.2-0.2-3.2-0.6c-1-0.4-1.9-0.8-2.7-1.3c-0.2-1.1-0.5-2-0.8-2.9c-0.3-0.9-0.6-1.7-0.8-2.5c-1-2.4-2.2-3.9-3.5-4.4
			c3.3-2.5,6.3-5,9-7.4c2.8-2.4,5.2-4.8,7.4-7.1c2.1-2.1,3.9-4.2,5.5-6.3c1.6-2.1,2.9-4.1,4-6c1.2-2.2,2.1-4.2,2.5-6
			c0.5-1.8,0.7-3.3,0.7-4.6c0-1.3-0.2-2.4-0.5-3.3c-0.3-0.9-0.7-1.6-1.1-2.2c-1.4-2.1-3.4-3.2-6.1-3.5c-1.3-0.2-2.6-0.1-3.9,0.2
			c-1.3,0.3-2.5,0.8-3.7,1.5c-2.9,1.8-5.8,6.6-8.6,14.3c-1.2,3.3-2.4,7.2-3.5,11.5c-1.1,4.3-2.1,9-3.1,14c-0.4,2.1-0.8,4.3-1.2,6.4
			c0,0-0.1,0.1-0.1,0.2c-0.6,1.1-1.1,2.3-1.8,3.5c-0.6,1.1-1.2,2.3-1.8,3.6c-0.7,1.4-1.4,2.7-2.2,4.1c-1.4,2.5-2.6,4.5-3.5,6
			c-0.9,1.5-1.7,2.7-2.3,3.5c-0.6,0.8-1.1,1.3-1.4,1.6c-0.3,0.3-0.5,0.4-0.7,0.4c-1.4,0-2.6-0.6-3.5-1.7c-0.7-0.8-1.3-1.9-1.7-3.3
			c-0.4-1.4-0.7-2.8-0.9-4.3c-0.2-1.5-0.3-3.1-0.3-4.7c0-1.6,0-3,0.1-4.3c0.1-1.3,0.2-2.7,0.4-4.3c0-0.3-0.1-0.5-0.3-0.5
			c-0.3,0-0.5,0.1-0.5,0.3c0,0.1-0.1,0.9-0.3,2.5c-0.2,1.6-0.3,3.6-0.3,5.9c0,3.1,0.3,5.7,0.8,8c0.6,2.3,1.3,4,2.3,5.2
			c1.2,1.3,2.6,1.9,4.2,1.9c0.3,0,0.6-0.1,1-0.4c0.4-0.3,0.9-0.8,1.6-1.7c0.7-0.9,1.5-2.1,2.5-3.6c1-1.6,2.2-3.6,3.6-6.3
			c0.8-1.4,1.5-2.8,2.2-4.1c0.7-1.3,1.3-2.5,1.8-3.6c0.2-0.4,0.4-0.8,0.6-1.3c-0.3,1.8-0.5,3.5-0.8,5.3c-0.6,4.9-1.1,9.5-1.5,14
			c-0.4,4.4-0.6,8.6-0.6,12.4c-0.1,3.8,0.1,7.1,0.3,9.9c0.6,5.1,1.7,7.9,3.3,8.4c0.3,0.1,0.6,0.2,0.8,0.2c0.8,0,1.8-0.5,2.8-1.5
			c1.7-1.7,3-4.7,4-9.1c0.9-3.9,1.4-8.5,1.4-13.7c0.1-3.5,0-6.9-0.2-10.3c-0.3-3.4-0.7-6.4-1.3-9.2c0.8,0.4,1.6,0.8,2.6,1.2
			c0.9,0.3,1.9,0.5,3,0.5c1.3,0,2.7-0.4,4-1.3c1.4-0.8,2.7-2.1,4-3.7c0.3-0.4,0.5-0.7,0.8-1c-0.3,1-0.5,2.1-0.7,3.1
			c-0.2,0.2-0.3,0.3-0.3,0.3c0,0.2,0.1,0.3,0.2,0.4c-0.1,0.4-0.1,0.9-0.1,1.3c0,0.4,0,0.8,0,1.3c0,3.2,0.7,5.8,2,7.7
			c1.5,2.2,3.7,3.3,6.6,3.3c3,0,7.1-3.5,12.3-10.6c0.9-1.3,1.8-2.5,2.7-3.8c0.9-1.3,1.6-2.4,2.2-3.4c0.7-1.1,1.4-2.2,2.1-3.3
			C292.3,129.9,292.3,129.7,292,129.7z M244.8,125c0.1-0.7,0.3-1.4,0.4-2.2c0.9-5,2-9.6,3.1-13.9c1.1-4.3,2.3-8.1,3.5-11.4
			c2.7-7.5,5.4-12.1,8.2-13.8c1.9-1.2,3.9-1.8,5.9-1.8c1.3,0,2.6,0.3,3.8,0.8c1.2,0.5,2.1,1.3,2.9,2.5c0.3,0.5,0.7,1.2,1,2
			c0.3,0.8,0.4,1.9,0.4,3.1c0,1.2-0.3,2.7-0.7,4.3c-0.4,1.7-1.3,3.6-2.4,5.7c-4.6,8.2-13.3,17.2-26.3,27
			C244.5,126.4,244.6,125.7,244.8,125z M244.4,128.1c0-0.1,0.1-0.1,0.2-0.1c0.8,0,1.6,0.4,2.2,1.3c0.6,0.9,1.2,1.8,1.5,2.8
			c0.3,0.6,0.5,1.3,0.7,2c0.2,0.7,0.4,1.5,0.6,2.3c-0.4-0.3-0.7-0.6-1-0.8c-0.3-0.3-0.5-0.5-0.8-0.8c-1.1-1.2-2-2.4-2.6-3.6
			c-0.6-1.2-1-2.1-1-2.7C244.3,128.3,244.3,128.1,244.4,128.1z M251.3,147.1c0.3,3.5,0.4,7,0.3,10.7c-0.1,5.4-0.6,10.1-1.5,14
			c-0.9,3.9-2.1,6.6-3.6,8.1c-1.1,1-2,1.4-2.6,1.2c-0.2-0.1-0.4-0.2-0.7-0.5c-0.3-0.2-0.5-0.7-0.8-1.3c-0.2-0.6-0.5-1.4-0.8-2.3
			c-0.3-1-0.5-2.2-0.6-3.7c-0.3-2.4-0.4-5.2-0.4-8.4c0-3.2,0.2-6.7,0.4-10.4c0.2-3.7,0.6-7.6,1.1-11.8c0.5-4.1,1.1-8.3,1.8-12.5
			c0.3,0.8,0.7,1.6,1.3,2.5c0.6,0.9,1.3,1.7,2,2.5c0.7,0.8,1.6,1.6,2.8,2.4C250.6,140.5,251,143.6,251.3,147.1z M269.3,127.3
			c1-1.3,2.1-2.4,3.4-3.2c1.3-0.8,2.6-1.2,4.1-1.2c1.1,0,1.9,0.5,2.3,1.5c0.4,0.9,0.5,2.2,0.1,3.8c-0.4,1.6-1.3,3.1-2.7,4.8
			c-2.1,2.3-4.7,3.8-7.8,4.3c-0.8,0.1-1.5,0.2-2,0.1c-0.6,0-1-0.1-1.4-0.1c0.3-1.8,0.8-3.6,1.4-5.3
			C267.5,130.2,268.3,128.7,269.3,127.3z"/>
	</g>
	<g>
		<path class="st0" d="M113.5,214.1c0.8,0,1.2-0.4,1.2-1.2c0-0.8-0.4-1.2-1.2-1.2c-0.8,0-1.2,0.4-1.2,1.2
			C112.3,213.7,112.7,214.1,113.5,214.1z"/>
		<path class="st0" d="M153.3,228.9c-0.3-0.1-0.5,0-0.6,0.3c-1.8,4.3-3.9,7.8-6.3,10.5c-2.4,2.7-4.9,5-7.3,6.8
			c-0.6-2.3-1.5-4.8-2.6-7.5c-1.1-2.6-2.3-5.3-3.5-8c-0.2-0.4-0.3-0.7-0.5-1.1c-0.2-0.3-0.3-0.7-0.5-1c0.8-1.8,1.5-3.6,2-5.6
			c0.6-1.9,1-3.8,1.4-5.4c1-5.1,0.9-8.6-0.4-10.4c-0.8-1.2-2-1.8-3.6-1.8c-2.4,0-4.2,0.7-5.2,2.2c-0.6,0.9-0.9,2.2-0.8,3.6
			c0.1,1.5,0.3,3.1,0.8,5c0.5,1.8,1.2,3.8,2,6c0.9,2.1,1.8,4.3,2.8,6.5c-0.1,0-0.2,0.1-0.2,0.3c-0.6,1.1-1.1,2.3-1.8,3.5
			c-0.6,1.1-1.2,2.3-1.8,3.6c-0.7,1.4-1.4,2.7-2.2,4.1c-1.4,2.5-2.6,4.5-3.5,6c-0.9,1.5-1.7,2.7-2.3,3.5c-0.6,0.8-1.1,1.3-1.4,1.6
			c-0.3,0.3-0.5,0.4-0.7,0.4c-1.4,0-2.6-0.6-3.5-1.7c-0.7-0.8-1.3-1.9-1.7-3.3c-0.4-1.4-0.7-2.8-0.9-4.3c-0.2-1.5-0.3-3.1-0.3-4.7
			c0-1.6,0-3,0.1-4.3c0.1-1.3,0.2-2.7,0.4-4.3c0-0.3-0.1-0.5-0.3-0.5c-0.3,0-0.5,0.1-0.5,0.3c0,0.1-0.1,0.9-0.3,2.5
			c-0.2,1.6-0.3,3.6-0.3,5.9c0,3.1,0.3,5.7,0.8,8c0.6,2.3,1.3,4,2.3,5.2c1.2,1.3,2.6,1.9,4.2,1.9c0.3,0,0.6-0.1,1-0.4
			c0.4-0.3,0.9-0.8,1.6-1.7c0.7-0.9,1.5-2.1,2.5-3.6c1-1.6,2.2-3.6,3.6-6.3c0.8-1.4,1.5-2.8,2.2-4.1c0.7-1.3,1.3-2.5,1.8-3.6
			c0.5-1,1-2.1,1.6-3.3c0,0,0,0,0,0c0.3,0.6,0.5,1.1,0.7,1.6c1.3,2.7,2.5,5.4,3.6,8.1c1.1,2.7,2,5.2,2.6,7.5c-0.5,0.4-1,0.8-1.5,1.1
			c-0.5,0.3-1,0.7-1.4,1c-1.2,0.8-2.3,1.6-3.3,2.4c-1,0.8-1.8,1.5-2.4,2.3c-0.6,0.8-1,1.6-1.1,2.4c-0.1,0.9,0,1.8,0.5,2.8
			c0.3,0.8,0.8,1.4,1.5,1.7c0.7,0.4,1.4,0.6,2.3,0.6c0.3,0,0.6-0.1,1.1-0.2c1.5-0.3,2.9-1.3,4.2-2.8c1.3-1.5,1.9-3.7,1.9-6.4
			c0-1.3-0.2-2.8-0.7-4.6c1.2-0.9,2.5-2,3.8-3.1c1.3-1.1,2.6-2.4,3.8-3.8c1.2-1.4,2.4-3,3.5-4.8c1.1-1.8,2.2-3.8,3-6
			C153.6,229.3,153.6,229.1,153.3,228.9z M129,221.8c-0.8-2-1.4-3.8-1.9-5.5c-0.5-1.7-0.8-3.3-0.8-4.6c-0.1-1.4,0.2-2.5,0.8-3.3
			c0.7-1.2,2.2-1.8,4.4-1.8c1.3,0,2.3,0.5,2.9,1.4c0.6,0.9,0.9,2.2,0.9,3.9c0,1.6-0.2,3.4-0.5,5.3c-0.4,1.9-0.8,3.8-1.4,5.7
			c-0.6,1.9-1.2,3.6-1.7,5.1C130.6,225.8,129.7,223.8,129,221.8z M137.4,257.7c-1.1,1.4-2.4,2.2-3.7,2.5c-1.9,0.4-3.2-0.1-3.9-1.7
			c-0.7-1.6-0.4-3,0.7-4.4c0.6-0.7,1.4-1.4,2.3-2.1c0.9-0.7,2-1.5,3.1-2.3c0.4-0.3,0.9-0.6,1.3-0.9c0.4-0.3,0.9-0.7,1.3-1
			c0.2,0.8,0.3,1.5,0.4,2.2c0.1,0.7,0.2,1.3,0.2,1.9C139.1,254.4,138.6,256.3,137.4,257.7z"/>
		<path class="st0" d="M322.7,190.4c-0.8-2.8-2.4-5.2-4.7-7c-1.5-1.2-3.1-2-4.7-2.3c-1.8-0.3-3.5,0.1-5.1,1
			c-2.7,1.7-5.2,5.2-7.7,10.7c-1.1,2.4-2,5.2-3,8.1c-0.9,3-1.7,6.2-2.4,9.5c-0.2,1-0.4,2-0.6,3c-0.2,1-0.3,2-0.5,3
			c-0.1,0-0.2,0-0.3,0c-0.1,0-0.2,0-0.3,0c-0.9-0.1-1.9-0.2-2.8-0.2c-0.9,0-1.8,0.2-2.8,0.6c-0.3,0.1-0.4,0.3-0.3,0.6
			c0.2,0.2,0.3,0.3,0.4,0.3c0.1,0,0.1,0,0.1,0c0,0,0,0,0.1,0c0.9-0.4,1.7-0.6,2.5-0.5c0.8,0,1.7,0.1,2.6,0.2c0.1,0,0.2,0,0.3,0
			c0.1,0,0.2,0,0.3,0c-0.6,4.1-1,8-1.2,11.8c0,0-0.1,0.1-0.1,0.1c-0.6,1.3-1.1,2.5-1.5,3.6c-0.5,1.1-1,2.3-1.7,3.6
			c-0.6,1.3-1.3,2.7-2,4.1c-1.3,2.4-2.4,4.3-3.3,5.8c-0.9,1.4-1.8,2.6-2.5,3.3c-0.7,0.8-1.3,1.3-1.8,1.5c-0.5,0.3-0.8,0.4-1.1,0.4
			c-1.1,0-1.8-1.6-2.3-4.7c-0.2-1.5-0.4-3.2-0.4-5c-0.1-1.8-0.1-3.6-0.2-5.2c0-0.9-0.2-1.8-0.5-2.5c-0.3-0.7-0.8-1.3-1.3-1.8
			c-0.5-0.5-1.1-1-1.8-1.4c-0.7-0.4-1.4-0.8-2.1-1.3l-1.3-0.8c2.6-5.5,4.1-10.2,4.4-14.1c0.2-2.2,0-3.8-0.4-5
			c-0.4-1.2-0.9-2.1-1.4-2.6c-1.4-1.5-3.2-1.8-5.3-1c-1.6,0.6-2.9,1.8-3.9,3.5c-1.1,1.9-1.7,4.1-1.7,6.8c0,3.9,1,7,3,9.4
			c0.6,0.8,1.3,1.4,1.9,2c0.7,0.5,1.4,1,2.2,1.5c0,0.1,0,0.2,0,0.3c-1,1.8-1.9,3.3-2.8,4.4c-0.9,1.2-2,2.2-3.3,3.2
			c-1.3,0.9-2.6,1.4-4.1,1.4s-2.8-0.1-3.8-0.3c0.2-1.2,0.3-2.4,0.3-3.7c0-3.9-0.8-7.1-2.3-9.6c-1.6-2.9-4-4.3-7.2-4.3
			c-1,0-1.8,0.3-2.5,1c-0.7,0.7-1.1,1.7-1.2,3c-0.4,0.3-0.9,0.7-1.3,1.1c-0.4,0.4-0.8,0.9-1.1,1.5c-0.5,0.8-1,1.7-1.4,2.5
			c-0.1,0-0.1,0.1-0.1,0.2c-0.5,1.1-1.1,2.3-1.7,3.5c-0.5,1.1-1.1,2.3-1.7,3.6c-0.6,1.3-1.3,2.7-2.1,4.1c-1.3,2.4-2.5,4.4-3.5,5.8
			c-1,1.4-1.8,2.6-2.5,3.3c-0.7,0.8-1.3,1.3-1.8,1.5c-0.5,0.3-0.8,0.4-1,0.4c-1,0-1.8-1.5-2.4-4.5c-0.3-1.4-0.5-3-0.7-4.7
			c-0.2-1.7-0.3-3.3-0.5-5c-0.3-3.1-0.5-5.3-0.7-6.5c-0.2-1.2-0.6-1.8-1.2-1.8c-1.6,0-3.3,1.1-5.3,3.4c-1.7,1.9-3.2,4.5-4.5,7.7
			c-1.3,3.2-1.8,6.8-1.5,10.7c-1.1-1.2-2.1-2.6-2.9-4.4c-0.8-1.8-1.4-3.9-1.9-6.3c-0.4-1.9-0.7-3.9-0.8-6c-0.1-1.7-0.1-3.5-0.1-5.3
			c0-0.1,0-0.1,0-0.2c0-0.4,0-0.8,0-1.3c0.2,0.1,0.3,0.1,0.5,0c3.4-2.6,6.6-5.2,9.4-7.7c2.8-2.5,5.4-4.9,7.8-7.3
			c4.2-4.4,7.4-8.5,9.4-12.3c1.2-2.2,2.1-4.2,2.6-6c0.5-1.8,0.7-3.3,0.7-4.6c0-1.3-0.2-2.4-0.5-3.3c-0.3-0.9-0.7-1.6-1.1-2.2
			c-1.4-2.1-3.4-3.3-6-3.6c-1.3-0.2-2.6-0.1-3.9,0.2c-1.3,0.3-2.6,0.8-3.8,1.5c-1.2,0.8-2.4,1.8-3.4,3c-1.1,1.2-2,2.5-2.9,3.9
			c-0.9,1.4-1.6,2.9-2.3,4.4c-0.7,1.5-1.3,3-1.8,4.4c-1.4,3.7-2.5,7.6-3.4,11.8c-0.9,4.2-1.5,8.4-1.9,12.7c-0.2,2.1-0.3,4.2-0.3,6.2
			c-1.8,4.3-3.9,7.7-6.3,10.4c-2.4,2.7-4.9,5-7.3,6.8c-0.6-2.3-1.5-4.8-2.6-7.5c-1.1-2.6-2.3-5.3-3.5-8c-0.2-0.4-0.3-0.7-0.5-1.1
			c-0.2-0.3-0.3-0.7-0.5-1c0.8-1.8,1.5-3.6,2-5.6c0.6-1.9,1-3.8,1.4-5.4c1-5.1,0.9-8.6-0.4-10.4c-0.8-1.2-2-1.8-3.6-1.8
			c-2.4,0-4.2,0.7-5.2,2.2c-0.6,0.9-0.9,2.2-0.8,3.6c0.1,1.5,0.3,3.1,0.8,5c0.5,1.8,1.2,3.8,2,6c0.9,2.1,1.8,4.3,2.8,6.5
			c0,0.1,0,0.2-0.1,0.3c-0.1,0.2,0,0.4,0.3,0.5c0.1,0.1,0.1,0.1,0.3,0.1c0.3,0.6,0.5,1.1,0.7,1.6c1.3,2.7,2.5,5.4,3.6,8.1
			c1.1,2.7,2,5.2,2.6,7.5c-0.5,0.4-1,0.8-1.5,1.1c-0.5,0.3-1,0.7-1.4,1c-1.2,0.8-2.3,1.6-3.3,2.4c-1,0.8-1.8,1.5-2.4,2.3
			c-0.6,0.8-1,1.6-1.1,2.4c-0.1,0.9,0,1.8,0.5,2.8c0.3,0.8,0.8,1.4,1.5,1.7c0.7,0.4,1.4,0.6,2.3,0.6c0.3,0,0.6-0.1,1.1-0.2
			c1.5-0.3,2.9-1.3,4.2-2.8c1.3-1.5,1.9-3.7,1.9-6.4c0-1.3-0.2-2.8-0.7-4.6c1.2-0.9,2.5-2,3.8-3.1c1.3-1.1,2.6-2.4,3.8-3.8
			c1.2-1.4,2.4-3,3.5-4.8c0.8-1.3,1.6-2.7,2.3-4.3c0,0.4,0,0.9,0,1.3c0.1,3,0.4,5.8,0.9,8.3c1.1,5.6,3.1,9.6,5.8,12
			c0.1,0.1,0.1,0.1,0.2,0.1h0.3c0.2-0.1,0.3-0.3,0.2-0.4c-0.3-2-0.3-3.9,0-5.8c0.2-1.9,0.7-3.6,1.3-5.3c0.6-1.6,1.3-3.1,2.1-4.5
			c0.8-1.3,1.6-2.5,2.5-3.4c0.8-0.9,1.7-1.7,2.5-2.3c0.8-0.6,1.6-0.9,2.2-0.9c0.1,0.1,0.1,0.2,0.3,0.5c0.1,0.3,0.2,0.9,0.3,1.8
			c0.1,0.7,0.2,1.5,0.3,2.4c0.1,0.9,0.1,1.8,0.3,2.8c0.1,1.6,0.3,3.3,0.5,5c0.2,1.8,0.4,3.3,0.7,4.8c0.1,0.6,0.3,1.1,0.5,1.8
			c0.2,0.6,0.4,1.2,0.7,1.7c0.2,0.5,0.5,0.9,0.9,1.3c0.3,0.3,0.8,0.5,1.3,0.5c2.2,0,5.3-3.8,9.4-11.5c0.8-1.4,1.5-2.8,2.2-4.1
			c0.6-1.3,1.1-2.4,1.6-3.4c-0.1,0.9-0.2,1.9-0.2,2.9c0,2.1,0.2,4.1,0.5,6c0.4,1.9,0.9,3.5,1.6,4.9c0.7,1.5,1.6,2.6,2.6,3.4
			c1,0.8,2.1,1.2,3.3,1.2c1.4,0,2.8-0.5,4.1-1.5c1.3-1,2.4-2.4,3.3-4.3c1.2-2.3,1.9-4.8,2.3-7.5c1.1,0.2,2.4,0.3,3.9,0.3
			c2.8,0,5.5-1.6,8.1-4.9c0.9-1.2,1.7-2.3,2.2-3.3c0.4-0.7,0.6-1.1,0.7-1.4l1.1,0.7c1.5,0.8,2.8,1.7,3.8,2.5c1,0.9,1.5,2.1,1.5,3.7
			c0.1,1.6,0.1,3.3,0.2,5.2c0.1,1.8,0.2,3.5,0.4,5.1c0.6,3.6,1.6,5.4,3.2,5.4c1.3,0,2.9-1.2,4.8-3.7c1.4-2,3-4.6,4.8-7.8
			c0.7-1.4,1.4-2.8,2.1-4.1c0.7-1.4,1.2-2.6,1.7-3.6c0.3-0.6,0.5-1.2,0.8-1.7c0,0.7,0,1.3,0,2c0,5,0.4,9.1,1.3,12.3
			c0.3,1.1,0.6,2.1,1,2.8c0.4,0.8,0.8,1.5,1.3,2.1c1.1,1.2,2.3,1.8,3.8,1.8c2.1,0,5.2-3.8,9.3-11.5c0.7-1.4,1.4-2.8,2.1-4.1
			c0.7-1.3,1.3-2.5,1.8-3.6c0.5-1.1,1-2.3,1.6-3.6c0.1-0.3,0.1-0.5-0.2-0.6c-0.3-0.1-0.5,0-0.6,0.3c-0.6,1.3-1.1,2.5-1.6,3.6
			c-0.5,1.1-1.1,2.3-1.8,3.6c-0.7,1.3-1.4,2.7-2.1,4.1c-1.3,2.4-2.4,4.3-3.3,5.8c-0.9,1.4-1.8,2.6-2.5,3.3c-0.7,0.8-1.3,1.3-1.7,1.5
			c-0.4,0.3-0.8,0.4-1,0.4c-2.4,0-4.1-2-5.3-6.1c-0.9-3.2-1.3-7.2-1.3-12.2c0-4.9,0.5-10.2,1.3-15.8c1.1,0.1,2.4,0.1,3.8,0
			c1.4-0.1,3-0.6,4.8-1.5c0.3-0.1,0.4-0.3,0.3-0.5c-0.1-0.3-0.3-0.4-0.6-0.3c-1.8,0.8-3.3,1.2-4.6,1.4c-1.3,0.1-2.4,0.2-3.5,0
			c0.1-0.9,0.3-1.8,0.4-2.7c0.2-0.9,0.3-1.8,0.5-2.7c7.9-0.1,14.1-1.3,18.8-3.6c2-1,3.7-2.2,5-3.6c1.4-1.4,2.3-3,3-4.8
			C323.7,196.4,323.7,193.5,322.7,190.4z M200.4,225.2c0-0.7,0.1-1.4,0.1-2.1c0.4-4.6,1.1-9,2-13.3c0.9-4.3,2.1-8.2,3.5-11.7
			c1.4-3.5,2.9-6.6,4.6-9.1c1.7-2.5,3.4-4.3,5.3-5.5c1.9-1.2,3.9-1.8,5.9-1.8c1.4,0,2.7,0.3,3.8,0.8c1.2,0.6,2.1,1.4,2.8,2.5
			c1.2,1.7,1.6,3.9,1.3,6.5c-0.3,2.6-1.3,5.5-3.1,8.6c-4.7,8.2-13.5,17.2-26.4,27C200.4,226.6,200.4,225.9,200.4,225.2z
			 M175.7,221.8c-0.8-2-1.4-3.8-1.9-5.5c-0.5-1.7-0.8-3.3-0.8-4.6c-0.1-1.4,0.2-2.5,0.8-3.3c0.7-1.2,2.2-1.8,4.4-1.8
			c1.3,0,2.3,0.5,2.9,1.4c0.6,0.9,0.9,2.2,0.9,3.9c0,1.6-0.2,3.4-0.5,5.3c-0.4,1.9-0.8,3.8-1.4,5.7c-0.6,1.9-1.2,3.6-1.7,5.1
			C177.4,225.8,176.5,223.8,175.7,221.8z M184.2,257.7c-1.1,1.4-2.4,2.2-3.7,2.5c-1.9,0.4-3.2-0.1-3.9-1.7c-0.7-1.6-0.4-3,0.7-4.4
			c0.6-0.7,1.4-1.4,2.3-2.1c0.9-0.7,2-1.5,3.1-2.3c0.4-0.3,0.9-0.6,1.3-0.9c0.4-0.3,0.9-0.7,1.3-1c0.2,0.8,0.3,1.5,0.4,2.2
			c0.1,0.7,0.2,1.3,0.2,1.9C185.9,254.4,185.3,256.3,184.2,257.7z M250.6,246.1c-0.9,1.7-1.9,3-3,4c-1.1,0.9-2.3,1.4-3.6,1.4
			c-1.3,0-2.3-0.4-3.2-1.3c-0.9-0.9-1.5-1.8-2-2.8c-1.4-2.8-2.1-6.3-2.1-10.5c0-3.6,0.9-6.6,2.6-9.3c0.4-0.7,1-1.3,1.7-2
			c0.1,1.6,0.4,3.1,1.1,4.6c0.7,1.5,1.7,2.9,2.9,4.1c0.8,0.8,1.8,1.7,3.1,2.5c1.3,0.8,2.9,1.5,4.8,1.9
			C252.4,241.5,251.6,243.9,250.6,246.1z M252.9,237.9c-1.8-0.4-3.3-1.1-4.5-1.8c-1.2-0.8-2.2-1.6-3-2.3c-1.2-1.2-2.1-2.5-2.8-4
			c-0.7-1.5-1-3-1-4.4v-0.4c1.1-0.7,2.2-1.1,3.3-1.1c0.3,0,0.4-0.1,0.4-0.4c0-0.3-0.1-0.4-0.4-0.4c-1.2,0-2.2,0.3-3.2,0.8
			c0.1-0.7,0.4-1.3,0.8-1.8c0.4-0.5,1.1-0.8,1.8-0.8c1.6,0,2.9,0.4,4,1.2c1.1,0.8,2,1.8,2.7,3c0.7,1.2,1.2,2.6,1.5,4.2
			c0.3,1.6,0.5,3.2,0.5,4.7C253.1,235.6,253.1,236.8,252.9,237.9z M268.1,228.4c-0.8-0.5-1.7-1.1-2.5-1.8c-0.8-0.7-1.5-1.5-2.1-2.4
			c-0.6-0.9-1.1-2.1-1.5-3.3c-0.4-1.3-0.5-2.8-0.5-4.6c0-2.6,0.5-4.7,1.6-6.3c1.1-1.6,2.2-2.7,3.5-3.2c0.5-0.2,1.1-0.3,1.7-0.3
			c1.1,0,1.9,0.4,2.6,1.2c0.4,0.5,0.9,1.3,1.2,2.4c0.4,1.1,0.5,2.6,0.3,4.6C272.1,218.4,270.6,223,268.1,228.4z M321.9,199
			c-0.4,1.1-1.1,2.2-2,3.5c-0.9,1.3-2.4,2.5-4.3,3.7c-1.9,1.2-4.5,2.1-7.7,2.9c-3.2,0.8-7.1,1.2-11.8,1.3c0.7-3.3,1.5-6.4,2.4-9.3
			c0.9-2.9,1.8-5.5,2.8-7.8c1.2-2.6,2.4-4.8,3.6-6.5c1.3-1.7,2.5-3,3.8-3.8c1.1-0.7,2.2-1,3.4-1c1.8,0,3.6,0.7,5.3,2.2
			c0.9,0.8,1.8,1.7,2.6,2.8c0.8,1.1,1.4,2.3,1.8,3.6c0.4,1.3,0.7,2.7,0.7,4.2C322.6,196.1,322.4,197.6,321.9,199z"/>
		<path class="st0" d="M317.4,250c-0.8,0-1.2,0.4-1.2,1.2c0,0.8,0.4,1.2,1.2,1.2c0.8,0,1.2-0.4,1.2-1.2
			C318.6,250.4,318.2,250,317.4,250z"/>
	</g>
	<g>
		<path class="st0" d="M168.8,335.3c0,0.1-0.3,0.7-1,1.8c-0.6,1.2-1.6,2.6-2.9,4.2c-1.2,1.4-2.8,3-4.8,4.5c-2,1.6-4.4,2.8-7.3,3.5
			c-8.1,2.2-17.3-0.5-27.5-7.9c-0.3-0.2-0.5-0.3-0.8-0.5c-0.2-0.2-0.5-0.3-0.8-0.4c0.1-0.4,0.3-0.9,0.4-1.3c0.2-0.4,0.3-0.9,0.4-1.3
			c0.9-3.2,1.4-6.9,1.6-11c0.2-4.1,0.3-8.3,0.5-12.5c0.1-4.4,0.3-8.8,0.5-13.2c0.2-4.3,0.8-8.2,1.7-11.6c0.9-3.1,2.1-5.5,3.6-7.3
			c0.8,0.2,1.6,0.3,2.4,0.5c0.8,0.2,1.7,0.4,2.6,0.6c1.9,0.5,3.6,0.7,5.1,0.5c1.4-0.2,2.5-0.7,3.2-1.5c0.7-0.8,0.9-1.6,0.4-2.6
			c-0.3-0.7-0.9-1.3-1.8-1.7c-0.9-0.4-1.9-0.6-3.2-0.6c-3.5,0-6.3,1.1-8.5,3.3l-0.5,0.5c-7.7-1.6-14.3-2-19.9-1.3
			c-2.9,0.4-5.4,1.2-7.6,2.2c-2.2,1-4,2.3-5.3,4c-1.7,2-2.6,4.3-2.8,6.8c-0.2,2.2,0.2,4.5,1.2,6.8c1.1,2.4,2.7,4.3,4.8,5.6
			c2.1,1.4,4.4,2,7,2c0.3,0,0.4-0.1,0.4-0.4c0-0.3-0.1-0.4-0.4-0.4c-2.4,0-4.6-0.6-6.5-1.9c-1.9-1.3-3.4-3.1-4.5-5.3
			c-1.1-2.1-1.4-4.3-1.2-6.6c0.3-2.3,1.1-4.3,2.6-6.1c1.3-1.6,3-2.8,5-3.8c2.1-1,4.5-1.7,7.4-2c5.2-0.7,11.6-0.3,19.2,1.2
			c-1.4,1.8-2.6,4.2-3.4,7.2c-0.9,3.5-1.5,7.4-1.8,11.8c-0.2,4.3-0.4,8.7-0.5,13.2c-0.1,4.2-0.3,8.4-0.5,12.5
			c-0.2,4.1-0.7,7.8-1.6,11c-0.1,0.4-0.2,0.9-0.4,1.3c-0.1,0.4-0.3,0.8-0.4,1.2c-1.8-0.9-3.5-1.4-5.2-1.4c-2.1-0.1-3.9,0.4-5.5,1.7
			c-1.2,0.8-2,1.9-2.6,3.1c-0.6,1.2-0.7,2.3-0.4,3.3c0.1,0.4,0.4,0.9,0.9,1.4c0.5,0.5,1.4,0.7,2.7,0.7c3.1,0,5.7-1,7.7-3
			c1.2-1.3,2.1-2.8,2.8-4.5c0.2,0.1,0.4,0.2,0.6,0.4c0.2,0.1,0.4,0.3,0.7,0.5c7.9,5.9,15.4,8.8,22.3,8.8c2.1,0,4-0.3,5.8-0.8
			c3-0.8,5.5-2,7.6-3.7c2.1-1.7,3.8-3.3,5-4.8c1.3-1.6,2.3-3,3-4.2c0.6-1.2,1-1.8,1-2c0.1-0.2,0.1-0.4-0.2-0.5
			C169.1,335.1,168.9,335.1,168.8,335.3z M141.2,278.5c1.3,0,2.3,0.2,2.9,0.5c0.7,0.4,1.1,0.8,1.3,1.2c0.3,0.6,0.2,1.2-0.2,1.7
			c-0.4,0.6-1.3,1-2.5,1.2c-1.2,0.3-2.9,0.1-5-0.5c-0.8-0.2-1.5-0.3-2.3-0.5c-0.7-0.2-1.5-0.4-2.3-0.5
			C135.2,279.5,137.8,278.5,141.2,278.5z M112.9,348c-1.6,0-2.5-0.5-2.8-1.5c-0.3-0.8-0.2-1.7,0.4-2.7c0.5-1,1.3-1.9,2.4-2.7
			c0.4-0.3,1.1-0.7,1.9-1c0.8-0.4,1.8-0.5,3-0.5c1.5,0,3.2,0.5,5,1.4C120.7,345.6,117.5,348,112.9,348z"/>
		<path class="st0" d="M174.1,300.8c0.8,0,1.2-0.4,1.2-1.2c0-0.8-0.4-1.2-1.2-1.2c-0.8,0-1.2,0.4-1.2,1.2
			C172.9,300.4,173.3,300.8,174.1,300.8z"/>
		<path class="st0" d="M248.1,316.6c-0.6,1.1-1.3,2.1-2,3.3c-0.6,0.9-1.3,2-2.2,3.3c-0.9,1.3-1.8,2.5-2.7,3.8
			c-5.1,6.8-8.9,10.3-11.7,10.3c-2.6,0-4.6-1-5.9-2.9c-1.2-1.8-1.8-4.2-1.8-7.2c0-0.4,0-0.8,0-1.2c0-0.4,0.1-0.8,0.2-1.2
			c0.3,0.1,0.8,0.1,1.5,0.1c0.6,0,1.3-0.1,2.1-0.2c1.1-0.1,2.4-0.5,3.9-1.1c1.5-0.6,2.9-1.7,4.3-3.3c1.3-1.5,2.3-3.2,2.8-5.1
			c0.6-1.8,0.5-3.2-0.1-4.3c-0.6-1.3-1.6-2-3.1-2c-1.8,0-3.4,0.5-5,1.6c-1.5,1.1-2.9,2.6-4.1,4.5c-0.1,0.2-0.3,0.5-0.4,0.7
			c-0.2,0-0.3,0.1-0.4,0.3c-1.1,1.9-2,3.5-3,4.7c-0.9,1.2-2,2.2-3.3,3.2c-1.3,0.9-2.6,1.4-4.1,1.4c-1.2,0-2.2-0.3-3-0.7
			c-0.8-0.5-1.5-1.1-2.1-1.8c0.3-1.3,0.5-2.5,0.6-3.6c0.1-1.1,0.2-2.2,0.2-3.1c0-1.9-0.3-3.2-0.8-3.8c-0.6-0.6-1.1-0.9-1.8-0.9
			c-1.2,0-1.8,1.2-1.8,3.6c0,0.9,0.1,2.1,0.4,3.4c0.3,1.3,0.8,2.6,1.6,3.8c0.2,0.3,0.4,0.6,0.7,0.9c-0.4,1.8-1,3.7-1.6,5.5
			c-0.6,1.8-1.3,3.5-2,5c-0.7,1.5-1.4,2.7-2.1,3.5c-0.7,0.9-1.4,1.3-2,1.3c-1.8,0-3.2-0.8-4.2-2.3c-1-1.5-1.7-3.4-2.1-5.7
			c-0.4-2.3-0.7-4.7-0.8-7.2c-0.1-2.6-0.1-4.9-0.1-6.9c0-0.2-0.1-0.3-0.3-0.4c0,0,0,0,0,0c-0.3-0.1-0.5,0-0.6,0.3
			c-0.6,1.1-1.1,2.3-1.8,3.5c-0.6,1.1-1.2,2.3-1.8,3.6c-0.7,1.4-1.4,2.7-2.2,4.1c-1.4,2.5-2.6,4.5-3.5,6c-0.9,1.5-1.7,2.7-2.3,3.5
			c-0.6,0.8-1.1,1.3-1.4,1.6c-0.3,0.3-0.5,0.4-0.7,0.4c-1.4,0-2.6-0.6-3.5-1.7c-0.7-0.8-1.3-1.9-1.7-3.3c-0.4-1.4-0.7-2.8-0.9-4.3
			c-0.2-1.5-0.3-3.1-0.3-4.7c0-1.6,0-3,0.1-4.3c0.1-1.3,0.2-2.7,0.4-4.3c0-0.3-0.1-0.5-0.3-0.5c-0.3,0-0.5,0.1-0.5,0.3
			c0,0.1-0.1,0.9-0.3,2.5c-0.2,1.6-0.3,3.6-0.3,5.9c0,3.1,0.3,5.7,0.8,8c0.6,2.3,1.3,4,2.3,5.2c1.2,1.3,2.6,1.9,4.2,1.9
			c0.3,0,0.6-0.1,1-0.4c0.4-0.3,0.9-0.8,1.6-1.7c0.7-0.9,1.5-2.1,2.5-3.6c1-1.6,2.2-3.6,3.6-6.3c0.8-1.4,1.5-2.8,2.2-4.1
			c0.7-1.3,1.3-2.5,1.8-3.6c0.3-0.7,0.7-1.4,1-2.2c0,1.7,0.1,3.5,0.1,5.5c0.1,2.6,0.4,5.1,0.9,7.4c0.5,2.7,1.3,4.6,2.3,5.9
			c1.2,1.7,2.8,2.5,4.8,2.5c0.7,0,1.3-0.3,2-1c0.7-0.7,1.3-1.5,1.8-2.4c0.6-0.9,1-1.9,1.5-2.9c0.4-1,0.8-1.8,1-2.5
			c0.4-1.1,0.8-2.2,1.1-3.3c0.3-1.1,0.6-2.2,0.9-3.3c0.6,0.6,1.4,1.2,2.3,1.6c0.9,0.5,1.9,0.7,3.1,0.7c2.8,0,5.5-1.6,8.1-4.9
			c0.2-0.3,0.5-0.6,0.7-0.9c-0.4,1.2-0.7,2.4-0.8,3.7c-0.2,0.2-0.2,0.3-0.2,0.3c0,0.2,0.1,0.3,0.2,0.4c-0.1,0.4-0.1,0.9-0.1,1.3
			c0,0.4,0,0.8,0,1.3c0,3.2,0.7,5.8,2,7.7c1.5,2.2,3.7,3.3,6.6,3.3c3,0,7.1-3.5,12.3-10.6c0.9-1.3,1.8-2.5,2.7-3.8
			c0.9-1.3,1.6-2.4,2.2-3.4c0.7-1.1,1.4-2.2,2.1-3.3c0.1-0.3,0.1-0.5-0.2-0.6C248.5,316.3,248.3,316.4,248.1,316.6z M207.5,321.7
			c0-0.1,0-0.1,0-0.1c0,0,0-0.1,0-0.1c-0.7-1.1-1.2-2.3-1.5-3.5c-0.3-1.3-0.4-2.3-0.4-3.2c0-0.8,0.1-1.4,0.3-2
			c0.2-0.5,0.4-0.8,0.7-0.8c0.8,0,1.3,0.4,1.5,1.3c0.2,0.9,0.3,1.7,0.3,2.6c0,0.9,0,1.8-0.1,2.8C208,319.7,207.8,320.7,207.5,321.7z
			 M223.4,318.6c0.7-1.7,1.5-3.2,2.5-4.5s2.1-2.4,3.4-3.2c1.3-0.8,2.6-1.2,4.1-1.2c1.1,0,1.9,0.5,2.3,1.5c0.4,0.9,0.5,2.2,0.1,3.8
			c-0.4,1.6-1.3,3.1-2.7,4.8c-2.1,2.3-4.7,3.8-7.8,4.3c-0.8,0.1-1.5,0.2-2,0.1c-0.6,0-1-0.1-1.4-0.1
			C222.3,322.1,222.8,320.3,223.4,318.6z"/>
		<path class="st0" d="M276.2,300.8c0.8,0,1.2-0.4,1.2-1.2c0-0.8-0.4-1.2-1.2-1.2s-1.2,0.4-1.2,1.2
			C275,300.4,275.4,300.8,276.2,300.8z"/>
		<path class="st0" d="M318.9,270.2c-1.5-1.2-3.1-2-4.7-2.3c-1.8-0.3-3.5,0.1-5.1,1c-2.7,1.7-5.2,5.2-7.7,10.7c-1.1,2.4-2,5.2-3,8.1
			c-0.9,3-1.7,6.2-2.4,9.5c-0.2,1-0.4,2-0.6,3c-0.2,1-0.3,2-0.5,3c-0.1,0-0.2,0-0.3,0c-0.1,0-0.2,0-0.3,0c-0.9-0.1-1.9-0.2-2.8-0.2
			c-0.9,0-1.8,0.2-2.8,0.6c-0.3,0.1-0.4,0.3-0.3,0.6c0.2,0.2,0.3,0.3,0.4,0.3c0.1,0,0.1,0,0.1,0c0,0,0,0,0.1,0
			c0.9-0.4,1.7-0.6,2.5-0.5c0.8,0,1.7,0.1,2.6,0.2c0.1,0,0.2,0,0.3,0c0.1,0,0.2,0,0.3,0c-0.6,4.1-1,7.9-1.2,11.6
			c-0.1,0-0.2,0.1-0.3,0.3c-0.6,1.1-1.1,2.3-1.8,3.5c-0.6,1.1-1.2,2.3-1.8,3.6c-0.7,1.4-1.4,2.7-2.2,4.1c-1.4,2.5-2.6,4.5-3.5,6
			c-0.9,1.5-1.7,2.7-2.3,3.5c-0.6,0.8-1.1,1.3-1.4,1.6c-0.3,0.3-0.5,0.4-0.7,0.4c-1.4,0-2.6-0.6-3.5-1.7c-0.7-0.8-1.3-1.9-1.7-3.3
			c-0.4-1.4-0.7-2.8-0.9-4.3c-0.2-1.5-0.3-3.1-0.3-4.7c0-1.6,0-3,0.1-4.3c0.1-1.3,0.2-2.7,0.4-4.3c0-0.3-0.1-0.5-0.3-0.5
			c-0.3,0-0.5,0.1-0.5,0.3c0,0.1-0.1,0.9-0.3,2.5c-0.2,1.6-0.3,3.6-0.3,5.9c0,3.1,0.3,5.7,0.8,8c0.6,2.3,1.3,4,2.3,5.2
			c1.2,1.3,2.6,1.9,4.2,1.9c0.3,0,0.6-0.1,1-0.4c0.4-0.3,0.9-0.8,1.6-1.7c0.7-0.9,1.5-2.1,2.5-3.6c1-1.6,2.2-3.6,3.6-6.3
			c0.8-1.4,1.5-2.8,2.2-4.1c0.7-1.3,1.3-2.5,1.8-3.6c0.4-0.7,0.7-1.5,1.1-2.4c0,0.9-0.1,1.7-0.1,2.6c0,5,0.4,9.1,1.3,12.3
			c0.3,1.1,0.6,2.1,1,2.8c0.4,0.8,0.8,1.5,1.3,2.1c1.1,1.2,2.3,1.8,3.8,1.8c2.1,0,5.2-3.8,9.3-11.5c0.7-1.4,1.4-2.8,2.1-4.1
			c0.7-1.3,1.3-2.5,1.8-3.6c0.5-1.1,1-2.3,1.6-3.6c0.1-0.3,0.1-0.5-0.2-0.6c-0.3-0.1-0.5,0-0.6,0.3c-0.6,1.3-1.1,2.5-1.6,3.6
			c-0.5,1.1-1.1,2.3-1.8,3.6c-0.7,1.3-1.4,2.7-2.1,4.1c-1.3,2.4-2.4,4.3-3.3,5.8c-0.9,1.4-1.8,2.6-2.5,3.3c-0.7,0.8-1.3,1.3-1.7,1.5
			c-0.4,0.3-0.8,0.4-1,0.4c-2.4,0-4.1-2-5.3-6.1c-0.9-3.2-1.3-7.2-1.3-12.2c0-4.9,0.5-10.2,1.3-15.8c1.1,0.1,2.4,0.1,3.8,0
			c1.4-0.1,3-0.6,4.8-1.5c0.3-0.1,0.4-0.3,0.3-0.5c-0.1-0.3-0.3-0.4-0.6-0.3c-1.8,0.8-3.3,1.2-4.6,1.4c-1.3,0.1-2.4,0.2-3.5,0
			c0.1-0.9,0.3-1.8,0.4-2.7c0.2-0.9,0.3-1.8,0.5-2.7c7.9-0.1,14.1-1.3,18.8-3.6c2-1,3.7-2.2,5-3.6c1.4-1.4,2.3-3,3-4.8
			c1-2.8,1-5.8,0-8.8C322.8,274.3,321.2,272,318.9,270.2z M322.9,285.7c-0.4,1.1-1.1,2.2-2,3.5c-0.9,1.3-2.4,2.5-4.3,3.7
			c-1.9,1.2-4.5,2.1-7.7,2.9c-3.2,0.8-7.1,1.2-11.8,1.3c0.7-3.3,1.5-6.4,2.4-9.3c0.9-2.9,1.8-5.5,2.8-7.8c1.2-2.6,2.4-4.8,3.6-6.5
			c1.3-1.7,2.5-3,3.8-3.8c1.1-0.7,2.2-1,3.4-1c1.8,0,3.6,0.7,5.3,2.2c0.9,0.8,1.8,1.7,2.6,2.8c0.8,1.1,1.4,2.3,1.8,3.6
			c0.4,1.3,0.7,2.7,0.7,4.2C323.6,282.9,323.4,284.3,322.9,285.7z"/>
		<path class="st0" d="M332.1,327.9c0.3,0,0.4-0.1,0.4-0.4l2.9-48.3c0-0.3-0.1-0.4-0.4-0.4c-0.3,0-0.4,0.1-0.4,0.4l-2.9,48.3
			C331.7,327.8,331.9,327.9,332.1,327.9z"/>
		<path class="st0" d="M331.4,335c-0.4,0-0.7,0.1-1,0.4c-0.3,0.3-0.4,0.6-0.4,1.1c0,0.4,0.1,0.8,0.4,1.1c0.3,0.3,0.6,0.4,1,0.4
			c0.4,0,0.7-0.1,1-0.4c0.3-0.3,0.4-0.6,0.4-1.1c0-0.4-0.1-0.8-0.4-1.1C332.1,335.1,331.8,335,331.4,335z"/>
	</g>
</g>
</svg>
