<?xml version="1.0" encoding="utf-8"?>
<!-- Generator: Adobe Illustrator 21.1.0, SVG Export Plug-In . SVG Version: 6.00 Build 0)  -->
<svg version="1.1" id="Calque_1" xmlns="http://www.w3.org/2000/svg" xmlns:xlink="http://www.w3.org/1999/xlink" x="0px" y="0px"
	 viewBox="0 0 432 432" style="enable-background:new 0 0 432 432;" xml:space="preserve">
<style type="text/css">
	.st0{fill:#A2CB68;}
	.st1{fill:#57689A;}
	.st2{fill:#1A1A1A;}
	.st3{fill:#B7AC82;}
	.st4{fill:#496B59;}
	.st5{fill:#77B192;}
	.st6{fill:#5E846F;}
	.st7{fill:#534741;}
	.st8{fill:#33332E;}
	.st9{fill:#EBB35B;}
	.st10{fill:#736357;}
	.st11{fill:#9FC07E;}
	.st12{fill:#E484B4;}
	.st13{fill:#81C5D2;}
	.st14{fill:#D6CDBF;}
	.st15{fill:#8C3F42;}
	.st16{fill:#714A4C;}
	.st17{fill:#562428;}
	.st18{fill:#AAB272;}
	.st19{fill:#9E5F81;}
	.st20{fill:#BC758D;}
	.st21{fill:#7BADE5;}
	.st22{fill:#E0954B;}
	.st23{fill:#88729B;}
	.st24{fill:#FBB03B;}
	.st25{fill:#7DCCC3;}
	.st26{fill:#E990A4;}
	.st27{fill:#C03039;}
	.st28{fill:#0071BC;}
	.st29{fill:#FAAC47;}
	.st30{fill:#7BC0D6;}
	.st31{fill:#C683A6;}
	.st32{fill:#DDC36C;}
	.st33{fill:#C4AD6C;}
	.st34{fill:#3C503E;}
	.st35{fill:#DDB42B;}
	.st36{fill:#787861;}
	.st37{fill:#80615A;}
	.st38{fill:#4F7181;}
	.st39{fill:#93BBCE;}
	.st40{fill:#AAB4B8;}
	.st41{fill:#5C6D75;}
	.st42{fill:#BFA08A;}
	.st43{fill:#333333;}
	.st44{fill:#895573;}
	.st45{fill:#D699BC;}
	.st46{fill:#D8B45B;}
	.st47{fill:#B2B0A1;}
	.st48{fill:#998675;}
	.st49{fill:#A38AA1;}
	.st50{fill:#95A78E;}
	.st51{fill:#9595A0;}
	.st52{fill:#ACA196;}
	.st53{fill:#69786B;}
	.st54{fill:#466E71;}
	.st55{fill:#88BABE;}
	.st56{fill:#998073;}
	.st57{fill:#DBB57B;}
	.st58{fill:#C1272D;}
	.st59{fill:#CCCCCC;}
	.st60{fill:#CC5252;}
	.st61{fill:#D5AE80;}
	.st62{fill:#D8A991;}
	.st63{fill:#89A750;}
	.st64{fill:#322C2B;}
	.st65{fill:#E891A5;}
	.st66{fill:#9AB05A;}
	.st67{fill:#DBA55E;}
	.st68{fill:#9E3E45;}
	.st69{fill:#F8AB51;}
	.st70{fill:#B3B3B3;}
	.st71{fill:#E6E6E6;}
</style>
<g>
	<g>
		<g>
			<g>
				<path d="M176.4,102.9c0-0.3,0-0.4,0-0.5c0.2-0.5,0.5-0.8,1.2-0.9c0.6-0.1,1,0.2,1.3,0.7c0.1,0.3,0.2,0.6,0.2,1
					c0,0.6,0,1.3,0,1.9c0,0.6,0,1.3,0,1.9c0,1.2,0.1,2.3,0.1,3.5c0,1.2,0.1,2.4,0.1,3.5c0.1,1.2,0.2,2.4,0.3,3.6
					c0.1,1.2,0.2,2.4,0.4,3.6c0.1,1,0.3,2,0.4,3c0.1,1,0.3,2,0.4,3c0.1,0.5,0.2,1.1,0.3,1.6c0.1,0.5,0.3,1,0.4,1.6
					c0.1,0.3,0.2,0.5,0.3,0.7c0.1,0.2,0.2,0.5,0.4,0.7c0.3,0.5,0.8,0.9,1.3,0.9c0.5,0.1,1,0,1.5-0.1c0.2-0.1,0.4-0.2,0.5-0.3
					c0.2-0.1,0.3-0.2,0.5-0.3c0.2-0.1,0.3-0.2,0.5-0.3c0.2-0.1,0.3-0.1,0.5-0.2c0.4-0.1,0.7-0.1,1,0.1c0.3,0.1,0.5,0.4,0.7,0.7
					c0.2,0.5,0.1,0.9-0.1,1.2c-0.7,0.7-1.6,1.3-2.6,1.7c-1.1,0.4-2.2,0.5-3.5,0.1c-1-0.3-1.9-0.9-2.6-1.8c-0.6-0.8-1-1.7-1.3-2.7
					c-0.1-0.4-0.2-0.8-0.3-1.2c-0.1-0.5-0.2-1-0.3-1.5c-0.1-0.5-0.2-1-0.3-1.5c-0.1-0.5-0.2-0.9-0.2-1.3c-0.7-6.5-1.1-11.6-1.2-15.3
					C176.4,106.4,176.4,104,176.4,102.9z"/>
				<path d="M198.5,104.1c0,0.6-0.2,1.2-0.7,1.6c-0.5,0.5-1.1,0.7-1.8,0.6c-0.6,0-1.1-0.3-1.5-0.8c-0.4-0.5-0.7-1.1-0.7-1.7
					c0-0.6,0.2-1.2,0.7-1.7c0.5-0.5,1-0.7,1.6-0.7c0.6,0,1.2,0.3,1.7,0.8C198.3,102.8,198.5,103.4,198.5,104.1z M197.9,121.1
					c0,1.1,0,2.2,0,3.1c0,0.9,0,1.9,0,2.8c0,1.1,0.1,2.1,0.1,3.2c0,1.1,0.1,2.1,0.2,3.2c0.1,0.4,0.1,0.7,0,1.1
					c-0.1,0.3-0.2,0.6-0.4,0.8s-0.5,0.3-0.8,0.4c-0.7,0.1-1.2-0.1-1.6-0.7c-0.1-0.2-0.1-0.3-0.1-0.5c0-0.2-0.1-0.4-0.1-0.5
					c-0.1-1.6-0.2-3.3-0.2-4.8c-0.1-1.6-0.1-3.2-0.1-4.8c0-1.5,0-3,0-4.5c0-1.5-0.1-3-0.1-4.5c0-1,0-2.1,0-3.1c0-1,0.1-2.1,0.1-3.1
					c0-0.2,0-0.5,0.1-0.8c0.1-0.3,0.2-0.5,0.5-0.7c0.2-0.2,0.5-0.3,0.8-0.3c0.3,0,0.5,0.1,0.8,0.2c0.2,0.1,0.4,0.3,0.5,0.6
					c0.1,0.2,0.1,0.4,0.1,0.6c0,0.2,0,0.4,0.1,0.6c0.1,2,0.1,4.1,0.1,6.1C197.8,117.2,197.9,119.2,197.9,121.1z"/>
				<path d="M206.7,122.3h0.9c0.8,0,1.7,0,2.5,0c0.8,0,1.7,0,2.5,0c0.4-0.1,0.7,0,1,0c0.6,0.1,1,0.5,1.1,1.1c0.1,0.3,0,0.6-0.1,0.8
					c-0.1,0.3-0.3,0.5-0.6,0.6c-0.4,0.2-0.8,0.2-1.2,0.2c-0.8,0-1.7,0-2.5,0c-0.8,0-1.6,0-2.4,0h-1.3c0,0.2,0,0.3,0,0.5
					c0,0.1,0,0.3,0,0.4c0,1.2,0.1,2.4,0.1,3.6c0,1.2,0,2.4,0,3.6c0,0.2,0,0.4,0,0.6c0,0.2,0,0.4,0,0.6c-0.1,0.4-0.2,0.6-0.4,0.8
					c-0.2,0.2-0.5,0.3-0.9,0.4c-0.4,0-0.7,0-1-0.2c-0.3-0.2-0.5-0.4-0.6-0.8c-0.1-0.2-0.1-0.3-0.1-0.5c0-0.1,0-0.3,0-0.5
					c0-0.8,0-1.6,0-2.4c0-0.8,0-1.6,0-2.4c-0.1-2.5-0.1-5-0.1-7.4c0-2.5-0.1-4.9-0.1-7.4c0-1.5-0.1-3-0.1-4.5c0-1.5,0-3,0-4.5
					c0-0.3,0-0.5,0-0.8c0-0.3,0-0.5,0-0.8c0-0.7,0.4-1.2,1.2-1.5c0.4-0.1,0.9-0.2,1.4-0.3c1.9-0.2,3.7-0.3,5.6-0.3
					c1.8,0,3.7,0.1,5.6,0.3c0.2,0,0.3,0.1,0.5,0.1c0.2,0,0.4,0.1,0.5,0.1c0.4,0.1,0.6,0.3,0.8,0.6c0.2,0.3,0.2,0.6,0.1,0.8
					c-0.2,0.7-0.7,1.1-1.5,1.1c-0.8,0-1.6,0-2.4-0.1c-1.4-0.1-2.8-0.2-4.1-0.1c-1.4,0-2.7,0-4.1,0c-0.1,0-0.3,0-0.4,0
					c-0.1,0-0.2,0-0.3,0c0,0.1-0.1,0.1-0.1,0.2c0,0.1,0,0.1,0,0.2c0.1,2.9,0.1,5.8,0.2,8.6c0.1,2.9,0.1,5.7,0.2,8.7
					c0,0.1,0,0.1,0,0.2C206.6,122.2,206.7,122.2,206.7,122.3z"/>
				<path d="M223.5,119.8c-0.1,0.5-0.1,0.9,0,1.3c0.1,0.4,0.1,0.8,0.2,1.2c0.1,0.8,0.3,1.7,0.5,2.5c0.2,0.8,0.5,1.6,0.8,2.4
					c0.5,1.3,1.3,2.5,2.1,3.5c0.4,0.4,0.7,0.7,1.1,1c0.4,0.3,0.8,0.5,1.3,0.7c1.6,0.6,3.1,0.4,4.3-0.7c0.6-0.5,1.1-1.2,1.5-2
					c0.2-0.5,0.4-0.9,0.6-1.4c0.2-0.5,0.4-1,0.6-1.4c0.1-0.3,0.2-0.6,0.4-1c0.4-0.6,1-0.8,1.7-0.6c0.3,0.1,0.6,0.3,0.8,0.5
					c0.2,0.3,0.3,0.6,0.2,0.9c0,0.1,0,0.2,0,0.3c0,0.1,0,0.2-0.1,0.2c-0.3,0.6-0.5,1.3-0.7,1.9c-0.2,0.6-0.5,1.2-0.7,1.8
					c-0.2,0.5-0.5,0.9-0.8,1.4c-0.3,0.4-0.7,0.8-1.1,1.2c-1.1,1-2.3,1.7-3.7,1.9c-1.4,0.2-2.8,0.1-4.2-0.6c-1.2-0.5-2.2-1.2-3.1-2.2
					c-0.7-0.7-1.3-1.5-1.8-2.4c-0.5-0.8-0.9-1.7-1.3-2.6c-0.5-1.3-0.8-2.6-1.1-3.9c-0.2-1.3-0.4-2.7-0.5-4c-0.1-1.7,0-3.4,0.2-5.1
					c0.2-1.7,0.5-3.3,1.1-5c0.3-0.7,0.6-1.5,0.9-2.1c0.3-0.7,0.7-1.3,1.1-2c0.7-1.1,1.5-2,2.5-2.7c2-1.7,4.2-2,6.6-1
					c1.5,0.6,2.8,1.5,3.8,2.7c1,1.1,1.8,2.3,2.4,3.6c0.6,1.3,1.1,2.6,1.4,4c0.2,0.7,0.3,1.5,0.3,2.3c0.1,0.8,0,1.5,0,2.3
					c-0.1,0.4-0.2,0.8-0.3,1.1c-0.4,1.2-1.2,1.8-2.5,1.9c-0.9,0.1-1.7,0.2-2.6,0.2c-0.9,0-1.7,0.1-2.6,0.2c-1.5,0.1-3,0.1-4.6,0
					C226.6,120.1,225.1,120,223.5,119.8z M237.6,116.8c0-0.1,0.1-0.3,0.1-0.5c0-0.1,0-0.3,0-0.4c0-0.1,0-0.2,0-0.4
					c0-2.6-0.7-5-2.1-7.4c-0.3-0.4-0.5-0.8-0.8-1.1c-0.3-0.4-0.6-0.7-0.9-1.1c-0.4-0.4-0.8-0.8-1.3-1c-0.5-0.3-1-0.5-1.5-0.7
					c-0.9-0.3-1.7-0.2-2.5,0.3c-0.4,0.2-0.7,0.5-1,0.7c-0.5,0.5-0.9,0.9-1.3,1.5c-0.4,0.5-0.7,1.1-1,1.6c-0.6,1.3-1.1,2.7-1.4,4
					c-0.3,1.4-0.5,2.7-0.6,4.2c0,0.1,0,0.1,0,0.2c0,0.1,0,0.2,0,0.2c0.3,0.1,0.8,0.1,1.6,0.1c0.7,0,1.6,0,2.5,0c0.9,0,1.9,0,3,0
					c1,0,2,0,3-0.1c0.9,0,1.8-0.1,2.5-0.1C236.7,117,237.3,116.9,237.6,116.8z"/>
			</g>
			<g>
				<path d="M268.7,104.1c0,0.6-0.2,1.2-0.7,1.6c-0.5,0.5-1.1,0.7-1.8,0.6c-0.6,0-1.1-0.3-1.5-0.8c-0.4-0.5-0.7-1.1-0.7-1.7
					c0-0.6,0.2-1.2,0.7-1.7c0.5-0.5,1-0.7,1.6-0.7c0.6,0,1.2,0.3,1.7,0.8C268.5,102.8,268.7,103.4,268.7,104.1z M268.1,121.1
					c0,1.1,0,2.2,0,3.1c0,0.9,0,1.9,0,2.8c0,1.1,0.1,2.1,0.1,3.2c0,1.1,0.1,2.1,0.2,3.2c0.1,0.4,0.1,0.7,0,1.1
					c-0.1,0.3-0.2,0.6-0.4,0.8c-0.2,0.2-0.5,0.3-0.8,0.4c-0.7,0.1-1.2-0.1-1.6-0.7c-0.1-0.2-0.1-0.3-0.1-0.5c0-0.2-0.1-0.4-0.1-0.5
					c-0.1-1.6-0.2-3.3-0.2-4.8c-0.1-1.6-0.1-3.2-0.1-4.8c0-1.5,0-3,0-4.5c0-1.5-0.1-3-0.1-4.5c0-1,0-2.1,0-3.1c0-1,0.1-2.1,0.1-3.1
					c0-0.2,0-0.5,0.1-0.8c0.1-0.3,0.2-0.5,0.5-0.7c0.2-0.2,0.5-0.3,0.8-0.3c0.3,0,0.5,0.1,0.8,0.2c0.2,0.1,0.4,0.3,0.5,0.6
					c0.1,0.2,0.1,0.4,0.1,0.6c0,0.2,0,0.4,0.1,0.6c0.1,2,0.1,4.1,0.1,6.1C268,117.2,268.1,119.2,268.1,121.1z"/>
				<path d="M276.6,109.3c0,1.2,0.2,2.3,0.6,3.2c0.5,1.2,1.2,2.2,2.1,3.2c0.5,0.6,1.1,1.3,1.6,2c0.5,0.7,1.1,1.3,1.6,2
					c0.5,0.6,1,1.3,1.5,2c0.5,0.7,0.9,1.4,1.3,2.1c0.7,1.2,1.2,2.4,1.4,3.7c0.2,1.1,0.2,2.1-0.1,3c-0.3,1-0.8,1.9-1.4,2.7
					c-1.5,1.9-3.4,2.7-5.8,2.5c-0.9-0.1-1.8-0.3-2.6-0.6c-0.8-0.4-1.5-0.9-2.2-1.5c-0.4-0.4-0.6-0.9-0.4-1.4c0.1-0.5,0.5-0.8,1-1
					c0.3-0.1,0.5-0.1,0.7,0c0.2,0,0.4,0.1,0.6,0.2c0.1,0.1,0.3,0.2,0.4,0.3c0.1,0.1,0.2,0.2,0.4,0.3c1.2,0.8,2.4,1.1,3.5,0.8
					c1.1-0.3,2-1,2.6-2.3c0.4-0.8,0.5-1.6,0.4-2.5c-0.1-0.5-0.2-0.9-0.4-1.4c-0.2-0.4-0.4-0.9-0.6-1.3c-0.4-0.7-0.8-1.3-1.2-2
					c-0.5-0.6-0.9-1.3-1.5-1.9c-0.5-0.6-0.9-1.1-1.4-1.7c-0.5-0.5-0.9-1.1-1.4-1.7c-0.4-0.5-0.7-0.9-1.1-1.4c-0.4-0.5-0.7-0.9-1-1.4
					c-0.5-0.7-0.8-1.4-1.1-2.1c-0.3-0.7-0.5-1.5-0.6-2.4c-0.2-1.7,0-3.4,0.7-5c0.2-0.5,0.5-1,0.8-1.4c0.3-0.4,0.7-0.8,1.2-1.2
					c0.5-0.5,1.2-0.8,1.8-1c0.7-0.2,1.4-0.3,2.1-0.3c0.7,0,1.4,0.1,2.1,0.3c0.7,0.2,1.3,0.6,1.8,1.1c0.2,0.2,0.3,0.3,0.4,0.5
					c0.1,0.2,0.2,0.3,0.3,0.5c0.1,0.3,0.2,0.5,0.1,0.8c-0.1,0.2-0.2,0.4-0.5,0.6c-0.5,0.4-1,0.4-1.5,0.1c-0.1-0.1-0.2-0.1-0.3-0.2
					c-0.1-0.1-0.2-0.2-0.3-0.2c-0.4-0.3-0.8-0.5-1.2-0.6c-0.4-0.1-0.9-0.1-1.3,0c-0.4,0.1-0.8,0.2-1.2,0.4c-0.4,0.2-0.7,0.4-0.9,0.7
					c-0.6,0.7-1,1.6-1.1,2.6c-0.1,0.2-0.1,0.4-0.1,0.7C276.6,109.1,276.6,109.2,276.6,109.3z"/>
			</g>
		</g>
		<g>
			<g>
				<path d="M158.4,233.3c0-0.7-0.1-1.4-0.1-1.9c0-0.6,0-1.2,0-1.7V224c0-0.1,0-0.1,0-0.2c0-0.1,0-0.2,0-0.2c0.1-0.6,0.5-0.9,1.1-1
					c0.6,0,1,0.3,1.2,0.9c0.1,0.3,0.1,0.5,0.1,0.8c0,0.3,0,0.5,0.1,0.8c0.1,1.1,0.1,2.3,0.1,3.4c0,1.1,0.1,2.2,0.1,3.4
					c0.1,2.6,0.1,5.2,0.2,7.9c0.1,2.6,0.2,5.3,0.2,7.9c0,1.2,0.1,2.4,0.1,3.6c0,1.2,0.1,2.4,0.1,3.6c0,0.3,0,0.6-0.1,0.9
					c-0.1,0.3-0.2,0.5-0.5,0.7c-0.2,0.2-0.5,0.2-0.8,0.2c-0.6,0-1.1-0.3-1.3-0.8c-0.1-0.2-0.1-0.3-0.1-0.5c0-0.2,0-0.3-0.1-0.5
					c0-0.4,0-0.7,0-1.1c0-0.4,0-0.7,0-1.1c-0.2-0.1-0.3-0.1-0.4,0c-0.1,0.1-0.2,0.2-0.2,0.2c-1.1,1.2-2.4,2.1-3.8,2.8
					c-3.6,1.7-7,1.3-10.2-1.2c-1.3-1-2.3-2.2-3-3.5c-0.7-1.3-1.2-2.8-1.5-4.3c-0.2-1.2-0.3-2.4-0.1-3.6c0.1-1.2,0.4-2.4,0.7-3.5
					c0.2-0.6,0.3-1.2,0.6-1.8c0.2-0.6,0.5-1.1,0.8-1.7c0.9-1.6,2-2.9,3.2-3.8c1.3-1,2.8-1.6,4.7-1.9c1.6-0.2,3.1-0.1,4.7,0.5
					c0.6,0.2,1.2,0.4,1.7,0.8c0.5,0.3,1.1,0.6,1.6,1c0.1,0.1,0.3,0.2,0.4,0.3C158,233,158.2,233.1,158.4,233.3z M158.6,243.1v-1.5
					c0-0.5-0.1-1.1-0.1-1.6c0-0.5,0-1,0-1.6c0-0.2-0.1-0.4-0.1-0.6c0-0.2-0.1-0.3-0.2-0.5c-0.6-0.8-1.3-1.5-2-2.2
					c-0.7-0.6-1.5-1.2-2.4-1.6c-0.8-0.3-1.6-0.5-2.4-0.6c-0.8-0.1-1.5,0-2.3,0.2c-0.7,0.2-1.4,0.4-2,0.8c-0.6,0.3-1.1,0.8-1.6,1.2
					c-0.4,0.5-0.8,0.9-1.1,1.4c-0.3,0.5-0.6,1-0.8,1.6c-0.5,1.4-0.9,2.7-1.1,4.1c-0.1,0.8-0.2,1.7-0.2,2.5c0,0.8,0.1,1.7,0.4,2.5
					c0.3,1,0.7,1.9,1.2,2.7c0.5,0.9,1.2,1.6,2,2.3c2.3,1.8,4.8,2.1,7.3,0.9c1.3-0.6,2.3-1.4,3.2-2.5c0.3-0.4,0.6-0.8,0.9-1.2
					c0.3-0.4,0.6-0.8,0.9-1.2c0.3-0.3,0.4-0.7,0.3-1c0-0.7,0-1.4,0-2.1C158.7,244.5,158.7,243.8,158.6,243.1z"/>
				<path d="M166.7,240.1c0-3,0.4-5.9,1.3-8.7c0.5-1.7,1.3-3.4,2.3-5.1c0.3-0.5,0.6-0.9,1-1.3c0.4-0.4,0.8-0.8,1.2-1.2
					c1.2-1,2.6-1.3,4.2-1c1.6,0.3,2.9,1,4.2,2.1c0.8,0.8,1.6,1.8,2.3,2.9c1.4,2.3,2.4,4.7,2.9,7.2c1,5,0.7,10-0.9,14.9
					c-0.5,1.4-1.1,2.6-1.9,3.8c-1.3,1.8-3.1,2.8-5.3,3.1c-1,0.1-2.1-0.1-3.2-0.6c-1.3-0.6-2.5-1.5-3.5-2.6c-1.1-1.1-1.9-2.4-2.5-3.7
					c-0.6-1.3-1.1-2.7-1.4-4.2C166.8,243.9,166.6,242,166.7,240.1z M169.7,240.2c0,0.7,0,1.5,0.1,2.4c0.1,0.9,0.2,1.7,0.4,2.6
					c0.3,1.3,0.7,2.6,1.3,3.7c0.6,1.2,1.4,2.2,2.4,3.2c0.6,0.6,1.3,1.1,2.2,1.5c0.6,0.3,1.3,0.4,1.9,0.2c1.2-0.2,2.1-0.7,2.8-1.6
					c0.4-0.5,0.7-1.1,1-1.7c0.3-0.6,0.5-1.2,0.7-1.8c1.2-3.9,1.6-7.8,1-11.7c-0.2-1.1-0.4-2.2-0.7-3.2c-0.3-1-0.7-2.1-1.2-3.1
					c-0.4-0.6-0.7-1.3-1.1-1.8c-0.4-0.6-0.8-1.1-1.4-1.6c-0.4-0.4-0.8-0.7-1.2-0.9c-0.4-0.3-0.9-0.5-1.5-0.6c-0.9-0.2-1.6,0-2.2,0.6
					c-0.2,0.2-0.4,0.3-0.5,0.6c-0.2,0.2-0.3,0.4-0.5,0.6c-0.5,0.7-0.8,1.4-1.2,2.2c-0.3,0.7-0.6,1.5-0.9,2.3c-0.5,1.3-0.8,2.7-1,4
					C169.8,237.3,169.7,238.7,169.7,240.2z"/>
				<path d="M194.7,233c0.2-0.5,0.3-1,0.4-1.2c0.1-0.3,0.2-0.5,0.2-0.7c0.4-0.9,0.8-1.8,1.2-2.6c0.5-0.8,1-1.6,1.7-2.4
					c0.3-0.3,0.6-0.6,0.9-0.9c0.3-0.3,0.7-0.6,1-0.8c1.3-1,2.7-1.4,4.2-1.3c1.5,0.1,2.8,0.5,4,1.4c0.6,0.5,1.2,1,1.7,1.6
					c0.5,0.6,0.9,1.3,1.3,2c0.5,0.9,1,1.9,1.3,2.9c0.3,1,0.6,2,0.8,3c0.3,1.5,0.6,2.9,0.8,4.3c0.2,1.4,0.4,2.9,0.5,4.3
					c0.2,1.9,0.3,3.9,0.4,6c0.1,2.1,0.2,4.1,0.3,6.1c0,0.2,0,0.3,0,0.5c0,0.2,0,0.3,0,0.5c-0.1,0.4-0.2,0.7-0.5,0.9
					c-0.3,0.2-0.6,0.3-1,0.3c-0.4,0-0.7-0.1-1-0.3c-0.3-0.2-0.4-0.5-0.5-0.9c-0.1-0.6-0.1-1.2-0.1-1.8c0-0.6,0-1.2-0.1-1.8
					c-0.1-1.6-0.1-3.3-0.2-4.9c-0.1-1.7-0.2-3.3-0.3-4.9c-0.1-1.5-0.3-2.9-0.5-4.3c-0.2-1.4-0.5-2.9-0.9-4.3
					c-0.2-0.8-0.5-1.7-0.8-2.4c-0.3-0.8-0.7-1.6-1.2-2.3c-0.3-0.4-0.5-0.7-0.8-1c-0.3-0.3-0.6-0.7-1-0.9c-0.7-0.5-1.5-0.8-2.3-0.8
					c-0.8,0-1.6,0.3-2.4,0.9c-0.6,0.5-1.2,1.1-1.7,1.7c-0.5,0.6-0.9,1.3-1.3,2.1c-0.9,1.7-1.6,3.4-2.1,4.9c-0.1,0.5-0.2,0.9-0.3,1.3
					c-0.1,0.4-0.3,0.9-0.4,1.5c-0.1,0.6-0.2,1.2-0.3,2c-0.1,0.8-0.2,1.7-0.3,2.8c0,0.4-0.1,0.9-0.1,1.5c0,0.6,0,1.1,0,1.7
					s0,1.1,0,1.7c0,0.6,0,1,0,1.5c0,0.3,0,0.5,0,0.8c0,0.2,0,0.5,0,0.8c0,0.6,0.1,1.3,0.1,2c0,0.7,0.1,1.3,0.1,2c0,0.2,0,0.3,0,0.4
					c0,0.1,0,0.3,0,0.4c-0.1,0.3-0.2,0.5-0.4,0.7c-0.2,0.2-0.5,0.3-0.8,0.4c-0.3,0.1-0.6,0-0.8-0.1c-0.3-0.1-0.5-0.3-0.6-0.6
					c-0.1-0.2-0.1-0.3-0.2-0.6c0-0.2-0.1-0.4-0.1-0.6c-0.1-0.7-0.1-1.5-0.1-2.2c0-0.7,0-1.4-0.1-2.2c-0.1-1.2-0.1-2.5-0.2-3.7
					c-0.1-1.2-0.1-2.5-0.2-3.7c-0.1-1.9-0.1-3.9-0.1-5.8c0-2-0.1-3.9-0.1-5.8c0-1.2,0-2.3,0-3.5c0-1.2,0-2.3,0-3.5
					c0-0.2,0-0.3,0-0.5c0-0.1,0-0.3,0-0.5c0.2-0.6,0.5-0.9,1.1-1c0.3,0,0.5,0.1,0.8,0.2c0.3,0.1,0.4,0.3,0.5,0.6
					c0.1,0.3,0.2,0.6,0.2,0.8c0,0.3,0,0.5,0,0.8s0,0.5,0,0.8c0,0.5,0.1,1.2,0.1,2c0,0.8,0.1,1.6,0.1,2.4c0,0.8,0.1,1.4,0.1,2
					C194.7,232.6,194.7,232.9,194.7,233z"/>
				<path d="M222.8,227.8c-0.2-0.1-0.3-0.2-0.5-0.3c-0.2-0.1-0.3-0.2-0.4-0.3c-0.7-0.6-1-1.4-0.9-2.3c0.1-1,0.6-1.7,1.6-2
					c0.9-0.4,1.7-0.2,2.5,0.5c0.9,0.8,1.3,1.8,1.2,3c-0.3,2.5-1.5,4.6-3.6,6.3c-0.2,0.2-0.5,0.3-0.7,0.4c-0.2,0.1-0.5,0-0.8-0.1
					c-0.4-0.2-0.6-0.4-0.7-0.8c-0.1-0.4,0-0.7,0.2-1c0.1-0.1,0.2-0.2,0.3-0.3c0.1-0.1,0.2-0.2,0.3-0.3c0.4-0.4,0.7-0.7,0.9-1.2
					C222.4,228.8,222.6,228.3,222.8,227.8z"/>
				<path d="M236,243.8c0-0.1,0-0.6,0-1.5c0-0.9,0-2-0.1-3.3c0-1.3-0.1-2.8-0.1-4.3c0-1.6-0.1-3-0.1-4.4c0-1.4-0.1-2.6-0.1-3.7
					c0-1,0-1.7,0-2c0-0.4,0-0.6,0.1-0.8c0.1-0.3,0.3-0.5,0.5-0.6c0.2-0.2,0.5-0.2,0.7-0.2c0.3,0,0.5,0.1,0.8,0.2
					c0.2,0.2,0.4,0.4,0.5,0.6c0.1,0.3,0.1,0.6,0.1,1c0.1,0.6,0.1,1.5,0.2,2.7c0.1,1.2,0.1,2.4,0.2,3.8c0,1.4,0.1,2.8,0.2,4.2
					c0.1,1.4,0.1,2.7,0.2,3.9c0,1.2,0.1,2.2,0.1,2.9c0,0.8,0,1.2,0,1.3c0.1,0,0.2,0,0.5,0c0.3,0,0.6,0,1,0c0.4,0,0.7,0,1.1,0
					c0.4,0,0.6,0,0.9,0c0.2,0,0.3,0,0.5,0c0.2,0,0.3,0,0.5,0.1c0.7,0.1,1,0.5,1.1,1.2c0.1,0.7-0.3,1.2-1,1.4
					c-0.2,0.1-0.3,0.1-0.5,0.1c-0.2,0-0.4,0-0.5,0.1c-0.2,0-0.5,0-0.8,0c-0.3,0-0.7,0-1,0c-0.3,0-0.6,0-0.9,0c-0.3,0-0.4,0-0.5,0
					c0,0.5,0,1.2,0,2.1s0,1.8,0,2.8c0,0.9,0,1.8,0,2.5c0,0.7,0,1.2,0,1.4c0,0.3,0,0.5-0.1,0.7c-0.1,0.3-0.2,0.6-0.5,0.8
					c-0.3,0.2-0.6,0.3-0.9,0.3c-0.4,0-0.7-0.1-0.9-0.3c-0.3-0.2-0.4-0.5-0.5-0.8c-0.1-0.2-0.1-0.3-0.1-0.6c0-0.2,0-0.4,0-0.6
					c0-0.6-0.1-1.3-0.1-2.2c0-0.9-0.1-1.7-0.1-2.6c0-0.8-0.1-1.6-0.1-2.2c0-0.6,0-1,0-1c-0.2-0.1-0.4-0.1-0.8-0.1
					c-0.3,0-0.7,0-1.1,0s-0.8,0-1.2,0c-0.4,0-0.7,0-0.8,0c-0.7,0-1.1-0.4-1.2-1c-0.1-0.4,0-0.7,0.2-0.9c0.2-0.3,0.5-0.4,0.9-0.5
					c0.2,0,0.4-0.1,0.8-0.1c0.4,0,0.7,0,1.1-0.1c0.4,0,0.8-0.1,1.1-0.1C235.6,243.8,235.8,243.8,236,243.8z"/>
			</g>
			<g>
				<path d="M261.5,233.7c0.3-0.2,0.5-0.4,0.6-0.5c0.1-0.1,0.3-0.3,0.5-0.4c1.6-1.3,3.5-2.2,5.6-2.6c2-0.4,4-0.2,6,0.6
					c2.1,0.9,3.8,2.3,5,4.3c0.6,1,1.1,2.1,1.5,3.2c0.4,1.1,0.6,2.2,0.8,3.3c0.3,1.9,0.2,3.7-0.2,5.3c-0.9,3.7-3.2,6.4-6.9,8
					c-3.9,1.6-7.7,1.4-11.4-0.7c-0.1-0.1-0.2-0.1-0.3-0.2c-0.1-0.1-0.2-0.1-0.3-0.2c-0.1,0.2-0.1,0.3-0.1,0.5c0,0.2,0,0.3,0,0.5
					c-0.2,0.8-0.6,1.3-1.4,1.4c-0.4,0-0.8-0.1-1.1-0.3c-0.3-0.3-0.5-0.6-0.5-1c-0.1-0.5-0.1-0.9-0.1-1.3c0-0.4,0-0.8,0-1.3
					c-0.1-3.2-0.1-6.4-0.2-9.6c-0.1-3.2-0.2-6.4-0.2-9.6c-0.1-1.5-0.1-2.9-0.1-4.4c0-1.5,0-2.9,0-4.4c0-0.2,0-0.3,0-0.5
					c0-0.1,0-0.3,0-0.5c0.1-0.4,0.2-0.6,0.5-0.9c0.2-0.2,0.5-0.3,0.8-0.3c0.3,0,0.6,0.2,0.8,0.4c0.2,0.2,0.4,0.5,0.5,0.8
					c0.1,0.6,0.1,1.1,0.1,1.6c0,0.5,0.1,1,0.1,1.6c0.1,1,0.1,2.1,0.1,3.1c0,1,0,2,0.1,3.1c0,0.2,0,0.3,0,0.5
					C261.4,233.3,261.4,233.5,261.5,233.7z M261.8,250.1c0.3,0.2,0.5,0.4,0.8,0.6c0.2,0.2,0.5,0.3,0.7,0.5c3.1,2.3,6.5,2.6,10,1
					c1.3-0.5,2.4-1.3,3.2-2.3c0.8-1,1.4-2.1,1.6-3.4c0.4-1.8,0.4-3.6,0.1-5.3c-0.3-1.7-1-3.3-2-4.9c-0.9-1.4-2.2-2.4-4-3
					c-1.1-0.4-2.3-0.5-3.5-0.2c-1.5,0.3-2.8,0.9-3.9,1.7c-1.1,0.8-2.1,1.8-3,2.9c-0.2,0.2-0.3,0.4-0.3,0.7c0,0.2-0.1,0.5-0.1,0.8
					c0.1,1.1,0.1,2.2,0.1,3.3c0,1.1,0,2.2,0.1,3.3c0,0.7,0.1,1.5,0.1,2.3C261.8,248.6,261.8,249.4,261.8,250.1z"/>
				<path d="M289.5,240.6c-0.1,0.5-0.1,0.9,0,1.3c0.1,0.4,0.1,0.8,0.2,1.2c0.1,0.8,0.3,1.7,0.5,2.5c0.2,0.8,0.5,1.6,0.8,2.4
					c0.5,1.3,1.3,2.5,2.1,3.5c0.4,0.4,0.7,0.7,1.1,1c0.4,0.3,0.8,0.5,1.3,0.7c1.6,0.6,3.1,0.4,4.3-0.7c0.6-0.5,1.1-1.2,1.5-2
					c0.2-0.5,0.4-0.9,0.6-1.4s0.4-1,0.6-1.4c0.1-0.3,0.2-0.6,0.4-1c0.4-0.6,1-0.8,1.7-0.6c0.3,0.1,0.6,0.3,0.8,0.5
					c0.2,0.3,0.3,0.6,0.2,0.9c0,0.1,0,0.2,0,0.3c0,0.1,0,0.2-0.1,0.2c-0.3,0.6-0.5,1.3-0.7,1.9c-0.2,0.6-0.5,1.2-0.7,1.8
					c-0.2,0.5-0.5,0.9-0.8,1.4c-0.3,0.4-0.7,0.8-1.1,1.2c-1.1,1-2.3,1.7-3.7,1.9c-1.4,0.2-2.8,0.1-4.2-0.6c-1.2-0.5-2.2-1.2-3.1-2.2
					c-0.7-0.7-1.3-1.5-1.8-2.4c-0.5-0.8-0.9-1.7-1.3-2.6c-0.5-1.3-0.8-2.6-1.1-3.9c-0.2-1.3-0.4-2.7-0.5-4c-0.1-1.7,0-3.4,0.2-5.1
					c0.2-1.7,0.5-3.3,1.1-5c0.3-0.7,0.6-1.5,0.9-2.1c0.3-0.7,0.7-1.3,1.1-2c0.7-1.1,1.5-2,2.5-2.7c2-1.7,4.2-2,6.6-1
					c1.5,0.6,2.8,1.5,3.8,2.7c1,1.1,1.8,2.3,2.4,3.6c0.6,1.3,1.1,2.6,1.4,4c0.2,0.7,0.3,1.5,0.3,2.3c0.1,0.8,0,1.5,0,2.3
					c-0.1,0.4-0.2,0.8-0.3,1.1c-0.4,1.2-1.2,1.8-2.5,1.9c-0.9,0.1-1.7,0.2-2.6,0.2c-0.9,0-1.7,0.1-2.6,0.2c-1.5,0.1-3,0.1-4.6,0
					C292.6,240.9,291,240.8,289.5,240.6z M303.5,237.6c0-0.1,0.1-0.3,0.1-0.5c0-0.1,0-0.3,0-0.4c0-0.1,0-0.2,0-0.4
					c0-2.6-0.7-5-2.1-7.4c-0.3-0.4-0.5-0.8-0.8-1.1c-0.3-0.4-0.6-0.7-0.9-1.1c-0.4-0.4-0.8-0.8-1.3-1c-0.5-0.3-1-0.5-1.5-0.7
					c-0.9-0.3-1.7-0.2-2.5,0.3c-0.4,0.2-0.7,0.5-1,0.7c-0.5,0.5-0.9,0.9-1.3,1.5c-0.4,0.5-0.7,1.1-1,1.6c-0.6,1.3-1.1,2.7-1.4,4
					c-0.3,1.4-0.5,2.7-0.6,4.2c0,0.1,0,0.1,0,0.2c0,0.1,0,0.2,0,0.2c0.3,0.1,0.8,0.1,1.6,0.1c0.7,0,1.6,0,2.5,0c0.9,0,1.9,0,3,0
					c1,0,2,0,3-0.1c0.9,0,1.8-0.1,2.5-0.1C302.7,237.8,303.2,237.7,303.5,237.6z"/>
			</g>
		</g>
		<path d="M231,154.5c0.9,0,1.8,0,2.6,0c2,0,3.9,0,5.9,0.4c2.2,0.5,4.1,1.4,5.5,3.1c1.3,1.5,1.8,3.4,2,5.3c0.4,3.1,0.2,6.3-0.1,9.4
			c-0.2,2.1-0.3,4.2-0.5,6.3c-0.3,3.5-0.6,6.9-0.9,10.4c-0.3,3.3-0.5,6.5-0.2,9.8c0.2,2.1,0.4,4.1,1.1,6.1c0.3,0.9,0.7,1.8,1.2,2.6
			c0.2,0.4,0.5,0.7,0.9,1c0.2,0.2,0.5,0.3,0.8,0.1c0.4-0.2,0.7-0.5,1-0.7c1.3-1.1,2.4-2.4,3.2-3.9c1-1.7,1.9-3.4,2.8-5.2
			c1.9-4,3.8-8,5.7-11.9c0.2-0.5,0.3-1,0.2-1.5c-0.6-3-0.9-6-1.1-9c-0.1-1.2-0.1-2.4-0.2-3.6c-0.1-0.1-0.1-0.1-0.2-0.1
			c-2.2-0.1-4.3-0.2-6.5,0.1c-0.5,0.1-1,0.3-1.5,0.3c-0.4,0.1-0.8,0.1-1.2,0c-0.7-0.2-0.9-0.8-0.5-1.5c0.4-0.6,1-0.9,1.6-1.2
			c1-0.5,2.1-0.8,3.2-0.9c1.4-0.2,2.7-0.2,4.1-0.4c0.3,0,0.6,0,1-0.1c0-1.4,0.1-2.8,0.1-4.2c0.2-4.5,0.6-8.9,1.4-13.3
			c0.3-1.3,0.6-2.6,1.2-3.8c0.3-0.5,0.5-1,0.9-1.5c1.1-1.3,2.7-1.8,4.3-1.3c1,0.3,1.8,0.9,2.1,2c0.3,1,0.5,2,0.6,3.1
			c0.2,2.5,0,5-0.2,7.5c-0.3,3.9-0.5,7.7-0.5,11.6c0,0.2,0,0.3,0.1,0.5c0.1,0,0.3,0.1,0.4,0.1c2.4,0.2,4.9,0.3,7.3,0.4
			c1.4,0.1,2.6-0.2,3.9-0.7c0.7-0.2,1.4-0.4,2.1-0.5c0.4-0.1,0.8,0,1.2,0.1c0.9,0.3,1.2,1.2,0.5,1.9c-0.5,0.5-1.1,0.9-1.6,1.2
			c-1.3,0.6-2.6,1-4,1.3c-2.2,0.4-4.3,0.3-6.5,0.2c-1-0.1-2-0.1-3.1-0.2c0,0.3,0,0.5,0,0.7c0.4,5.3,0.8,10.6,1.9,15.8
			c0.7,3.6,1.8,7.1,3.7,10.3c0.6,1.1,1.3,2.1,2.2,3c1.3,1.5,2.3,1.5,3.7,0.1c0.7-0.7,1.3-1.6,2-2.4c0.6-0.8,1.2-1.5,1.8-2.3
			c0.5-0.6,1.1-1,1.9-1c1.2-0.1,1.8,0.6,1.4,1.7c-0.9,2.5-2.3,4.8-4.3,6.6c-1.5,1.4-3.3,2.3-5.3,2.5c-1.6,0.2-3.1-0.1-4.5-0.8
			c-2.2-1.1-4-2.7-5.5-4.6c-2.4-2.8-4-6.1-5.3-9.6c-0.2-0.6-0.4-1.2-0.7-2c-0.2,0.3-0.3,0.5-0.4,0.8c-1.4,3-2.8,6-4.2,9
			c-1.1,2.3-2.3,4.5-3.9,6.5c-0.8,0.9-1.6,1.8-2.5,2.6c-3.3,2.8-7.2,2.6-10.3-0.4c-2.2-2.1-3.6-4.8-4.5-7.7
			c-0.8-2.6-1.1-5.2-1.3-7.9c-0.3-4.8-0.1-9.5,0.4-14.3c0.4-4.2,1.1-8.4,1.9-12.5c0.4-2.1,0.7-4.1,1-6.2c0.1-0.6,0-1.2,0-1.8
			c-0.1-1.1-0.6-1.9-1.7-2.2c-0.9-0.3-1.9-0.5-2.9-0.6c-1.1-0.1-2.3-0.1-3.4-0.2c-0.1,0-0.3,0-0.5,0.1c0,0.5,0.1,1,0.1,1.4
			c0.4,9.1-2.5,17.2-8.3,24.2c-0.3,0.3-0.3,0.6-0.3,1.1c0.9,6,0.6,12-1.6,17.7c-0.5,1.3-1.2,2.6-2,3.7c-3,4.2-8.2,5.4-12.7,3
			c-2.8-1.5-4.8-3.7-6.2-6.4c-0.3-0.6-0.6-1.3-1-2c-0.2,0.4-0.3,0.7-0.4,1c-0.7,1.7-1.4,3.4-2.2,5c-0.6,1.3-1.4,2.6-2.2,3.8
			c-1,1.6-2.5,2.5-4.4,2.8c-1.5,0.2-2.9-0.1-4.2-0.8c-1.2-0.7-2.2-1.6-3-2.6c-2.2-2.6-3.4-5.7-4-9c-0.7-3.6-0.6-7.3-0.5-11
			c0.1-4.2,0.3-8.4,0.4-12.7c0-1.5,0-3-0.1-4.6c0-0.8-0.2-1.6-0.6-2.4c-0.3,0.2-0.5,0.3-0.7,0.4c-1,0.7-1.7,1.5-2.4,2.4
			c-1.5,1.9-2.6,4-3.5,6.2c-1.2,3.1-2,6.4-2.7,9.6c-0.3,1.2-0.6,2.3-0.9,3.5c-0.8,2.7-4.2,3.6-6.4,2.1c-0.6-0.4-1.1-0.9-1.6-1.5
			c-2.2-2.4-3.7-5.2-5-8.1c-1.1-2.6-1.8-5.2-2.5-7.9c-0.1-0.2-0.1-0.5-0.2-0.8c-1.6,1.8-2.9,3.7-4.4,5.5c0.3,0.3,0.5,0.5,0.7,0.8
			c2,2.1,3.8,4.3,5.1,6.9c0.9,1.9,1.5,3.8,1.7,5.9c0.3,4.8-1.5,8.7-5,11.9c-1.9,1.7-4.1,2.9-6.6,3.5c-5.3,1.3-9.8-2.8-10.6-6.8
			c-0.5-2.6-0.1-5.1,0.7-7.5c0.7-1.9,1.7-3.7,2.8-5.4c0.9-1.4,1.9-2.7,2.8-4c0.2-0.2,0.3-0.5,0.5-0.7c-0.6-0.6-1.2-1.1-1.7-1.6
			c-1.9-1.8-3.8-3.5-5.6-5.3c-1.8-1.8-3.4-3.8-4.7-6.1c-1.2-2.2-1.9-4.4-1.7-6.9c0.2-3.5,2.4-6.4,5.5-7.5c1.8-0.6,3.7-0.6,5.5,0.1
			c2.8,1.1,4.9,2.9,6.2,5.6c0.4,0.9,0.7,1.9,0.7,2.9c0.1,1.2-0.9,1.9-2,1.6c-0.4-0.1-0.7-0.4-0.8-0.8c-0.1-0.3-0.2-0.7-0.3-1
			c-0.8-2.2-2.1-3.9-4.1-5c-0.4-0.2-0.9-0.4-1.4-0.6c-1.1-0.3-1.8,0.1-2.3,1.1c-0.4,1-0.4,2.1-0.2,3.2c0.3,1.4,1,2.7,1.8,3.8
			c1.1,1.6,2.5,3,4,4.3c2,1.8,4.1,3.5,6.2,5.2c0.1,0.1,0.2,0.1,0.3,0.2c0.1-0.1,0.3-0.3,0.4-0.4c1.7-2.1,3.4-4.3,5.1-6.4
			c0.3-0.4,0.4-0.7,0.3-1.2c-0.8-3.9-1.5-7.8-1.7-11.8c-0.2-2.7-0.2-5.4,0.1-8.2c0.2-2.8,0.6-5.5,1.3-8.2c0.7-2.7,1.8-5.3,3.3-7.7
			c1.1-1.7,2.4-3.3,4.2-4.4c1.2-0.7,2.4-1.2,3.7-1.3c2.7-0.2,4.7,0.8,6.2,3c1.2,1.8,1.7,3.8,1.9,5.8c0.3,3.6-0.5,7.1-1.8,10.4
			c-2.2,5.7-5.1,11.1-8.5,16.3c-0.3,0.4-0.4,0.8-0.3,1.3c1.5,5.9,3,11.9,4.6,17.8c0.2,0.7,0.4,1.3,0.8,2c0.1-0.2,0.1-0.5,0.2-0.7
			c0.9-3.2,1.8-6.3,3.1-9.3c1.2-2.7,2.7-5.3,4.8-7.4c0.7-0.7,1.4-1.3,2.1-1.8c3.3-2.3,7.2-1.8,9.8,1.3c1.4,1.6,2.1,3.6,2.7,5.6
			c0.5,1.9,0.7,3.9,0.7,5.8c0,3.4-0.1,6.8-0.2,10.2c-0.1,3.3,0,6.6,0.3,9.8c0.2,1.5,0.3,3.1,0.5,4.6c0.2,1.2,0.5,2.4,1.1,3.4
			c0.1,0.2,0.3,0.5,0.5,0.8c0.3-0.3,0.5-0.5,0.6-0.7c0.8-1.2,1.6-2.5,2.3-3.8c1.4-3,2.7-6,4.1-9c0.1-0.3,0.2-0.6,0.2-0.9
			c-0.2-1.8-0.1-3.6,0.2-5.4c0-0.2,0-0.3,0-0.5c-0.4-0.3-0.7-0.5-1.1-0.8c-3.6-3-5.2-6.9-4.9-11.5c0.4-5.4,4.3-9.7,9.6-10.9
			c3.6-0.8,7-0.3,10.2,1.6c3.1,1.9,5.5,4.5,7.3,7.6c0.9,1.6,1.7,3.3,2.3,5.1c0.1,0.2,0.2,0.5,0.3,0.9c1.9-2.6,3.3-5.3,4.3-8.3
			c1.6-4.7,2.4-9.5,1.9-14.5c-0.6,0-1.3-0.1-1.9-0.1c-2.5-0.1-5-0.4-7.4-1.3c-2.3-0.8-4.3-1.9-5.9-3.7c-1.2-1.4-2-2.9-2-4.8
			c0-2.2,0.9-4,2.8-5.1c2.3-1.5,4.7-1.6,7.2-0.7c3,1.1,5.4,3,7.1,5.8c1.3,2.1,2.2,4.4,2.8,6.9c0,0.1,0.1,0.3,0.1,0.4
			C230.9,154.4,230.9,154.4,231,154.5z M206.8,188.1c0.3,0.1,0.4,0.1,0.5,0.1c1.9,0.1,3.8,0,5.5-0.8c2-0.8,3.7-2.1,5.3-3.5
			c0.3-0.2,0.3-0.5,0.2-0.8c-0.4-2.4-1.2-4.7-2.2-7c-0.9-2-2.1-3.9-3.6-5.6c-1.2-1.2-2.4-2.3-4-3c-1.2-0.6-2.5-0.9-3.8-0.8
			c-4.5,0.3-7.3,3.1-8.3,6.4c-1.3,4.1-0.3,7.8,2.4,11.1c0,0.1,0.1,0.1,0.2,0.1c0.2-0.3,0.3-0.5,0.5-0.8c0.6-1,1.5-1.8,2.6-2.3
			c1.1-0.5,2.2-0.6,3.3-0.2c1.1,0.4,1.6,1.1,1.6,2.3c0,0.3-0.1,0.6-0.1,0.9C207,185.5,206.9,186.8,206.8,188.1z M158.4,160.4
			c0.1,0,0.1,0,0.2,0c0.1-0.2,0.3-0.4,0.4-0.6c1.3-2.4,2.7-4.8,4-7.2c1.4-2.7,2.6-5.4,3.4-8.4c0.7-2.5,1-5,0.5-7.6
			c-0.2-1.4-0.8-2.8-1.8-3.9c-0.8-0.9-1.3-1-2.3-0.4c-0.8,0.5-1.5,1.2-2,2c-0.7,1.1-1.2,2.3-1.6,3.5c-1,3.2-1.5,6.5-1.5,9.9
			c0,2.4,0,4.7,0.2,7.1C158,156.7,158.2,158.6,158.4,160.4z M206.9,190.7c-0.1,1.7,0.2,4.3,0.7,6.3c0.5,1.9,1.2,3.8,2.3,5.5
			c0.6,0.9,1.3,1.7,2.2,2.3c0.8,0.5,1.5,0.5,2.2-0.1c0.6-0.5,1.1-1.1,1.5-1.7c1-1.6,1.7-3.3,2.2-5.2c0.9-3.3,1-6.7,0.9-10.1
			c0-0.3-0.1-0.5-0.1-0.9C215.3,189.5,211.4,190.9,206.9,190.7z M142.3,187.8c-2.1,3-4.1,6-5.1,9.5c-0.3,1.1-0.5,2.2-0.4,3.3
			c0.1,2.1,1,3.9,2.8,5.1c1.4,1,2.9,1.1,4.3,0.1c2-1.3,3.3-3,3.8-5.4c0.3-1.8,0.2-3.7-0.5-5.4C146,192.4,144.3,190.1,142.3,187.8z
			 M227.7,154.6c0-0.3,0-0.4,0-0.6c-0.4-1.8-1-3.6-1.9-5.2c-0.7-1.3-1.6-2.5-2.7-3.5c-1-0.9-2.2-1.5-3.5-1.8c-2.4-0.5-4.8,1.3-5,3.7
			c-0.1,1.5,0.5,2.8,1.5,3.9c0.9,1,2,1.7,3.3,2.2c1.9,0.8,3.8,1.1,5.8,1.3C225.9,154.5,226.8,154.5,227.7,154.6z"/>
		<path d="M207.3,309.7c-1.3-3.4-2.7-6.7-5-9.6c-0.6-0.7-1.1-1.4-1.7-2.1c-1.8-2.4-1.9-4-0.3-6.5c0.4-0.6,0.9-1.2,1.4-1.8
			c1.6-2.2,3.3-4.5,4.9-6.8c1.2-1.8,2.2-3.7,2.6-5.8c0.2-0.9,0.3-1.8,0.3-2.7c0-0.5-0.2-1-0.4-1.5c-0.5-0.9-1.2-1.2-2.2-1
			c-1.3,0.3-2.5,0.9-3.5,1.8c-1.6,1.3-2.9,3-3.9,4.8c-1.4,2.4-2.4,4.9-3.2,7.5c-1.4,4.3-2.5,8.7-3.6,13c-0.9,3.4-1.7,6.9-3,10.3
			c-0.6,1.6-1.3,3.1-2.3,4.5c-1.5,2.1-3.5,3.2-6.1,3.1c-1.7-0.1-3.1-0.7-4.4-1.7c-1.3-1-2.3-2.2-3.1-3.6c-1.7-2.6-2.6-5.4-3.1-8.4
			c-0.2-1.1-0.3-2.1-0.5-3.2c0-0.1-0.1-0.2-0.1-0.5c-0.2,0.3-0.4,0.6-0.5,0.8c-1,1.7-2,3.3-3.3,4.7c-1.1,1.2-2.3,2.1-3.8,2.7
			c-2.8,0.9-5.3,0.4-7.7-1.3c-1.2-0.9-2.2-2-3.1-3.1c-0.2-0.2-0.3-0.4-0.5-0.7c-0.1,0.2-0.2,0.4-0.3,0.5c-1.7,3.5-3.4,7-5,10.5
			c-1.1,2.4-2.3,4.7-4,6.8c-0.6,0.8-1.3,1.6-2.1,2.2c-2.8,2.2-5.9,2.6-9.2,1.3c-2.4-1-4.4-2.6-6.2-4.5c-2.6-2.7-4.4-6-5.7-9.5
			c-1.5-3.7-2.4-7.7-3-11.6c-0.9-5.8-1.2-11.7-0.9-17.6c0.3-6.2,1.3-12.3,3.6-18.2c1.1-2.8,2.6-5.5,4.7-7.8c1.2-1.3,2.6-2.4,4.4-2.8
			c3.3-0.9,6.1,0.1,8.5,2.3c1.8,1.7,2.7,3.9,3.2,6.3c0.9,4.2,0.4,8.3-0.7,12.4c-1.8,6.6-5.2,12.3-9.7,17.3c-0.9,1-2,1.9-3.1,2.8
			c-0.4,0.3-0.6,0.6-0.5,1.2c0.5,4,1.2,8,2.3,11.9c0.8,2.9,1.8,5.8,3.4,8.4c0.8,1.4,1.7,2.7,2.9,3.8c0.5,0.5,1.1,0.9,1.7,1.3
			c0.3,0.3,0.7,0.2,1,0c0.5-0.4,1.1-0.9,1.5-1.4c0.8-1,1.5-2,2.2-3c1.9-2.9,3.5-5.8,5.1-8.9c1.2-2.4,2.5-4.8,3.7-7.2
			c0.3-0.5,0.3-1,0.1-1.5c-1.6-4.8-1.4-9.6,0.4-14.4c0.5-1.3,1.2-2.5,2-3.6c2.6-3.6,6.2-5.3,10.6-5.2c4,0,7.2,1.7,10.1,4.2
			c0.2,0.2,0.4,0.3,0.7,0.6c0.1-0.1,0.1-0.3,0.2-0.4c1.5-1.8,4-2,5.8-1.2c1.5,0.6,2.3,1.8,2.3,3.4c0,1.2-0.2,2.4-0.3,3.6
			c-0.7,4.5-1.1,9.1-0.8,13.6c0.1,3.3,0.6,6.6,1.4,9.8c0.3,1.3,0.8,2.6,1.6,3.8c0.2,0.3,0.4,0.5,0.6,0.8c0.4-0.5,0.8-1,1.1-1.5
			c0.7-1.2,1.3-2.5,1.9-3.8c1.4-3.4,2.3-6.9,3.3-10.4c1.2-4.2,2.4-8.5,3.6-12.7c0.7-2.5,1.7-4.8,3-7.1c1.2-2.2,2.7-4.1,4.6-5.7
			c1.8-1.5,3.9-2.4,6.2-2.5c3.7-0.3,7.1,1.9,8.4,5.4c0.7,1.9,0.9,3.9,0.7,6c-0.3,4.3-2.1,8-4.9,11.2c-1,1.1-2.1,2.2-3.1,3.3
			c-0.1,0.1-0.2,0.3-0.4,0.4c2,2.3,4,4.6,6,7c2.7-3,5.3-5.9,7.9-8.9c0-0.1,0-0.1,0-0.2c-0.9-2-1.2-4.1-1.3-6.2
			c-0.2-2.9-0.1-5.7,0.4-8.5c0.1-0.4,0.2-0.9,0.3-1.3c0.8-2.6,3.1-4.2,5.8-3.9c0.8,0.1,1.6,0.2,2.2,0.7c0.9,0.6,1.5,1.4,1.5,2.5
			c0,1.2-0.2,2.5-0.3,3.7c-0.4,4-0.1,8,0.9,11.9c0.2,0.9,0.5,1.8,1.1,2.5c0.5,0.6,0.8,0.7,1.5,0.3c0.7-0.4,1.3-0.9,1.9-1.4
			c1.5-1.5,2.8-3.2,3.9-4.9c2.5-3.8,4.6-7.8,6.6-11.9c1-2,2-4,3.1-5.9c0.4-0.7,0.8-1.4,1.3-2.2c2.2-3.4,7.4-3.4,9.8-0.2
			c0.7,0.9,1.1,1.9,1.5,2.9c0.8,2.4,1.4,4.9,1.7,7.4c0.6,4.1,0.8,8.3,1,12.5c0,1.3,0.1,2.7,0.2,4.1c0.2-0.2,0.4-0.3,0.5-0.4
			c1.8-1.7,3.3-3.5,4.7-5.4c0.6-0.9,1.3-1.7,2-2.5c0.3-0.4,0.7-0.6,1.2-0.7c1.2-0.2,1.9,0.7,1.4,1.8c-0.4,0.9-0.8,1.8-1.3,2.6
			c-1.2,1.9-2.6,3.5-4.2,5.1c-1.2,1.2-2.5,2.4-3.8,3.6c-0.4,0.3-0.5,0.6-0.5,1.1c0,3,0.1,6,0,9c-0.2,4.8-0.5,9.6-1.5,14.4
			c-0.7,3.2-1.8,6.3-3.8,9c-2.1,2.9-4.8,5.1-8.3,6c-2.9,0.7-5.7,0.5-8.1-1.5c-1.6-1.3-2.8-2.9-3.6-4.8c-1.1-2.5-1.3-5.2-1-7.9
			c0.5-4.6,2.5-8.5,5.4-11.9c1.5-1.8,3.2-3.4,5.1-4.8c1.8-1.4,3.6-2.8,5.5-4.2c0.4-0.3,0.6-0.6,0.5-1.1c-0.2-4.4-0.2-8.8-0.4-13.2
			c-0.2-5-0.7-10-1.7-14.9c0-0.2-0.1-0.3-0.2-0.6c-0.3,0.4-0.5,0.7-0.7,1.1c-1.5,2.7-3,5.4-4.4,8.1c-1.4,2.7-2.8,5.3-4.3,8
			c-1.2,2.1-2.6,4.1-4.4,5.8c-1.6,1.6-3.5,2.7-5.7,3.1c-3.5,0.6-6.6-0.3-9-3c-0.3-0.3-0.6-0.7-1-1.1c-2.6,3-5.2,6-7.7,8.9
			c0,0.1,0,0.2,0,0.2c1.9,3.3,3,6.8,3.9,10.5c0.7,2.9,1.1,5.8,0.9,8.8c-0.1,2.6-0.8,5.1-2.1,7.3c-1.8,3-4.4,4.9-7.8,5.8
			c-2.8,0.7-6.2-0.3-8-3.4c-1.5-2.5-2-5.3-1.9-8.2c0.1-2.5,0.7-4.8,1.7-7.1c1.2-2.8,2.8-5.4,4.5-7.8
			C206.9,310.3,207.1,310,207.3,309.7z M156.9,290.7c0.2,1.6,0.3,3.3,0.5,4.9c0.3,2,0.8,3.9,1.7,5.7c0.3,0.6,0.8,1.3,1.2,1.8
			c0.7,0.8,1.1,0.9,1.9,0.2c0.7-0.6,1.4-1.2,2-1.9c1.9-2.2,3.4-4.7,5-7.2c0.4-0.7,0.7-1.4,0.7-2.2c0.1-3,0.4-5.9,1.1-8.8
			c0.1-0.3,0.1-0.5-0.1-0.7c-1.9-2.3-4.2-3.8-7.2-4.2c-1.9-0.2-3.4,0.5-4.4,2.2c-0.2,0.4-0.4,0.9-0.6,1.3
			C157.4,284.7,156.9,287.7,156.9,290.7z M124.5,289.2c0.1,0,0.1,0,0.2,0.1c0.2-0.2,0.4-0.4,0.5-0.6c1.4-1.9,2.9-3.8,4.3-5.7
			c2.1-3.1,3.7-6.4,4.8-10c1-3.2,1.6-6.4,1.3-9.7c-0.2-1.8-0.5-3.6-1.4-5.3c-0.4-0.8-0.9-1.5-1.7-2.1c-1.1-0.9-2-0.8-2.8,0.3
			c-0.5,0.7-1,1.4-1.3,2.1c-1,2-1.6,4.1-2.1,6.2c-1.6,7.1-2.2,14.2-2,21.4C124.3,287,124.4,288.1,124.5,289.2z M254.9,307.2
			c-0.2,0.2-0.4,0.2-0.5,0.3c-1.8,1.6-3.6,3.1-5.4,4.7c-1.5,1.4-2.8,2.9-3.8,4.7c-1.7,3-2.5,6.1-2,9.5c0.3,1.8,0.9,3.5,2,5
			c0.5,0.7,1.2,1.3,2,1.8c0.6,0.3,0.8,0.3,1.3-0.1c0.5-0.5,0.9-1,1.3-1.6c2.4-3.5,3.7-7.4,4.1-11.6c0.3-2.6,0.5-5.2,0.7-7.7
			C254.9,310.5,254.9,308.9,254.9,307.2z M208.6,313.4c-0.1,0.1-0.2,0.1-0.2,0.2c-1.5,2.4-2.9,4.9-3.6,7.7c-0.6,2.5-0.6,5,0.4,7.5
			c0.5,1.2,1.1,2.3,2.2,3c1.5,1.1,2.5,0.9,2.9-1c0.2-1,0.3-2,0.4-3c0.1-1.8,0.1-3.7,0-5.5c-0.2-2.9-1-5.6-1.8-8.3
			C208.8,313.8,208.7,313.6,208.6,313.4z"/>
	</g>
	<g>
		<path class="st53" d="M339.7,170.4c-3.4,2.6-3.8,5.9-4.5,9.6c-1-2.3-2.3-5.2-5.6-10.3c-2.2-3.5-0.8-6-4.6-13.9
			c-8.3-17.6-20.8-15.8-22.2-8.9c-1.5,7.5,7.9,16.5,20.9,20.8c0.5,0.2,0.8,0.4,1.1,0.9c1.8,3.2,6.9,11.8,7,13.6
			c-21.7-15.9-32.1,6.1-8.8,10.1c3.7,0.6,8.9,0.5,12.6,0.4c3.2,10.6,5.2,21.5,3.7,32.7c-16.5-39.7-50.2-20.5-6.3,4.1
			c1.8,1,3.7,2.1,5.6,3.1c-0.7,4.9-1.7,9.9-3.3,14.8c-11.4-28.8-33.2-7.9-2.9,8.4c-0.2,2-6.9,16.1-9,19c0.4-5.7,0.2-12.3-4.1-16.2
			c-4.4-4-10-1.6-7.2,8.6c1.3,4.7,4.4,10.5,6.9,13.9c-1.7,2.3-3.5,4.5-5.6,6.6c0.1-13.2-10.6-9.9-6.6-0.2c0.6,1.4,1.3,2.8,2.3,4.1
			c-6,4.7-8.9,5.7-8.2,7.3c1,2.3,3.4,0.7,9.8-4.5c9.7,10.2,18.9-2.8,4.6-4c4.3-4.2,2.6-2.3,6.4-7c0.1,0.1,0.3,0.2,0.5,0.2
			c16,5.1,22.4-7.5,16.4-9.9c-3.4-1.4-8.2,0.6-11.1,1.8c3.6-5.9,6.3-12.1,8.9-18.5c1.9,0.4,5.5,1.2,9.5,1.1
			c18.6-0.7,13.1-19.7-5.9-11.9c1.2-4.3,2-8.6,2.7-12.9c30.4-4.4,28.6-25.3,16.3-25.6c-9.5-0.2-13.8,11.6-14.9,12.7
			c0.1-12.8-2.4-21.4-4.5-28.7c5.1-2.6,11.4-11,9.6-17.9C348,169.2,343.5,167.6,339.7,170.4z"/>
		<path class="st53" d="M102.5,114c2.7,3.3,2.3,6.6,2.1,10.4c1.5-1.9,3.5-4.5,7.8-8.7c3-2.9,2.2-5.6,7.7-12.5
			c12.2-15.1,24-10.5,23.6-3.4c-0.4,7.6-11.5,14.1-25.2,15.2c-0.5,0-0.9,0.2-1.3,0.6c-2.5,2.7-9.5,9.9-10,11.6
			c24.8-10.4,29.8,13.5,6.2,11.9c-3.7-0.3-8.8-1.6-12.3-2.5c-5.6,9.6-10.1,19.6-11.3,30.9c25.4-34.7,53.7-8.1,5.2,5.5
			c-2,0.6-4,1.1-6.2,1.7c-0.5,4.9-0.6,10-0.3,15.2c17.9-25.3,34.1,0.2,0.9,8.8c-0.3,2,2.9,17.2,4.3,20.6c1-5.7,2.7-12,7.8-14.8
			c5.2-2.8,10.1,0.8,5,10c-2.4,4.3-6.8,9.1-9.9,11.8c1.1,2.6,2.3,5.2,3.9,7.7c3-12.9,12.7-7.1,6.4,1.3c-0.9,1.2-1.9,2.4-3.2,3.4
			c4.7,6,7.3,7.6,6.3,9c-1.5,2-3.4-0.1-8.4-6.7c-11.8,7.6-17.7-7.2-3.6-4.9c-3.2-5.1-1.9-2.9-4.6-8.3c-0.1,0-0.3,0.1-0.6,0.1
			c-16.7,1.2-20-12.5-13.6-13.5c3.6-0.6,7.9,2.5,10.4,4.4c-2.1-6.6-3.2-13.3-4.3-20c-2-0.1-5.7-0.1-9.5-1.2
			c-17.9-5.1-8.1-22.2,8.5-10.2c-0.1-4.5,0-8.8,0.4-13.2c-28.5-11.5-21.8-31.4-9.8-28.7c9.2,2.1,10.7,14.5,11.5,15.8
			c2.9-12.4,7.4-20.3,11.1-26.9c-4.3-3.8-8.5-13.4-5.1-19.6C94.8,110.9,99.5,110.4,102.5,114z"/>
	</g>
</g>
</svg>
